<svg width="24" height="24" viewBox="0 0 24 24" fill="none" xmlns="http://www.w3.org/2000/svg">
<g id="box">
<path id="Vector" d="M12.0001 13.3C11.8701 13.3 11.7401 13.27 11.6201 13.2L2.79008 8.08998C2.44008 7.87998 2.31008 7.41998 2.52008 7.05998C2.73008 6.69998 3.19008 6.57998 3.55008 6.78998L12.0001 11.68L20.4001 6.81998C20.7601 6.60998 21.2201 6.73998 21.4301 7.08998C21.6401 7.44998 21.5101 7.90998 21.1601 8.11998L12.3901 13.2C12.2601 13.26 12.1301 13.3 12.0001 13.3Z" fill="#001ED2" stroke="#001ED2" stroke-width="0.333333"/>
<path id="Vector_2" d="M12 22.36C11.59 22.36 11.25 22.02 11.25 21.61V12.54C11.25 12.13 11.59 11.79 12 11.79C12.41 11.79 12.75 12.13 12.75 12.54V21.61C12.75 22.02 12.41 22.36 12 22.36Z" fill="#001ED2" stroke="#001ED2" stroke-width="0.333333"/>
<path id="Vector_3" d="M11.9992 22.75C11.1192 22.75 10.2492 22.56 9.55916 22.18L4.21916 19.21C2.76916 18.41 1.63916 16.48 1.63916 14.82V9.17C1.63916 7.51 2.76916 5.59 4.21916 4.78L9.55916 1.82C10.9292 1.06 13.0692 1.06 14.4392 1.82L19.7792 4.79C21.2292 5.59 22.3592 7.52 22.3592 9.18V14.83C22.3592 16.49 21.2292 18.41 19.7792 19.22L14.4392 22.18C13.7492 22.56 12.8792 22.75 11.9992 22.75ZM11.9992 2.75C11.3692 2.75 10.7492 2.88 10.2892 3.13L4.94916 6.1C3.98916 6.63 3.13916 8.07 3.13916 9.17V14.82C3.13916 15.92 3.98916 17.36 4.94916 17.9L10.2892 20.87C11.1992 21.38 12.7992 21.38 13.7092 20.87L19.0492 17.9C20.0092 17.36 20.8592 15.93 20.8592 14.82V9.17C20.8592 8.07 20.0092 6.63 19.0492 6.09L13.7092 3.12C13.2492 2.88 12.6292 2.75 11.9992 2.75Z" fill="#001ED2" stroke="#001ED2" stroke-width="0.333333"/>
</g>
</svg>
