<svg width="30" height="30" viewBox="0 0 30 30" fill="none" xmlns="http://www.w3.org/2000/svg">
<g id="vuesax/linear/shop">
<g id="vuesax/linear/shop_2">
<g id="shop">
<path id="Vector" d="M3.76245 14.025V19.6375C3.76245 25.25 6.01245 27.5 11.625 27.5H18.3625C23.975 27.5 26.225 25.25 26.225 19.6375V14.025" stroke="#BDBDBD" stroke-width="1.875" stroke-linecap="round" stroke-linejoin="round"/>
<path id="Vector_2" d="M15 15C17.2875 15 18.975 13.1375 18.75 10.85L17.925 2.5H12.0875L11.25 10.85C11.025 13.1375 12.7125 15 15 15Z" stroke="#BDBDBD" stroke-width="1.875" stroke-linecap="round" stroke-linejoin="round"/>
<path id="Vector_3" d="M22.8875 15C25.4125 15 27.2625 12.95 27.0125 10.4375L26.6625 7C26.2125 3.75 24.9625 2.5 21.6875 2.5H17.875L18.75 11.2625C18.9625 13.325 20.825 15 22.8875 15Z" stroke="#BDBDBD" stroke-width="1.875" stroke-linecap="round" stroke-linejoin="round"/>
<path id="Vector_4" d="M7.04985 15C9.11235 15 10.9749 13.325 11.1749 11.2625L11.4499 8.5L12.0499 2.5H8.23735C4.96235 2.5 3.71235 3.75 3.26235 7L2.92485 10.4375C2.67485 12.95 4.52485 15 7.04985 15Z" stroke="#BDBDBD" stroke-width="1.875" stroke-linecap="round" stroke-linejoin="round"/>
<path id="Vector_5" d="M15 21.25C12.9125 21.25 11.875 22.2875 11.875 24.375V27.5H18.125V24.375C18.125 22.2875 17.0875 21.25 15 21.25Z" stroke="#BDBDBD" stroke-width="1.875" stroke-linecap="round" stroke-linejoin="round"/>
</g>
</g>
</g>
</svg>
