<svg width="76" height="92" viewBox="0 0 76 92" fill="none" xmlns="http://www.w3.org/2000/svg">
<g id="click">
<g id="&#231;&#188;&#150;&#231;&#187;&#132;">
<g id="&#229;&#136;&#134;&#231;&#187;&#132;">
<path id="Rectangle-2" d="M18.3466 50.5263V25.6316C18.3466 21.8819 21.3863 18.8421 25.136 18.8421C28.8858 18.8421 31.9255 21.8819 31.9255 25.6316V50.5263" stroke="white" stroke-width="5" stroke-linecap="round" stroke-linejoin="round"/>
<path id="Rectangle-4" d="M72.6623 48.2631V62.9737C72.6623 77.3476 61.01 89 46.636 89H44.3729C29.9989 89 18.3466 77.3476 18.3466 62.9737V48.2631" stroke="white" stroke-width="5" stroke-linecap="round" stroke-linejoin="round"/>
<path id="Rectangle-3" d="M31.9255 57.3158V53.0288V46C31.9255 42.2503 34.9653 39.2105 38.715 39.2105C42.4647 39.2105 45.5045 42.2503 45.5045 46V53.2009V57.3158" stroke="white" stroke-width="5" stroke-linecap="round" stroke-linejoin="round"/>
<path id="Rectangle-3-Copy" d="M45.5045 57.3158V53.0288V46C45.5045 42.2503 48.5443 39.2105 52.294 39.2105C56.0437 39.2105 59.0835 42.2503 59.0835 46V53.2009V57.3158" stroke="white" stroke-width="5" stroke-linecap="round" stroke-linejoin="round"/>
<path id="Rectangle-3-Copy-2" d="M59.0834 57.3158V53.0288V46C59.0834 42.2503 62.1231 39.2105 65.8728 39.2105C69.6226 39.2105 72.6623 42.2503 72.6623 46V53.2009V57.3158" stroke="white" stroke-width="5" stroke-linecap="round" stroke-linejoin="round"/>
</g>
<path id="&#232;&#183;&#175;&#229;&#190;&#132;" d="M47.7675 25.6316C47.7675 23.2527 47.4005 20.9596 46.72 18.8058C45.9589 16.3968 44.8057 14.1621 43.3352 12.1764C39.2123 6.6091 32.5956 3 25.136 3C17.6763 3 11.0596 6.6091 6.93673 12.1764C5.46625 14.1621 4.31302 16.3968 3.55192 18.8058C2.87141 20.9596 2.50439 23.2527 2.50439 25.6316" stroke="white" stroke-width="5" stroke-linecap="round"/>
</g>
</g>
</svg>
