<svg width="29" height="30" viewBox="0 0 29 30" fill="none" xmlns="http://www.w3.org/2000/svg">
<g id="company-svgrepo-com 1">
<path id="Vector" d="M16.7169 7.71336L16.7169 7.9994L16.9855 7.90118C17.3418 7.77092 17.7253 7.7 18.1251 7.7H22.9584C24.8437 7.7 26.3834 9.28294 26.3834 11.25V23.75C26.3834 25.7171 24.8437 27.3 22.9584 27.3H6.04175C4.15651 27.3 2.61675 25.7171 2.61675 23.75V6.25C2.61675 4.28294 4.15651 2.7 6.04175 2.7H13.2917C15.177 2.7 16.7167 4.28294 16.7167 6.25L16.7169 7.71336ZM14.5001 25.2H14.7001V25V6.25C14.7001 5.45563 14.0759 4.8 13.2917 4.8H6.04175C5.25761 4.8 4.63341 5.45563 4.63341 6.25V23.75C4.63341 24.5444 5.25761 25.2 6.04175 25.2H14.5001ZM16.7167 25V25.2H16.9167H22.9584C23.7426 25.2 24.3667 24.5444 24.3667 23.75V11.25C24.3667 10.4556 23.7426 9.8 22.9584 9.8H18.1251C17.3409 9.8 16.7167 10.4556 16.7167 11.25V25ZM10.8751 17.7C11.4256 17.7 11.8834 18.1637 11.8834 18.75C11.8834 19.3363 11.4256 19.8 10.8751 19.8H8.45841C7.90786 19.8 7.45008 19.3363 7.45008 18.75C7.45008 18.1637 7.90786 17.7 8.45841 17.7H10.8751ZM21.7501 17.7C22.3006 17.7 22.7584 18.1637 22.7584 18.75C22.7584 19.3363 22.3006 19.8 21.7501 19.8H19.3334C18.7829 19.8 18.3251 19.3363 18.3251 18.75C18.3251 18.1637 18.7829 17.7 19.3334 17.7H21.7501ZM10.8751 12.7C11.4256 12.7 11.8834 13.1637 11.8834 13.75C11.8834 14.3363 11.4256 14.8 10.8751 14.8H8.45841C7.90786 14.8 7.45008 14.3363 7.45008 13.75C7.45008 13.1637 7.90786 12.7 8.45841 12.7H10.8751ZM21.7501 12.7C22.3006 12.7 22.7584 13.1637 22.7584 13.75C22.7584 14.3363 22.3006 14.8 21.7501 14.8H19.3334C18.7829 14.8 18.3251 14.3363 18.3251 13.75C18.3251 13.1637 18.7829 12.7 19.3334 12.7H21.7501ZM10.8751 7.7C11.4256 7.7 11.8834 8.16365 11.8834 8.75C11.8834 9.33634 11.4256 9.8 10.8751 9.8H8.45841C7.90786 9.8 7.45008 9.33634 7.45008 8.75C7.45008 8.16366 7.90786 7.7 8.45841 7.7H10.8751Z" fill="#9E9E9E" stroke="white" stroke-width="0.4"/>
</g>
</svg>
