<svg width="36" height="37" viewBox="0 0 36 37" fill="none" xmlns="http://www.w3.org/2000/svg">
<rect width="36" height="37" fill="#E5E5E5"/>
<rect x="-196" y="-385" width="428" height="1544" rx="24" fill="white"/>
<rect x="-30" y="-30" width="96" height="96" rx="48" stroke="#29AAE1" stroke-width="4"/>
<path d="M21.4002 7.71576L21.4002 8.00117L21.6684 7.90373C22.2099 7.70706 22.7926 7.6 23.4 7.6H30.6C33.4668 7.6 35.8 9.99008 35.8 12.95V31.45C35.8 34.4099 33.4668 36.8 30.6 36.8H5.4C2.53325 36.8 0.2 34.4099 0.2 31.45V5.55C0.2 2.59008 2.53325 0.2 5.4 0.2H16.2C19.0667 0.2 21.4 2.59008 21.4 5.55L21.4002 7.71576ZM18 33.5H18.2V33.3V5.55C18.2 4.42302 17.3097 3.5 16.2 3.5H5.4C4.2903 3.5 3.4 4.42302 3.4 5.55V31.45C3.4 32.577 4.2903 33.5 5.4 33.5H18ZM21.4 33.3V33.5H21.6H30.6C31.7097 33.5 32.6 32.577 32.6 31.45V12.95C32.6 11.823 31.7097 10.9 30.6 10.9H23.4C22.2903 10.9 21.4 11.823 21.4 12.95V33.3ZM12.6 22.4C13.4785 22.4 14.2 23.1335 14.2 24.05C14.2 24.9665 13.4785 25.7 12.6 25.7H9C8.12147 25.7 7.4 24.9665 7.4 24.05C7.4 23.1335 8.12147 22.4 9 22.4H12.6ZM28.8 22.4C29.6785 22.4 30.4 23.1335 30.4 24.05C30.4 24.9665 29.6785 25.7 28.8 25.7H25.2C24.3215 25.7 23.6 24.9665 23.6 24.05C23.6 23.1335 24.3215 22.4 25.2 22.4H28.8ZM12.6 15C13.4785 15 14.2 15.7335 14.2 16.65C14.2 17.5665 13.4785 18.3 12.6 18.3H9C8.12147 18.3 7.4 17.5665 7.4 16.65C7.4 15.7335 8.12147 15 9 15H12.6ZM28.8 15C29.6785 15 30.4 15.7335 30.4 16.65C30.4 17.5665 29.6785 18.3 28.8 18.3H25.2C24.3215 18.3 23.6 17.5665 23.6 16.65C23.6 15.7335 24.3215 15 25.2 15H28.8ZM12.6 7.6C13.4785 7.6 14.2 8.33353 14.2 9.25C14.2 10.1665 13.4785 10.9 12.6 10.9H9C8.12147 10.9 7.4 10.1665 7.4 9.25C7.4 8.33353 8.12147 7.6 9 7.6H12.6Z" fill="#29AAE1" stroke="#D9D9D9" stroke-width="0.4"/>
</svg>
