<svg width="45" height="45" viewBox="0 0 45 45" fill="none" xmlns="http://www.w3.org/2000/svg">
<g clip-path="url(#clip0_341_7050)">
<path d="M35.2213 0H9.77871C4.37808 0 0 4.37808 0 9.77871V35.2213C0 40.6219 4.37808 45 9.77871 45H35.2213C40.6219 45 45 40.6219 45 35.2213V9.77871C45 4.37808 40.6219 0 35.2213 0Z" fill="#001ED2"/>
<path d="M36.7249 11.6209C36.4364 11.4671 36.1201 11.3721 35.7946 11.3415C35.469 11.3108 35.1407 11.3451 34.8285 11.4424C34.5163 11.5396 34.2265 11.6979 33.976 11.9081C33.7255 12.1182 33.5192 12.376 33.3691 12.6665L26.4981 25.7314L24.7853 20.3043L27.6831 14.7975C27.9883 14.2137 28.0497 13.5326 27.8537 12.9036C27.6577 12.2745 27.2204 11.7489 26.6375 11.4417C26.0521 11.136 25.3696 11.0744 24.7389 11.2703C24.1083 11.4662 23.5808 11.9037 23.2717 12.4873L22.6742 13.6325L22.4054 12.786C22.2128 12.1847 21.792 11.6829 21.2333 11.3887C20.6746 11.0945 20.0228 11.0313 19.418 11.2127C18.8182 11.4074 18.318 11.8286 18.0242 12.3866C17.7303 12.9446 17.6659 13.5953 17.8446 14.2001L19.5474 19.5973L16.4704 25.4525L12.3777 12.5072C12.1874 11.9043 11.7669 11.4009 11.2075 11.1063C10.6481 10.8117 9.99512 10.7497 9.39032 10.9338C8.78745 11.1242 8.28404 11.5447 7.98944 12.1041C7.69484 12.6634 7.63287 13.3164 7.81697 13.9212L13.5926 32.1941C13.6419 32.4432 13.7327 32.6822 13.8614 32.9011C13.8842 32.9496 13.9108 32.9963 13.9411 33.0405C14.1439 33.3541 14.4167 33.6163 14.7381 33.8064C15.0596 33.9965 15.4208 34.1093 15.7933 34.1359H15.9825C16.415 34.1353 16.8399 34.022 17.2153 33.8073C17.5907 33.5925 17.9037 33.2836 18.1234 32.9111L21.5888 26.3089L23.6402 32.7916C23.8327 33.3929 24.2536 33.8946 24.8122 34.1889C25.3709 34.4831 26.0227 34.5463 26.6275 34.3649C26.8096 34.3076 26.9836 34.2273 27.1454 34.1259C27.5687 33.9001 27.9153 33.5534 28.1412 33.1301L37.661 15.0166C37.8226 14.7322 37.9266 14.4188 37.9671 14.0942C38.0075 13.7695 37.9836 13.4401 37.8967 13.1248C37.8097 12.8094 37.6615 12.5143 37.4604 12.2563C37.2594 11.9982 37.0094 11.7823 36.7249 11.6209Z" fill="white"/>
</g>
<defs>
<clipPath id="clip0_341_7050">
<rect width="45" height="45" fill="white"/>
</clipPath>
</defs>
</svg>
