<svg width="30" height="30" viewBox="0 0 30 30" fill="none" xmlns="http://www.w3.org/2000/svg">
<g id="vuesax/bold/home">
<g id="vuesax/bold/home_2">
<g id="home">
<path id="Vector" d="M26.0751 10.4624L17.4126 3.53743C16.0751 2.46243 13.9126 2.46243 12.5876 3.52493L3.92509 10.4624C2.95009 11.2374 2.32509 12.8749 2.53759 14.0999L4.20009 24.0499C4.50009 25.8249 6.20009 27.2624 8.00009 27.2624H22.0001C23.7876 27.2624 25.5001 25.8124 25.8001 24.0499L27.4626 14.0999C27.6626 12.8749 27.0376 11.2374 26.0751 10.4624ZM15.0001 19.3749C13.2751 19.3749 11.8751 17.9749 11.8751 16.2499C11.8751 14.5249 13.2751 13.1249 15.0001 13.1249C16.7251 13.1249 18.1251 14.5249 18.1251 16.2499C18.1251 17.9749 16.7251 19.3749 15.0001 19.3749Z" fill="#001ED2"/>
</g>
</g>
</g>
</svg>
