<svg width="135" height="135" viewBox="0 0 135 135" fill="none" xmlns="http://www.w3.org/2000/svg">
<g id="Layer_1" clip-path="url(#clip0_341_6946)">
<path id="Vector" d="M105.664 0H29.3361C13.1342 0 0 13.1342 0 29.3361V105.664C0 121.866 13.1342 135 29.3361 135H105.664C121.866 135 135 121.866 135 105.664V29.3361C135 13.1342 121.866 0 105.664 0Z" fill="white"/>
<path id="Vector_2" d="M110.175 34.8628C109.309 34.4013 108.361 34.1163 107.384 34.0243C106.407 33.9324 105.422 34.0353 104.485 34.3271C103.549 34.6189 102.68 35.0938 101.928 35.7242C101.177 36.3547 100.558 37.1281 100.107 37.9996L79.4944 77.1941L74.3561 60.9128L83.0493 44.3926C83.9651 42.641 84.1492 40.5978 83.5612 38.7107C82.9733 36.8236 81.6612 35.2465 79.9126 34.3251C78.1565 33.408 76.1089 33.2231 74.2169 33.8108C72.325 34.3986 70.7425 35.7111 69.8152 37.4618L68.0228 40.8973L67.2162 38.3581C66.6386 36.554 65.3759 35.0488 63.6999 34.1661C62.0239 33.2834 60.0684 33.0938 58.254 33.638C56.4546 34.2222 54.9542 35.4858 54.0726 37.1598C53.191 38.8338 52.9977 40.7858 53.534 42.6001L58.6424 58.7918L49.4114 76.3576L37.1332 37.5216C36.5622 35.713 35.3007 34.2027 33.6226 33.3189C31.9445 32.4352 29.9854 32.2492 28.1711 32.8015C26.3625 33.3725 24.8522 34.6341 23.9684 36.3122C23.0846 37.9902 22.8987 39.9493 23.451 41.7637L40.7778 96.5822C40.9257 97.3295 41.1983 98.0466 41.5844 98.7033C41.6527 98.8489 41.7326 98.9887 41.8234 99.1215C42.4317 100.062 43.2502 100.849 44.2145 101.419C45.1788 101.989 46.2625 102.328 47.38 102.408H47.9476C49.2451 102.406 50.5198 102.066 51.6461 101.422C52.7723 100.777 53.7113 99.8508 54.3704 98.7331L64.7665 78.9268L70.9206 98.3746C71.4982 100.179 72.7608 101.684 74.4368 102.567C76.1128 103.449 78.0683 103.639 79.8827 103.095C80.429 102.923 80.951 102.682 81.4362 102.378C82.7061 101.7 83.746 100.66 84.4236 99.3904L112.983 45.0498C113.468 44.1966 113.78 43.2563 113.901 42.2824C114.023 41.3086 113.951 40.3204 113.69 39.3743C113.429 38.4283 112.985 37.5429 112.381 36.7687C111.778 35.9946 111.028 35.347 110.175 34.8628Z" fill="#001ED2"/>
</g>
<defs>
<clipPath id="clip0_341_6946">
<rect width="135" height="135" fill="white"/>
</clipPath>
</defs>
</svg>
