<svg width="24" height="24" viewBox="0 0 24 24" fill="none" xmlns="http://www.w3.org/2000/svg">
<g id="logout">
<g id="vuesax/outline/logout">
<g id="logout_2">
<path id="Vector" d="M18.5523 16.043C18.3243 16.043 18.0963 15.9589 17.9163 15.7789C17.5683 15.4309 17.5683 14.8549 17.9163 14.5069L20.3524 12.0708L17.9163 9.63464C17.5683 9.28662 17.5683 8.71059 17.9163 8.36258C18.2643 8.01456 18.8403 8.01456 19.1883 8.36258L22.2605 11.4347C22.6085 11.7827 22.6085 12.3588 22.2605 12.7068L19.1883 15.7789C19.0083 15.9589 18.7803 16.043 18.5523 16.043Z" fill="#EB5757"/>
<path id="Vector_2" d="M21.5421 12.972H9.33754C8.84552 12.972 8.4375 12.5639 8.4375 12.0719C8.4375 11.5799 8.84552 11.1719 9.33754 11.1719H21.5421C22.0342 11.1719 22.4422 11.5799 22.4422 12.0719C22.4422 12.5639 22.0342 12.972 21.5421 12.972Z" fill="#EB5757"/>
<path id="Vector_3" d="M11.7403 22.501C5.55996 22.501 1.23975 18.1808 1.23975 12.0005C1.23975 5.82021 5.55996 1.5 11.7403 1.5C12.2323 1.5 12.6403 1.90802 12.6403 2.40004C12.6403 2.89207 12.2323 3.30009 11.7403 3.30009C6.61601 3.30009 3.03983 6.87626 3.03983 12.0005C3.03983 17.1248 6.61601 20.7009 11.7403 20.7009C12.2323 20.7009 12.6403 21.109 12.6403 21.601C12.6403 22.093 12.2323 22.501 11.7403 22.501Z" fill="#EB5757"/>
</g>
</g>
</g>
</svg>
