<svg width="165" height="52" viewBox="0 0 165 52" fill="none" xmlns="http://www.w3.org/2000/svg">
<g clip-path="url(#clip0_341_7043)">
<rect width="165" height="51.68" fill="white"/>
<path d="M31.06 13.39C30.7469 13.234 30.406 13.1412 30.057 13.1171C29.708 13.093 29.3577 13.1379 29.026 13.2494C28.6944 13.3609 28.3881 13.5366 28.1245 13.7667C27.8609 13.9967 27.6453 14.2765 27.49 14.59L20.49 28.74L18.49 22.98L21.49 16.98C21.8017 16.3459 21.8494 15.6142 21.6226 14.945C21.3958 14.2759 20.913 13.7239 20.28 13.41C19.6486 13.098 18.9193 13.0491 18.2519 13.2741C17.5846 13.499 17.0337 13.9795 16.72 14.61L16.1 15.85L15.8 14.96C15.6907 14.6386 15.5192 14.342 15.2951 14.0871C15.071 13.8321 14.7988 13.6239 14.4941 13.4743C14.1894 13.3248 13.8582 13.2368 13.5194 13.2155C13.1807 13.1941 12.841 13.2399 12.52 13.35C11.8751 13.5728 11.3448 14.0419 11.0449 14.6547C10.7451 15.2675 10.7001 15.9741 10.92 16.62L12.92 22.35L9.76999 28.7L5.06999 14.96C4.95821 14.6356 4.78261 14.3368 4.55352 14.0814C4.32444 13.8259 4.04651 13.6189 3.73615 13.4726C3.42578 13.3263 3.08926 13.2436 2.74642 13.2294C2.40359 13.2152 2.06139 13.2698 1.73999 13.39C1.0933 13.6107 0.56059 14.079 0.258753 14.692C-0.0430836 15.3051 -0.0893916 16.0129 0.129992 16.66L6.76999 36.06C6.82798 36.3248 6.92934 36.5783 7.06999 36.81L7.15999 36.96C7.38561 37.2871 7.6832 37.5581 8.0299 37.7523C8.37661 37.9465 8.7632 38.0586 9.15999 38.08H9.36999C9.85751 38.074 10.3339 37.9335 10.7468 37.6741C11.1596 37.4148 11.4929 37.0466 11.71 36.61L15.25 29.46L17.63 36.39C17.7392 36.7114 17.9108 37.008 18.1349 37.263C18.359 37.5179 18.6312 37.7261 18.9359 37.8757C19.2406 38.0252 19.5718 38.1132 19.9105 38.1345C20.2493 38.1559 20.5889 38.1101 20.91 38C21.0994 37.9302 21.2805 37.8397 21.45 37.73C21.9198 37.4684 22.2997 37.0711 22.54 36.59L32.26 16.99C32.4221 16.6757 32.5197 16.3322 32.547 15.9796C32.5743 15.627 32.5308 15.2725 32.4189 14.937C32.3071 14.6015 32.1293 14.2918 31.8959 14.0261C31.6625 13.7604 31.3783 13.5441 31.06 13.39Z" fill="#001ED2"/>
<path d="M53.1799 15.13C53.7499 13.93 54.3599 12.78 55.9799 12.87C57.8399 12.98 58.3999 14.21 58.4099 15.79C58.4099 19.97 58.4099 24.15 58.4099 28.32C58.4099 30.32 58.4099 32.32 58.4099 34.32C58.4099 35.85 58.0399 37.23 56.3099 37.62C54.5799 38.01 53.7099 36.88 53.1199 35.47C46.6499 39 40.1199 38.22 36.3299 33.71C34.3245 31.4613 33.1816 28.5741 33.1047 25.562C33.0278 22.5499 34.0218 19.6081 35.9099 17.26C40.3499 11.91 46.3199 11.2 53.1399 15.14M45.5299 17.65C43.5504 17.6842 41.6655 18.5028 40.2892 19.926C38.9129 21.3492 38.1578 23.2605 38.1899 25.24C38.2068 26.2372 38.4204 27.2212 38.8183 28.1357C39.2162 29.0502 39.7906 29.8772 40.5087 30.5693C41.2268 31.2614 42.0745 31.805 43.003 32.1689C43.9316 32.5328 44.9228 32.7099 45.9199 32.69C47.8897 32.5637 49.7385 31.6963 51.0947 30.2622C52.4509 28.8281 53.2138 26.9337 53.2299 24.96C53.1347 22.9845 52.2809 21.1219 50.8466 19.7602C49.4122 18.3984 47.5077 17.6426 45.5299 17.65Z" fill="#001ED2"/>
<path d="M81.0599 15.12C86.3399 11.77 89.7299 11.76 96.2599 15.12C96.3499 14.9 96.4299 14.69 96.5299 14.48C96.7479 13.8846 97.1848 13.3948 97.7516 13.1104C98.3184 12.8261 98.9723 12.7688 99.5799 12.95C100.141 13.0547 100.642 13.365 100.986 13.82C101.33 14.275 101.492 14.842 101.44 15.41C101.51 18.15 101.44 20.89 101.44 23.63C101.44 27.1167 101.44 30.6067 101.44 34.1C101.44 35.51 101.27 36.93 99.7099 37.5C98.1499 38.07 97.0399 37.33 96.3799 35.92C96.0499 35.22 95.7099 35.57 95.3799 35.81C92.3799 38.01 89.0299 38.06 85.5699 37.47C83.28 36.8594 81.2059 35.6223 79.5806 33.8976C77.9553 32.1728 76.8432 30.029 76.3695 27.707C75.8957 25.3849 76.079 22.9768 76.8988 20.7532C77.7185 18.5297 79.1422 16.5788 81.0099 15.12M81.2299 25.12C81.2272 26.1167 81.421 27.1042 81.8 28.0261C82.179 28.948 82.7359 29.7862 83.4388 30.4928C84.1417 31.1995 84.977 31.7607 85.8968 32.1446C86.8167 32.5285 87.8031 32.7274 88.7999 32.73C90.6957 32.6047 92.4738 31.7665 93.7769 30.3838C95.0799 29.0011 95.8113 27.1764 95.8239 25.2765C95.8366 23.3766 95.1296 21.5423 93.8451 20.1424C92.5606 18.7424 90.7939 17.8805 88.8999 17.73C87.9042 17.6978 86.9121 17.8662 85.9828 18.2252C85.0534 18.5841 84.2058 19.1263 83.4902 19.8195C82.7747 20.5127 82.2058 21.3427 81.8175 22.2601C81.4292 23.1776 81.2294 24.1638 81.2299 25.16" fill="#001ED2"/>
<path d="M62.3999 25.24C62.3999 22.12 62.3999 19.01 62.3999 15.89C62.3999 14.59 62.7599 13.49 64.0299 13.04C64.6116 12.7836 65.2688 12.7565 65.8697 12.9642C66.4706 13.1719 66.9707 13.5991 67.2699 14.16C67.6999 14.88 67.9299 14.82 68.4699 14.33C69.4638 13.47 70.6508 12.8627 71.9299 12.56C72.2751 12.4228 72.644 12.3553 73.0154 12.3616C73.3869 12.3678 73.7533 12.4477 74.0937 12.5965C74.434 12.7452 74.7415 12.96 74.9984 13.2284C75.2552 13.4968 75.4562 13.8134 75.5899 14.16C76.0799 15.59 75.2999 17.01 73.4999 17.52C71.8551 17.8849 70.3779 18.7853 69.2999 20.08C68.1691 21.4983 67.5679 23.2664 67.5999 25.08C67.5999 28.2 67.5999 31.31 67.5999 34.43C67.5999 36.54 66.5999 37.69 64.8799 37.68C63.1599 37.67 62.4299 36.55 62.4099 34.39C62.4099 31.33 62.4099 28.28 62.4099 25.23" fill="#001ED2"/>
<path d="M160.45 13.39C163.03 12.15 164.91 13.33 164.93 16.25C164.93 22.15 164.93 28.05 165 33.94C164.79 37.16 164.59 40.38 162.91 43.25C159.85 48.49 155.41 51.68 149.23 51.72C143.05 51.76 138.23 48.89 135.15 43.48C133.809 41.141 133.119 38.4859 133.15 35.79V3.39002C133.11 3.01776 133.11 2.64228 133.15 2.27002C133.228 1.64302 133.545 1.07034 134.035 0.671572C134.525 0.272805 135.15 0.0787875 135.78 0.130023C136.379 0.0991784 136.967 0.301738 137.42 0.695178C137.873 1.08862 138.156 1.64233 138.21 2.24002C138.3 2.85564 138.33 3.47857 138.3 4.10002C138.3 14.3867 138.3 24.6767 138.3 34.97C138.3 39.6 140.11 43.2 144.3 45.31C145.74 46.0074 147.32 46.3714 148.92 46.3751C150.52 46.3788 152.101 46.0221 153.545 45.3315C154.989 44.6408 156.258 43.6339 157.26 42.3855C158.261 41.1371 158.969 39.6792 159.33 38.12C159.432 37.8538 159.476 37.5688 159.458 37.2842C159.441 36.9996 159.363 36.722 159.23 36.47C158.069 37.4002 156.691 38.0188 155.224 38.2673C153.758 38.5158 152.252 38.3859 150.85 37.89C148.575 37.1804 146.587 35.7604 145.178 33.8384C143.768 31.9163 143.012 29.5933 143.02 27.21C142.89 23.48 142.95 19.73 143.02 15.99C143.02 13.77 143.86 12.93 145.67 12.93C147.31 12.93 148.23 13.93 148.27 16.08C148.33 19.82 148.36 23.57 148.27 27.31C148.174 28.4639 148.462 29.6171 149.09 30.5901C149.718 31.5632 150.649 32.3014 151.74 32.69C155.2 34.08 159.61 31.82 159.74 26.76C159.82 23.02 159.79 19.28 159.74 15.53C159.701 15.1357 159.746 14.7376 159.872 14.3619C159.998 13.9862 160.201 13.6414 160.47 13.35" fill="#001ED2"/>
<path d="M129.45 18.89C129.45 24.07 129.45 29.24 129.45 34.41C129.45 35.87 129.07 37.06 127.61 37.51C127.301 37.6284 126.971 37.6816 126.64 37.6663C126.31 37.651 125.986 37.5674 125.689 37.4209C125.392 37.2744 125.129 37.0681 124.916 36.815C124.702 36.5619 124.544 36.2674 124.45 35.95C124.11 35.13 123.77 35.45 123.36 35.8C119.54 38.94 112.11 38.43 107.81 34.09C105.771 32.082 104.472 29.4417 104.127 26.6004C103.782 23.7592 104.411 20.8849 105.911 18.4472C107.411 16.0095 109.693 14.1525 112.384 13.1794C115.076 12.2064 118.018 12.1748 120.73 13.09C121.555 13.3739 122.323 13.8004 123 14.35C123.89 15.07 124.28 14.78 124.27 13.66C124.27 10.11 124.27 6.56 124.27 3.01C124.27 0.780002 125.94 -0.499995 127.77 0.170005C128.331 0.373999 128.804 0.767062 129.107 1.28167C129.41 1.79628 129.524 2.40031 129.43 2.99001C129.43 8.29001 129.43 13.58 129.43 18.88M116.88 32.55C117.876 32.5347 118.859 32.3206 119.772 31.9202C120.684 31.5198 121.507 30.9412 122.192 30.2183C122.878 29.4955 123.412 28.6429 123.764 27.7108C124.116 26.7786 124.277 25.7856 124.24 24.79C124.147 22.8129 123.29 20.9491 121.85 19.5911C120.41 18.2332 118.499 17.4871 116.52 17.51C114.517 17.6476 112.643 18.5454 111.28 20.0195C109.918 21.4936 109.17 23.4327 109.19 25.44C109.32 27.3834 110.19 29.2032 111.62 30.5255C113.05 31.8478 114.932 32.5723 116.88 32.55Z" fill="#001ED2"/>
</g>
<defs>
<clipPath id="clip0_341_7043">
<rect width="165" height="51.68" fill="white"/>
</clipPath>
</defs>
</svg>
