<svg width="232" height="232" viewBox="0 0 232 232" fill="none" xmlns="http://www.w3.org/2000/svg">
<g id="Group 36751">
<g id="Group 36750">
<g id="freepik--background-complete--inject-7">
<path id="Vector" d="M50.3974 71.4516C65.1422 69.6568 75.6402 56.2489 73.8455 41.5041C72.0507 26.7594 58.6428 16.2613 43.898 18.0561C29.1533 19.8508 18.6552 33.2588 20.45 48.0035C22.2447 62.7483 35.6527 73.2463 50.3974 71.4516Z" fill="#EBEBEB"/>
<path id="Vector_2" d="M61.6689 59.2752C69.6876 51.2565 69.6876 38.2556 61.6689 30.2368C53.6502 22.2181 40.6493 22.2181 32.6305 30.2368C24.6118 38.2556 24.6118 51.2565 32.6305 59.2752C40.6493 67.2939 53.6502 67.2939 61.6689 59.2752Z" fill="#F9F9F9"/>
<path id="Vector_3" d="M47.147 59.4298C55.2499 59.4298 61.8185 52.8612 61.8185 44.7584C61.8185 36.6556 55.2499 30.087 47.147 30.087C39.0442 30.087 32.4756 36.6556 32.4756 44.7584C32.4756 52.8612 39.0442 59.4298 47.147 59.4298Z" fill="#EBEBEB"/>
<path id="Vector_4" d="M49.03 52.6434C53.3882 51.6075 56.0815 47.2348 55.0456 42.8766C54.0098 38.5184 49.6371 35.8251 45.2789 36.861C40.9207 37.8968 38.2274 42.2696 39.2632 46.6278C40.2991 50.986 44.6718 53.6792 49.03 52.6434Z" fill="#F9F9F9"/>
<path id="Vector_5" d="M43.4834 44.7584C43.4846 45.4828 43.7004 46.1905 44.1036 46.7922C44.5069 47.394 45.0794 47.8627 45.749 48.1391C46.4185 48.4155 47.155 48.4872 47.8653 48.3452C48.5755 48.2032 49.2278 47.8539 49.7396 47.3413C50.2514 46.8287 50.5998 46.1759 50.7407 45.4654C50.8816 44.7549 50.8087 44.0185 50.5312 43.3494C50.2538 42.6803 49.7842 42.1085 49.1818 41.7062C48.5795 41.3038 47.8714 41.0891 47.147 41.0891C46.6655 41.0891 46.1886 41.1841 45.7437 41.3685C45.2989 41.553 44.8948 41.8234 44.5545 42.1642C44.2142 42.505 43.9445 42.9095 43.7607 43.3547C43.5769 43.7998 43.4827 44.2768 43.4834 44.7584Z" fill="#EBEBEB"/>
<path id="Vector_6" d="M10.4172 7.18742L9.58181 8.02283L44.3394 42.7805L45.1749 41.9451L10.4172 7.18742Z" fill="#A6A6A6"/>
<path id="Vector_7" d="M42.6031 43.5372L47.1471 44.7584L45.9315 40.2144L42.6031 43.5372Z" fill="#A6A6A6"/>
<path id="Vector_8" d="M4.18352 5.34487L10.6985 11.8598L15.8105 13.4218L14.2485 8.30983L7.73352 1.78918L9.29552 6.90118L4.18352 5.34487Z" fill="#A6A6A6"/>
<path id="Vector_9" d="M167.523 0.5112L169.409 3.3228L172.669 4.24864L170.579 6.90688L170.704 10.2922L167.523 9.12776L164.348 10.2922L164.473 6.90688L162.383 4.24864L165.638 3.3228L167.523 0.5112Z" fill="#EBEBEB"/>
<path id="Vector_10" d="M182.064 0.5112L183.95 3.3228L187.204 4.24864L185.114 6.90688L185.239 10.2922L182.064 9.12776L178.889 10.2922L179.014 6.90688L176.924 4.24864L180.178 3.3228L182.064 0.5112Z" fill="#EBEBEB"/>
<path id="Vector_11" d="M196.599 0.5112L198.485 3.3228L201.74 4.24864L199.649 6.90688L199.78 10.2922L196.599 9.12776L193.424 10.2922L193.549 6.90688L191.459 4.24864L194.713 3.3228L196.599 0.5112Z" fill="#EBEBEB"/>
<path id="Vector_12" d="M211.14 0.5112L213.026 3.3228L216.28 4.24864L214.19 6.90688L214.315 10.2922L211.14 9.12776L207.959 10.2922L208.09 6.90688L206 4.24864L209.254 3.3228L211.14 0.5112Z" fill="#EBEBEB"/>
<path id="Vector_13" d="M222.199 10.7011L222.341 7.00344L220.069 4.0896L223.63 3.07856L225.692 0L227.76 3.07856L231.321 4.0896L229.049 7.00344L229.185 10.7011L225.709 9.4288L222.199 10.7011ZM225.675 8.80968L228.555 9.86616L228.441 6.80464L230.333 4.39064L227.385 3.55568L225.681 1.01104L223.977 3.55568L221.029 4.39064L222.92 6.80464L222.807 9.86616L225.675 8.80968Z" fill="#EBEBEB"/>
<path id="Vector_14" d="M225.675 9.12776V0.5112L223.789 3.3228L220.535 4.24864L222.625 6.90688L222.5 10.2922L225.675 9.12776Z" fill="#EBEBEB"/>
</g>
<g id="freepik--Cart--inject-7">
<path id="Vector_15" d="M87.7988 222.912H13.3908C12.9961 222.912 12.6176 222.755 12.3385 222.476C12.0594 222.197 11.9026 221.818 11.9026 221.423V212.557C11.9026 212.529 11.9026 212.5 11.9026 212.472C11.9026 212.443 11.9026 212.37 11.9026 212.313L20.9395 179.284L9.28985 107.074L5.39905 105.722C5.05879 105.582 4.78241 105.321 4.62325 104.989C4.46409 104.658 4.43344 104.279 4.53721 103.926C4.64098 103.573 4.87182 103.271 5.18517 103.078C5.49852 102.885 5.87217 102.815 6.23401 102.882L11.0336 104.501C11.3055 104.58 11.5489 104.736 11.7352 104.949C11.9214 105.162 12.0426 105.425 12.0844 105.705L23.9215 179.09C23.9529 179.256 23.9529 179.425 23.9215 179.59L15.1857 211.239L84.4817 216.164C84.8661 216.191 85.2258 216.363 85.4871 216.647L88.8951 220.429C89.0868 220.643 89.2126 220.908 89.2574 221.191C89.3023 221.475 89.2642 221.765 89.1477 222.027C89.0312 222.29 88.8414 222.513 88.6011 222.67C88.3607 222.826 88.0801 222.911 87.7931 222.912H87.7988ZM14.896 219.941H84.4476L83.6808 219.089L14.896 214.199V219.941Z" fill="#C7C7C7"/>
<path id="Vector_16" d="M115.034 130.538H14.7597C14.5569 130.55 14.3537 130.521 14.1626 130.452C13.9715 130.383 13.7966 130.276 13.6485 130.137C13.5005 129.998 13.3825 129.83 13.3019 129.643C13.2213 129.457 13.1797 129.256 13.1797 129.052C13.1797 128.849 13.2213 128.648 13.3019 128.462C13.3825 128.275 13.5005 128.107 13.6485 127.968C13.7966 127.829 13.9715 127.722 14.1626 127.653C14.3537 127.584 14.5569 127.555 14.7597 127.567H115.034C115.237 127.555 115.44 127.584 115.632 127.653C115.823 127.722 115.998 127.829 116.146 127.968C116.294 128.107 116.412 128.275 116.492 128.462C116.573 128.648 116.614 128.849 116.614 129.052C116.614 129.256 116.573 129.457 116.492 129.643C116.412 129.83 116.294 129.998 116.146 130.137C115.998 130.276 115.823 130.383 115.632 130.452C115.44 130.521 115.237 130.55 115.034 130.538Z" fill="#C7C7C7"/>
<path id="Vector_17" d="M22.4504 179.812C22.3278 179.799 22.2143 179.741 22.1318 179.649C22.0494 179.557 22.0038 179.438 22.0038 179.315C22.0038 179.191 22.0494 179.072 22.1318 178.981C22.2143 178.889 22.3278 178.831 22.4504 178.818L97.7786 174.791L112.609 128.902C112.629 128.84 112.661 128.782 112.703 128.733C112.746 128.683 112.797 128.642 112.855 128.613C112.913 128.583 112.977 128.566 113.042 128.561C113.107 128.556 113.172 128.563 113.234 128.584C113.296 128.606 113.353 128.64 113.401 128.685C113.449 128.729 113.488 128.783 113.515 128.843C113.542 128.903 113.557 128.968 113.558 129.034C113.56 129.099 113.548 129.165 113.524 129.226L98.5851 175.438C98.5553 175.534 98.4969 175.619 98.4177 175.681C98.3386 175.742 98.2424 175.779 98.1421 175.785L22.4788 179.806L22.4504 179.812Z" fill="#C7C7C7"/>
<path id="Vector_18" d="M99.4144 171.621H21.0759C20.9448 171.621 20.8191 171.569 20.7264 171.476C20.6338 171.384 20.5817 171.258 20.5817 171.127C20.5817 170.996 20.6338 170.87 20.7264 170.778C20.8191 170.685 20.9448 170.633 21.0759 170.633H99.4144C99.5455 170.633 99.6712 170.685 99.7638 170.778C99.8565 170.87 99.9086 170.996 99.9086 171.127C99.9086 171.258 99.8565 171.384 99.7638 171.476C99.6712 171.569 99.5455 171.621 99.4144 171.621Z" fill="#C7C7C7"/>
<path id="Vector_19" d="M101.408 165.578H20.15C20.019 165.578 19.8933 165.526 19.8006 165.433C19.7079 165.34 19.6559 165.215 19.6559 165.084C19.6559 164.952 19.7079 164.827 19.8006 164.734C19.8933 164.641 20.019 164.589 20.15 164.589H101.408C101.539 164.589 101.665 164.641 101.758 164.734C101.85 164.827 101.902 164.952 101.902 165.084C101.902 165.215 101.85 165.34 101.758 165.433C101.665 165.526 101.539 165.578 101.408 165.578Z" fill="#C7C7C7"/>
<path id="Vector_20" d="M103.248 159.574H19.2355C19.1129 159.561 18.9994 159.503 18.917 159.411C18.8345 159.319 18.7889 159.2 18.7889 159.077C18.7889 158.954 18.8345 158.835 18.917 158.743C18.9994 158.651 19.1129 158.593 19.2355 158.58H103.248C103.318 158.572 103.389 158.58 103.455 158.601C103.522 158.623 103.584 158.658 103.636 158.705C103.688 158.752 103.73 158.809 103.758 158.873C103.787 158.937 103.801 159.007 103.801 159.077C103.801 159.147 103.787 159.216 103.758 159.28C103.73 159.345 103.688 159.402 103.636 159.449C103.584 159.496 103.522 159.531 103.455 159.553C103.389 159.574 103.318 159.581 103.248 159.574Z" fill="#C7C7C7"/>
<path id="Vector_21" d="M105.248 153.547H18.3097C18.24 153.555 18.1694 153.548 18.1027 153.526C18.036 153.504 17.9745 153.469 17.9224 153.422C17.8702 153.375 17.8285 153.318 17.8 153.254C17.7714 153.19 17.7566 153.121 17.7566 153.05C17.7566 152.98 17.7714 152.911 17.8 152.847C17.8285 152.783 17.8702 152.726 17.9224 152.679C17.9745 152.632 18.036 152.596 18.1027 152.575C18.1694 152.553 18.24 152.546 18.3097 152.553H105.248C105.37 152.567 105.484 152.625 105.566 152.716C105.649 152.808 105.694 152.927 105.694 153.05C105.694 153.174 105.649 153.293 105.566 153.385C105.484 153.476 105.37 153.534 105.248 153.547Z" fill="#C7C7C7"/>
<path id="Vector_22" d="M107.151 147.521H17.4066C17.2755 147.521 17.1498 147.469 17.0572 147.376C16.9645 147.284 16.9124 147.158 16.9124 147.027C16.9124 146.896 16.9645 146.77 17.0572 146.677C17.1498 146.585 17.2755 146.533 17.4066 146.533H107.151C107.282 146.533 107.407 146.585 107.5 146.677C107.593 146.77 107.645 146.896 107.645 147.027C107.645 147.158 107.593 147.284 107.5 147.376C107.407 147.469 107.282 147.521 107.151 147.521Z" fill="#C7C7C7"/>
<path id="Vector_23" d="M109.195 141.494H16.4637C16.3327 141.494 16.207 141.442 16.1143 141.35C16.0216 141.257 15.9696 141.131 15.9696 141C15.9696 140.869 16.0216 140.744 16.1143 140.651C16.207 140.558 16.3327 140.506 16.4637 140.506H109.195C109.326 140.506 109.452 140.558 109.545 140.651C109.637 140.744 109.69 140.869 109.69 141C109.69 141.131 109.637 141.257 109.545 141.35C109.452 141.442 109.326 141.494 109.195 141.494Z" fill="#C7C7C7"/>
<path id="Vector_24" d="M111.144 135.474H15.5436C15.4125 135.474 15.2868 135.422 15.1941 135.329C15.1015 135.236 15.0494 135.111 15.0494 134.98C15.0494 134.848 15.1015 134.723 15.1941 134.63C15.2868 134.537 15.4125 134.485 15.5436 134.485H111.144C111.275 134.485 111.4 134.537 111.493 134.63C111.586 134.723 111.638 134.848 111.638 134.98C111.638 135.111 111.586 135.236 111.493 135.329C111.4 135.422 111.275 135.474 111.144 135.474Z" fill="#C7C7C7"/>
<path id="Vector_25" d="M29.2153 179.21C29.0899 179.21 28.9691 179.163 28.8774 179.077C28.7856 178.992 28.7298 178.875 28.7211 178.75L24.9155 129.089C24.9101 129.025 24.9176 128.96 24.9376 128.898C24.9576 128.836 24.9897 128.779 25.032 128.73C25.0743 128.681 25.126 128.641 25.184 128.612C25.242 128.583 25.3052 128.565 25.3699 128.561C25.5004 128.553 25.6289 128.596 25.7285 128.681C25.828 128.765 25.8909 128.885 25.9039 129.016L29.7095 178.642C29.7189 178.772 29.6763 178.901 29.5912 179C29.5061 179.098 29.3852 179.16 29.2551 179.17L29.2153 179.21Z" fill="#C7C7C7"/>
<path id="Vector_26" d="M90.6331 175.944C90.5917 175.949 90.5497 175.949 90.5082 175.944C90.3814 175.909 90.2733 175.826 90.2074 175.712C90.1414 175.598 90.123 175.463 90.156 175.336L102.771 128.942C102.806 128.815 102.889 128.707 103.003 128.641C103.117 128.575 103.252 128.557 103.379 128.59C103.442 128.607 103.5 128.636 103.552 128.676C103.603 128.716 103.646 128.765 103.678 128.822C103.711 128.878 103.731 128.94 103.739 129.005C103.747 129.069 103.743 129.135 103.726 129.197L91.116 175.592C91.0834 175.694 91.019 175.783 90.9322 175.847C90.8453 175.91 90.7406 175.944 90.6331 175.944Z" fill="#C7C7C7"/>
<path id="Vector_27" d="M37.1275 178.812C36.9979 178.811 36.8739 178.759 36.7817 178.668C36.6895 178.577 36.6363 178.453 36.6334 178.324L35.4065 129.067C35.4049 128.935 35.4544 128.809 35.5445 128.713C35.6346 128.618 35.7582 128.561 35.8893 128.555C36.019 128.555 36.1436 128.606 36.2369 128.696C36.3301 128.786 36.3847 128.909 36.3891 129.038L37.6103 178.301C37.6134 178.433 37.5644 178.56 37.474 178.656C37.3836 178.751 37.2591 178.808 37.1275 178.812Z" fill="#C7C7C7"/>
<path id="Vector_28" d="M45.25 178.369C45.1851 178.368 45.1211 178.353 45.0617 178.327C45.0023 178.301 44.9487 178.263 44.9038 178.216C44.859 178.169 44.8238 178.114 44.8004 178.054C44.7769 177.993 44.7657 177.928 44.7672 177.864L45.676 129.044C45.6789 128.914 45.7321 128.791 45.8243 128.7C45.9165 128.609 46.0405 128.557 46.1701 128.555C46.235 128.557 46.299 128.571 46.3584 128.597C46.4178 128.624 46.4714 128.661 46.5163 128.708C46.5611 128.755 46.5962 128.81 46.6197 128.871C46.6431 128.932 46.6544 128.996 46.6529 129.061L45.7441 177.909C45.7355 178.034 45.6796 178.151 45.5879 178.237C45.4961 178.322 45.3753 178.369 45.25 178.369Z" fill="#C7C7C7"/>
<path id="Vector_29" d="M81.9882 176.33H81.8916C81.7654 176.305 81.6541 176.232 81.5818 176.125C81.5095 176.019 81.482 175.888 81.5054 175.762L91.0875 128.981C91.1161 128.857 91.1906 128.749 91.2959 128.677C91.4012 128.605 91.5296 128.576 91.6555 128.595C91.781 128.621 91.8914 128.695 91.9635 128.801C92.0355 128.907 92.0636 129.037 92.0418 129.163L82.4596 175.944C82.4346 176.051 82.3748 176.147 82.2896 176.217C82.2043 176.287 82.0983 176.327 81.9882 176.33Z" fill="#C7C7C7"/>
<path id="Vector_30" d="M72.1391 176.938H72.0595C71.9306 176.915 71.8155 176.843 71.7391 176.737C71.6626 176.631 71.6308 176.499 71.6506 176.37L79.4095 128.999C79.4317 128.87 79.5039 128.755 79.6103 128.68C79.7167 128.604 79.8487 128.574 79.9775 128.595C80.0415 128.606 80.1028 128.628 80.1579 128.663C80.2129 128.697 80.2606 128.742 80.2981 128.795C80.3357 128.848 80.3623 128.907 80.3765 128.971C80.3907 129.034 80.3921 129.099 80.3807 129.163L72.6275 176.506C72.6112 176.625 72.553 176.733 72.4634 176.812C72.3737 176.892 72.2587 176.936 72.1391 176.938Z" fill="#C7C7C7"/>
<path id="Vector_31" d="M53.5655 177.898H53.5257C53.461 177.893 53.3978 177.876 53.3398 177.847C53.2817 177.818 53.2301 177.778 53.1878 177.729C53.1455 177.68 53.1134 177.622 53.0934 177.561C53.0734 177.499 53.0659 177.434 53.0713 177.369L56.6895 129.016C56.6993 128.884 56.7607 128.763 56.8603 128.677C56.9599 128.591 57.0895 128.549 57.2206 128.558C57.3516 128.568 57.4734 128.63 57.5592 128.729C57.6449 128.829 57.6876 128.958 57.6778 129.089L54.0596 177.443C54.0484 177.567 53.9915 177.682 53.9002 177.766C53.8089 177.85 53.6896 177.897 53.5655 177.898Z" fill="#C7C7C7"/>
<path id="Vector_32" d="M63.3067 177.267H63.2499C63.1835 177.259 63.1193 177.239 63.0611 177.206C63.0029 177.173 62.952 177.129 62.9112 177.076C62.8704 177.023 62.8407 176.962 62.8237 176.897C62.8068 176.833 62.803 176.765 62.8125 176.699L68.1176 128.987C68.1247 128.923 68.1444 128.86 68.1757 128.803C68.2069 128.746 68.2491 128.696 68.2997 128.656C68.3503 128.615 68.4085 128.585 68.4708 128.567C68.5331 128.548 68.5984 128.543 68.6629 128.55C68.7274 128.557 68.7899 128.577 68.8468 128.608C68.9037 128.639 68.9539 128.681 68.9945 128.732C69.0351 128.782 69.0654 128.841 69.0835 128.903C69.1017 128.965 69.1073 129.031 69.1003 129.095L63.7951 176.807C63.7866 176.931 63.7315 177.047 63.641 177.133C63.5504 177.218 63.431 177.266 63.3067 177.267Z" fill="#C7C7C7"/>
<path id="Vector_33" d="M23.0468 230.648C26.1116 230.648 28.5962 228.163 28.5962 225.098C28.5962 222.034 26.1116 219.549 23.0468 219.549C19.982 219.549 17.4975 222.034 17.4975 225.098C17.4975 228.163 19.982 230.648 23.0468 230.648Z" fill="#263238"/>
<path id="Vector_34" d="M25.5687 225.098C25.5687 225.597 25.4208 226.085 25.1437 226.5C24.8666 226.914 24.4727 227.237 24.0119 227.428C23.5511 227.619 23.044 227.669 22.5548 227.572C22.0656 227.475 21.6163 227.234 21.2636 226.882C20.9109 226.529 20.6707 226.08 20.5734 225.59C20.4761 225.101 20.526 224.594 20.7169 224.133C20.9077 223.672 21.231 223.279 21.6457 223.002C22.0604 222.724 22.548 222.576 23.0468 222.576C23.7157 222.576 24.3571 222.842 24.8301 223.315C25.303 223.788 25.5687 224.43 25.5687 225.098Z" fill="#EBEBEB"/>
<path id="Vector_35" d="M72.707 230.648C75.7719 230.648 78.2564 228.163 78.2564 225.098C78.2564 222.034 75.7719 219.549 72.707 219.549C69.6422 219.549 67.1577 222.034 67.1577 225.098C67.1577 228.163 69.6422 230.648 72.707 230.648Z" fill="#263238"/>
<path id="Vector_36" d="M75.229 225.098C75.229 225.597 75.0811 226.085 74.804 226.5C74.5268 226.914 74.133 227.237 73.6722 227.428C73.2113 227.619 72.7043 227.669 72.2151 227.572C71.7259 227.475 71.2765 227.234 70.9238 226.882C70.5711 226.529 70.3309 226.08 70.2336 225.59C70.1363 225.101 70.1862 224.594 70.3771 224.133C70.568 223.672 70.8912 223.279 71.306 223.002C71.7207 222.724 72.2083 222.576 72.7071 222.576C73.3759 222.576 74.0174 222.842 74.4903 223.315C74.9633 223.788 75.229 224.43 75.229 225.098Z" fill="#EBEBEB"/>
<path id="Vector_37" d="M9.51706 107.375C9.3115 107.375 9.10752 107.339 8.91498 107.267L1.0993 104.302C0.89007 104.222 0.698538 104.103 0.535637 103.949C0.372736 103.796 0.241656 103.612 0.149882 103.407C0.0581081 103.203 0.00743771 102.983 0.000762172 102.759C-0.00591336 102.536 0.0315367 102.313 0.110976 102.104C0.190415 101.894 0.310288 101.703 0.463749 101.54C0.617209 101.377 0.80125 101.246 1.00537 101.154C1.20949 101.062 1.42968 101.012 1.65338 101.005C1.87709 100.998 2.09991 101.036 2.30914 101.115L10.1475 104.08C10.5186 104.223 10.8282 104.491 11.0225 104.838C11.2168 105.185 11.2837 105.589 11.2115 105.98C11.1394 106.371 10.9328 106.724 10.6275 106.979C10.3222 107.234 9.9374 107.374 9.53978 107.375H9.51706Z" fill="#001ED2"/>
</g>
<g id="freepik--Floor--inject-7">
<path id="Vector_38" d="M3.09297 230.648C76.365 230.301 158.611 230.296 231.906 230.648C158.634 231 76.3877 230.994 3.09297 230.648Z" fill="#263238"/>
</g>
<g id="freepik--Device--inject-7">
<path id="Vector_39" d="M165.507 13.189H69.4808C68.1934 13.2008 66.9209 13.4662 65.736 13.9699C64.5511 14.4736 63.477 15.2057 62.5751 16.1245C61.6732 17.0433 60.961 18.1308 60.4794 19.3248C59.9978 20.5189 59.756 21.7961 59.768 23.0835V220.748C59.7453 223.347 60.7556 225.85 62.5768 227.705C64.398 229.56 66.8812 230.617 69.4808 230.642H165.507C168.108 230.617 170.592 229.561 172.415 227.706C174.238 225.851 175.251 223.348 175.231 220.748V23.0835C175.252 20.4823 174.24 17.9791 172.417 16.1238C170.593 14.2686 168.108 13.213 165.507 13.189ZM169.153 214.642C169.153 219.844 165.257 224.053 160.452 224.053H74.5474C69.7308 224.053 65.8343 219.844 65.8343 214.642V30.5754C65.8343 19.9766 69.7308 19.4597 74.5474 19.4597H91.7578C92.7575 19.4597 93.5754 20.5957 93.5754 22.0043V22.6121C93.5754 25.9122 95.3816 25.9235 97.5968 25.9235H137.38C139.617 25.9235 141.412 25.9235 141.412 22.6121V22.0043C141.412 20.5957 142.219 19.4597 143.236 19.4597H160.44C165.246 19.4597 169.142 20.8683 169.142 30.5754L169.153 214.642Z" fill="#263238"/>
<path id="Vector_40" d="M169.188 30.7402V214.806C169.188 220.009 165.291 224.218 160.486 224.218H74.5531C69.7364 224.218 65.84 220.009 65.84 214.806V30.7402C65.84 20.1697 69.7364 19.6017 74.5531 19.6017H91.7635C92.7632 19.6017 93.5811 20.7377 93.5811 22.1463V22.7541C93.5811 26.0542 95.3873 26.0655 97.6025 26.0655H137.38C139.617 26.0655 141.412 26.0655 141.412 22.7541V22.169C141.412 20.7604 142.219 19.6244 143.236 19.6244H160.44C165.263 19.6017 169.188 21.033 169.188 30.7402Z" fill="#F9F9F9"/>
<path id="Vector_41" d="M122.924 21.7999H112.069C111.892 21.7999 111.721 21.7292 111.596 21.6035C111.47 21.4779 111.399 21.3074 111.399 21.1296C111.399 20.9519 111.47 20.7814 111.596 20.6557C111.721 20.53 111.892 20.4594 112.069 20.4594H122.924C123.102 20.4594 123.272 20.53 123.398 20.6557C123.524 20.7814 123.594 20.9519 123.594 21.1296C123.594 21.3074 123.524 21.4779 123.398 21.6035C123.272 21.7292 123.102 21.7999 122.924 21.7999Z" fill="#F9F9F9"/>
<g id="freepik--u5Zjqx--inject-7">
<path id="Vector_42" d="M88.7871 23.5777L88.6224 23.7424L88.5259 23.839C88.1002 23.4158 87.5243 23.1783 86.9241 23.1783C86.3239 23.1783 85.748 23.4158 85.3223 23.839C85.2892 23.8096 85.2588 23.7773 85.2315 23.7424C85.1747 23.6913 85.1235 23.6345 85.0667 23.5777C85.1406 23.5209 85.2087 23.4527 85.2769 23.3959C85.4259 23.2717 85.5901 23.1667 85.7654 23.0835C85.9679 22.9813 86.1841 22.9086 86.4072 22.8677L86.731 22.8279H87.015H87.2308C87.4252 22.8487 87.6162 22.8946 87.7988 22.9642C87.9384 23.0151 88.0733 23.0778 88.2021 23.1517C88.3356 23.2308 88.4628 23.3201 88.5827 23.4186L88.7587 23.5777H88.7871Z" fill="#A6A6A6"/>
<path id="Vector_43" d="M85.8449 24.3786C85.7597 24.2877 85.6745 24.2025 85.5836 24.1173C85.7589 23.9409 85.9673 23.801 86.1969 23.7054C86.4265 23.6099 86.6726 23.5608 86.9213 23.5608C87.1699 23.5608 87.4161 23.6099 87.6457 23.7054C87.8753 23.801 88.0837 23.9409 88.2589 24.1173L87.9976 24.3786C87.7122 24.0931 87.325 23.9328 86.9213 23.9328C86.5176 23.9328 86.1304 24.0931 85.8449 24.3786Z" fill="#A6A6A6"/>
<path id="Vector_44" d="M87.7364 24.6398L87.4751 24.9011C87.3284 24.7561 87.1304 24.6748 86.9241 24.6748C86.7178 24.6748 86.5199 24.7561 86.3732 24.9011C86.2823 24.8159 86.1971 24.725 86.1119 24.6398C86.2177 24.5316 86.344 24.4457 86.4835 24.387C86.623 24.3283 86.7728 24.298 86.9241 24.298C87.0754 24.298 87.2252 24.3283 87.3647 24.387C87.5042 24.4457 87.6306 24.5316 87.7364 24.6398Z" fill="#A6A6A6"/>
<path id="Vector_45" d="M87.157 25.1397C87.157 25.2015 87.1325 25.2607 87.0888 25.3044C87.0451 25.348 86.9859 25.3726 86.9241 25.3726C86.8931 25.3733 86.8622 25.3679 86.8333 25.3565C86.8043 25.3451 86.778 25.3281 86.7558 25.3064C86.7335 25.2847 86.7159 25.2588 86.7038 25.2302C86.6918 25.2015 86.6856 25.1708 86.6856 25.1397C86.6856 25.0764 86.7107 25.0158 86.7554 24.971C86.8002 24.9263 86.8609 24.9011 86.9241 24.9011C86.9552 24.9011 86.9859 24.9073 87.0146 24.9194C87.0432 24.9314 87.0691 24.9491 87.0908 24.9713C87.1125 24.9936 87.1296 25.0199 87.1409 25.0488C87.1523 25.0777 87.1578 25.1086 87.157 25.1397Z" fill="#A6A6A6"/>
</g>
<path id="Vector_46" d="M72.5707 24.0946C72.5707 23.9586 72.611 23.8257 72.6866 23.7127C72.7621 23.5997 72.8694 23.5116 72.995 23.4596C73.1206 23.4076 73.2588 23.394 73.3921 23.4205C73.5254 23.447 73.6479 23.5125 73.744 23.6086C73.8401 23.7047 73.9056 23.8272 73.9321 23.9605C73.9586 24.0938 73.945 24.232 73.893 24.3576C73.841 24.4831 73.7529 24.5905 73.6398 24.666C73.5268 24.7415 73.3939 24.7818 73.258 24.7818C73.0757 24.7818 72.9009 24.7094 72.772 24.5805C72.6431 24.4516 72.5707 24.2768 72.5707 24.0946Z" fill="#A6A6A6"/>
<path id="Vector_47" d="M74.7291 24.0946C74.7291 23.9586 74.7694 23.8257 74.845 23.7127C74.9205 23.5997 75.0278 23.5116 75.1534 23.4596C75.279 23.4076 75.4172 23.394 75.5505 23.4205C75.6838 23.447 75.8063 23.5125 75.9024 23.6086C75.9985 23.7047 76.064 23.8272 76.0905 23.9605C76.117 24.0938 76.1034 24.232 76.0514 24.3576C75.9994 24.4831 75.9113 24.5905 75.7983 24.666C75.6852 24.7415 75.5524 24.7818 75.4164 24.7818C75.3262 24.7818 75.2368 24.7641 75.1534 24.7295C75.07 24.695 74.9943 24.6444 74.9304 24.5805C74.8666 24.5167 74.816 24.4409 74.7815 24.3576C74.7469 24.2742 74.7291 24.1848 74.7291 24.0946Z" fill="#A6A6A6"/>
<path id="Vector_48" d="M76.8876 24.0946C76.8876 23.9584 76.928 23.8253 77.0038 23.7121C77.0796 23.599 77.1872 23.5109 77.3132 23.4591C77.4391 23.4072 77.5775 23.3939 77.711 23.4209C77.8445 23.4479 77.9669 23.5139 78.0628 23.6106C78.1587 23.7073 78.2237 23.8303 78.2496 23.964C78.2755 24.0977 78.261 24.236 78.2081 24.3615C78.1553 24.487 78.0663 24.594 77.9525 24.6688C77.8387 24.7436 77.7053 24.783 77.5691 24.7818C77.4792 24.7818 77.3901 24.764 77.307 24.7294C77.2239 24.6948 77.1485 24.6441 77.0852 24.5802C77.0218 24.5163 76.9717 24.4405 76.9378 24.3571C76.9039 24.2738 76.8868 24.1845 76.8876 24.0946Z" fill="#A6A6A6"/>
<path id="Vector_49" d="M79.0459 24.0946C79.0459 23.9584 79.0864 23.8253 79.1622 23.7121C79.2379 23.599 79.3456 23.5109 79.4715 23.4591C79.5974 23.4072 79.7359 23.3939 79.8694 23.4209C80.0029 23.4479 80.1253 23.5139 80.2212 23.6106C80.3171 23.7073 80.3821 23.8303 80.408 23.964C80.4338 24.0977 80.4194 24.236 80.3665 24.3615C80.3136 24.487 80.2247 24.594 80.1109 24.6688C79.9971 24.7436 79.8637 24.783 79.7275 24.7818C79.6375 24.7818 79.5484 24.764 79.4654 24.7294C79.3823 24.6948 79.3069 24.6441 79.2435 24.5802C79.1802 24.5163 79.1301 24.4405 79.0962 24.3571C79.0622 24.2738 79.0452 24.1845 79.0459 24.0946Z" fill="#A6A6A6"/>
<path id="Vector_50" d="M81.1987 24.0946C81.1987 23.9586 81.239 23.8257 81.3145 23.7127C81.39 23.5997 81.4973 23.5116 81.6229 23.4596C81.7485 23.4076 81.8867 23.394 82.02 23.4205C82.1533 23.447 82.2758 23.5125 82.3719 23.6086C82.468 23.7047 82.5335 23.8272 82.56 23.9605C82.5865 24.0938 82.5729 24.232 82.5209 24.3576C82.4689 24.4831 82.3808 24.5905 82.2678 24.666C82.1547 24.7415 82.0219 24.7818 81.8859 24.7818C81.7037 24.7818 81.5288 24.7094 81.4 24.5805C81.2711 24.4516 81.1987 24.2768 81.1987 24.0946Z" fill="#A6A6A6"/>
<path id="Vector_51" d="M161.406 25.5941H155.828V23.0097H161.406V25.5941ZM156.112 25.3101H161.122V23.2937H156.124L156.112 25.3101Z" fill="#A6A6A6"/>
<path id="Vector_52" d="M159.889 23.447H156.294V25.151H159.889V23.447Z" fill="#A6A6A6"/>
<path id="Vector_53" d="M161.9 23.6118H161.406V24.992H161.9V23.6118Z" fill="#A6A6A6"/>
<path id="Vector_54" d="M123.435 11.7178H111.57V39.635H123.435V11.7178Z" fill="#001ED2"/>
<path id="Vector_55" d="M123.429 39.6294C123.429 39.6294 122.293 45.3094 117.5 45.3094C112.706 45.3094 111.57 39.6294 111.57 39.6294H123.429Z" fill="#3451FF"/>
<path id="Vector_56" d="M111.564 39.635H99.6984L100.908 11.7178H111.564V39.635Z" fill="#F9F9F9"/>
<path id="Vector_57" d="M111.564 39.635L99.6984 39.7089H99.6189C99.6189 39.7089 100.755 11.7519 100.755 11.7122V11.5758H100.886H111.541H111.66C111.706 11.6838 111.587 25.5657 111.615 25.6793L111.541 39.6066L111.564 39.635ZM111.564 39.635L111.49 25.6452L111.45 11.7178L111.564 11.8314L100.908 11.8598L101.05 11.7235C101.01 11.7235 99.8802 39.9645 99.6984 39.5555L111.564 39.6294V39.635Z" fill="#263238"/>
<path id="Vector_58" d="M111.57 39.6294C111.57 39.6294 110.434 45.3094 105.628 45.3094C100.823 45.3094 99.6984 39.6294 99.6984 39.6294H111.57Z" fill="#EBEBEB"/>
<path id="Vector_59" d="M99.6984 39.635H87.8329L90.2526 11.7178H100.908L99.6984 39.635Z" fill="#001ED2"/>
<path id="Vector_60" d="M99.6984 39.6294C99.6984 39.6294 98.5624 45.3094 93.7628 45.3094C88.9632 45.3094 87.8329 39.6294 87.8329 39.6294H99.6984Z" fill="#3451FF"/>
<path id="Vector_61" d="M87.8272 39.635H75.9617L79.5969 11.7178H90.2526L87.8272 39.635Z" fill="#F9F9F9"/>
<path id="Vector_62" d="M87.8272 39.635L75.9617 39.7089H75.8765C75.8765 39.7089 79.4435 11.7462 79.4435 11.7008V11.5758H79.5685H90.2242H90.3491V11.7008L89.0995 25.7134L87.8159 39.635H87.8272ZM87.8272 39.635L88.9632 25.6395L90.1333 11.7065L90.2469 11.8314L79.5912 11.8598L79.7275 11.7349C79.6878 11.7349 76.1208 39.9872 75.956 39.5669L87.8215 39.6407L87.8272 39.635Z" fill="#263238"/>
<path id="Vector_63" d="M87.8272 39.6294C87.8272 39.6294 86.6912 45.3094 81.8916 45.3094C77.092 45.3094 75.9617 39.6294 75.9617 39.6294H87.8272Z" fill="#EBEBEB"/>
<path id="Vector_64" d="M75.9617 39.635H64.0962L68.9412 11.7178H79.5912L75.9617 39.635Z" fill="#001ED2"/>
<path id="Vector_65" d="M75.9617 39.6294C75.9617 39.6294 74.8257 45.3094 70.0318 45.3094C65.2379 45.3094 64.0905 39.6294 64.0905 39.6294H75.9617Z" fill="#3451FF"/>
<path id="Vector_66" d="M64.1076 39.6351H52.225L57.5244 15.2111C57.9618 13.1947 60.1088 11.7235 62.6364 11.7235H68.9356L64.1076 39.6351Z" fill="#F9F9F9"/>
<path id="Vector_67" d="M64.1075 39.635L52.242 39.7089H52.1511V39.618C52.8952 36.1475 56.468 19.4994 57.1268 16.4152C57.2408 15.6163 57.4685 14.8379 57.8027 14.1034C59.058 11.8314 61.8412 11.4282 64.1927 11.5872H68.9355H69.0775L69.0491 11.7178L66.584 25.702L64.1075 39.635ZM64.1075 39.635L66.4591 25.6338L68.839 11.6951L68.9526 11.8314H64.2098C61.9378 11.6951 59.2852 12.0586 58.0584 14.2284C57.7348 14.9373 57.5148 15.6891 57.4051 16.4606L56.3884 21.0955L52.3159 39.6407L52.242 39.5498L64.1075 39.6237V39.635Z" fill="#263238"/>
<path id="Vector_68" d="M64.1075 39.6294C64.1075 39.6294 62.9715 45.3094 58.1776 45.3094C53.3837 45.3094 52.2477 39.6294 52.2477 39.6294H64.1075Z" fill="#EBEBEB"/>
<path id="Vector_69" d="M123.435 39.635H135.301L134.091 11.7178H123.435V39.635Z" fill="#F9F9F9"/>
<path id="Vector_70" d="M123.435 39.635L135.301 39.5612L135.227 39.635L133.972 11.7235L134.114 11.8598L123.458 11.8314L123.571 11.7178L123.532 25.6452L123.458 39.635H123.435ZM123.435 39.635L123.361 25.7077L123.322 11.7178V11.6042H123.441H134.096H134.227V11.7405C134.227 11.8428 135.363 39.6464 135.363 39.7373H135.284L123.418 39.6634L123.435 39.635Z" fill="#263238"/>
<path id="Vector_71" d="M135.301 39.6294C135.301 39.6294 134.165 45.3094 129.371 45.3094C124.577 45.3094 123.429 39.6294 123.429 39.6294H135.301Z" fill="#EBEBEB"/>
<path id="Vector_72" d="M135.301 39.635H147.166L144.747 11.7178H134.091L135.301 39.635Z" fill="#001ED2"/>
<path id="Vector_73" d="M147.166 39.6294C147.166 39.6294 146.03 45.3094 141.236 45.3094C136.442 45.3094 135.301 39.6294 135.301 39.6294H147.166Z" fill="#3451FF"/>
<path id="Vector_74" d="M147.172 39.635H159.037L155.402 11.7178H144.746L147.172 39.635Z" fill="#F9F9F9"/>
<path id="Vector_75" d="M147.172 39.635L159.037 39.5612C158.873 40.0724 155.323 11.6213 155.266 11.7292L155.402 11.8541L144.764 11.8314L144.877 11.7065C145.474 18.6645 146.627 32.6713 147.189 39.635H147.172ZM147.172 39.635L145.9 25.7133L144.644 11.7292V11.6042H144.764H155.419H155.556C155.595 11.8087 159.117 39.5214 159.151 39.7373H159.066L147.2 39.6634L147.172 39.635Z" fill="#263238"/>
<path id="Vector_76" d="M159.037 39.6294C159.037 39.6294 157.901 45.3094 153.107 45.3094C148.314 45.3094 147.172 39.6294 147.172 39.6294H159.037Z" fill="#EBEBEB"/>
<path id="Vector_77" d="M159.037 39.635H170.903L166.058 11.7178H155.408L159.037 39.635Z" fill="#001ED2"/>
<path id="Vector_78" d="M170.892 39.6294C170.892 39.6294 169.756 45.3094 164.95 45.3094C160.145 45.3094 159.02 39.6294 159.02 39.6294H170.892Z" fill="#3451FF"/>
<path id="Vector_79" d="M170.892 39.6351H182.757L177.458 15.2111C177.02 13.1947 174.873 11.7235 172.346 11.7235H166.064L170.892 39.6351Z" fill="#F9F9F9"/>
<path id="Vector_80" d="M170.892 39.635L182.757 39.5612L182.683 39.6521L178.611 21.1069L177.594 16.472C177.484 15.7005 177.264 14.9487 176.941 14.2397C175.714 12.07 173.073 11.7065 170.789 11.8428H166.047L166.16 11.7065C167.376 18.6531 169.756 32.6657 170.892 39.635ZM170.892 39.635L168.398 25.719L165.95 11.7349L165.922 11.6042H166.064H170.806C173.573 11.3827 176.941 12.1722 177.622 15.2678C178.474 19.2438 181.939 35.3864 182.848 39.635V39.7259H182.757L170.892 39.635Z" fill="#263238"/>
<path id="Vector_81" d="M182.768 39.6294C182.768 39.6294 181.632 45.3094 176.838 45.3094C172.045 45.3094 170.909 39.6294 170.909 39.6294H182.768Z" fill="#EBEBEB"/>
<path id="Vector_82" d="M145.11 94.3107H89.8947V149.526H145.11V94.3107Z" fill="#001ED2"/>
<path id="Vector_83" d="M135.641 120.74H99.3576V115.594H135.641V120.74Z" fill="#F9F9F9"/>
<path id="Vector_84" d="M133.619 119.649L132.421 138.74H102.584L101.38 119.649H133.619Z" fill="#F9F9F9"/>
<path id="Vector_85" d="M121.356 117.587C121.356 118.35 121.13 119.096 120.706 119.73C120.282 120.364 119.68 120.859 118.975 121.151C118.271 121.442 117.495 121.519 116.747 121.37C115.999 121.221 115.312 120.854 114.772 120.314C114.233 119.775 113.866 119.088 113.717 118.34C113.568 117.592 113.644 116.816 113.936 116.111C114.228 115.407 114.723 114.804 115.357 114.381C115.991 113.957 116.737 113.731 117.5 113.731C118.522 113.732 119.502 114.139 120.225 114.862C120.948 115.585 121.355 116.565 121.356 117.587Z" fill="#F9F9F9"/>
<path id="Vector_86" d="M112.422 123.779V134.764C112.423 134.893 112.399 135.021 112.351 135.141C112.302 135.261 112.23 135.37 112.14 135.462C112.049 135.554 111.94 135.627 111.821 135.677C111.702 135.726 111.574 135.752 111.445 135.752H111.286C111.179 135.751 111.074 135.729 110.975 135.688C110.877 135.646 110.788 135.586 110.713 135.51C110.638 135.434 110.579 135.344 110.539 135.245C110.499 135.147 110.478 135.041 110.479 134.934V123.779C110.481 123.565 110.566 123.361 110.717 123.21C110.868 123.059 111.072 122.973 111.286 122.972H111.604C111.711 122.97 111.817 122.99 111.916 123.03C112.015 123.07 112.105 123.129 112.181 123.204C112.258 123.279 112.318 123.369 112.359 123.467C112.4 123.566 112.422 123.672 112.422 123.779Z" fill="#001ED2"/>
<path id="Vector_87" d="M118.465 123.779V134.764C118.467 134.893 118.442 135.021 118.394 135.141C118.346 135.261 118.274 135.37 118.183 135.462C118.092 135.554 117.984 135.627 117.865 135.677C117.745 135.726 117.617 135.752 117.488 135.752H117.329C117.222 135.751 117.117 135.73 117.019 135.688C116.92 135.646 116.831 135.586 116.756 135.51C116.682 135.434 116.622 135.344 116.582 135.245C116.542 135.147 116.522 135.041 116.523 134.934V123.779C116.526 123.566 116.612 123.363 116.762 123.214C116.913 123.064 117.117 122.979 117.329 122.978H117.647C117.754 122.976 117.859 122.996 117.958 123.035C118.057 123.075 118.147 123.133 118.223 123.208C118.299 123.282 118.359 123.371 118.401 123.469C118.443 123.567 118.464 123.672 118.465 123.779Z" fill="#001ED2"/>
<path id="Vector_88" d="M124.509 123.779V134.764C124.51 134.893 124.486 135.021 124.438 135.141C124.389 135.261 124.317 135.37 124.227 135.462C124.136 135.554 124.027 135.627 123.908 135.677C123.789 135.726 123.661 135.752 123.532 135.752H123.373C123.266 135.751 123.161 135.729 123.062 135.688C122.964 135.646 122.875 135.586 122.8 135.51C122.725 135.434 122.666 135.344 122.626 135.245C122.586 135.147 122.565 135.041 122.566 134.934V123.779C122.568 123.565 122.653 123.361 122.804 123.21C122.955 123.059 123.159 122.973 123.373 122.972H123.691C123.798 122.97 123.904 122.99 124.003 123.03C124.102 123.07 124.192 123.129 124.268 123.204C124.345 123.279 124.405 123.369 124.446 123.467C124.487 123.566 124.509 123.672 124.509 123.779Z" fill="#001ED2"/>
<path id="Vector_89" d="M128.081 117.275H126.377V107.074H108.622V117.275H106.918V105.37H128.081V117.275Z" fill="#F9F9F9"/>
</g>
<g id="freepik--Character--inject-7">
<path id="Vector_90" d="M185.546 61.5144C190.022 64.7349 204.33 77.691 205.233 79.8494C206.318 82.4168 200.768 91.5446 198.474 91.3458C192.544 90.8289 182.161 72.153 178.832 63.6046C177.202 59.4242 178.06 56.1241 185.546 61.5144Z" fill="#D3766A"/>
<path id="Vector_91" d="M197.673 60.3614C198.956 58.9527 209.118 66.5185 208.913 69.313C208.169 79.5938 205.017 88.324 203.143 90.1302C202.545 90.6789 201.826 91.0785 201.045 91.2965C200.264 91.5145 199.442 91.5447 198.647 91.3847C197.851 91.2246 197.105 90.8789 196.469 90.3756C195.833 89.8723 195.325 89.2258 194.986 88.4887C192.737 83.7857 192.697 65.8085 197.673 60.3614Z" fill="#D3766A"/>
<path id="Vector_92" d="M193.89 82.6781C192.754 76.9981 194.225 68.9666 194.219 68.9552C194.219 68.8416 194.367 68.8018 194.373 68.8643C194.412 70.0003 193.64 78.4181 194.043 82.6326C194.043 82.6497 193.896 82.7179 193.89 82.6781Z" fill="#263238"/>
<path id="Vector_93" d="M211.078 61.787C210.907 64.769 208.175 70.7217 206.96 71.9088C205.744 73.0959 195.469 68.7791 195.032 67.0978C194.594 65.4165 195.94 55.4311 197.974 53.1705C200.007 50.9098 211.254 58.6971 211.078 61.787Z" fill="#D3766A"/>
<path id="Vector_94" d="M194.946 65.3598C194.179 63.0736 193.082 60.9114 191.692 58.9414C189.948 56.6694 187.102 53.4545 188.284 52.4662C190.737 50.4498 197.832 58.4358 197.832 58.4358C197.832 58.4358 200.399 62.4573 198.144 64.6838C197.725 65.0791 197.204 65.3513 196.64 65.4705C196.076 65.5897 195.49 65.5514 194.946 65.3598Z" fill="#D3766A"/>
<path id="Vector_95" d="M198.014 59.3333L200.672 57.6918L195.923 49.9954L192.561 52.0742L198.014 59.3333Z" fill="#EB5757"/>
<path id="Vector_96" d="M192.566 52.0742L194.64 54.8404L198.019 59.3333L200.672 57.6918L195.929 49.9954L192.566 52.0742Z" fill="#001ED2"/>
<path id="Vector_97" opacity="0.1" d="M192.566 52.0742L194.64 54.8404L197.735 52.9319L195.929 49.9954L192.566 52.0742Z" fill="black"/>
<path id="Vector_98" d="M192.798 54.5883L196.975 51.9843L194.997 48.8123L190.821 51.4163L192.798 54.5883Z" fill="#001ED2"/>
<path id="Vector_99" d="M187.471 50.7906L190.925 49.1093L187.75 43.9689L184.7 46.2977L187.471 50.7906Z" fill="#001ED2"/>
<path id="Vector_100" d="M188.795 41.9184L193.475 49.5069L199.331 46.7975L214.889 43.6394L203.642 25.4123L193.844 37.9026L188.795 41.9184Z" fill="#001ED2"/>
<path id="Vector_101" d="M206.619 36.1589C209.737 41.2198 213.588 44.5085 215.213 43.5031C216.837 42.4978 215.627 37.5903 212.503 32.5294C209.379 27.4685 205.54 24.1855 203.909 25.1851C202.279 26.1848 203.5 31.1037 206.619 36.1589Z" fill="#3451FF"/>
<path id="Vector_102" opacity="0.2" d="M207.209 35.5795C209.976 40.0724 213.298 43.043 214.633 42.2251C215.968 41.4072 214.798 37.1131 212.026 32.6089C209.254 28.1046 205.931 25.1453 204.602 25.9633C203.273 26.7812 204.438 31.0923 207.209 35.5795Z" fill="black"/>
<path id="Vector_103" d="M207.601 35.341C207.971 35.9374 208.345 36.5054 208.737 37.045C209.138 37.0958 209.544 37.0322 209.91 36.8616C210.275 36.691 210.585 36.4204 210.803 36.081C211.021 35.7417 211.139 35.3475 211.142 34.9441C211.145 34.5407 211.034 34.1446 210.822 33.8017L210.294 32.944C210.083 32.6016 209.78 32.3257 209.419 32.148C209.058 31.9703 208.655 31.8981 208.255 31.9397C207.855 31.9812 207.475 32.1348 207.158 32.3828C206.841 32.6308 206.601 32.9632 206.465 33.3416C206.806 33.9948 207.187 34.665 207.601 35.341Z" fill="#001ED2"/>
<path id="Vector_104" d="M190.794 51.7448L197.468 48.4958L191.334 38.5502L185.432 43.0544L190.794 51.7448Z" fill="#3451FF"/>
<path id="Vector_105" opacity="0.2" d="M203.563 27.1902C203.467 27.9934 203.517 28.8073 203.711 29.5928C203.889 30.3808 204.128 31.1538 204.426 31.9046C204.568 32.2851 204.739 32.6487 204.898 33.0406C205.057 33.4325 205.25 33.7676 205.437 34.1255C205.625 34.4833 205.812 34.8411 206.005 35.1876C206.198 35.5341 206.409 35.8863 206.619 36.2271C207.465 37.6038 208.432 38.9022 209.51 40.1065C210.054 40.7041 210.651 41.2515 211.293 41.7423C211.926 42.2498 212.66 42.6158 213.446 42.8159C212.682 42.5814 211.973 42.195 211.362 41.6799C210.747 41.1727 210.177 40.614 209.658 40.0099C208.602 38.7999 207.652 37.5021 206.818 36.1305C205.957 34.7757 205.209 33.3528 204.58 31.8762C204.264 31.1404 204.008 30.3807 203.813 29.6042C203.586 28.8208 203.502 28.0033 203.563 27.1902Z" fill="black"/>
<path id="Vector_106" d="M210.032 22.6462C209.754 23.129 209.498 23.6231 209.249 24.123C208.999 24.6228 208.76 25.1226 208.527 25.6282C208.294 26.1337 208.067 26.6449 207.857 27.1561L207.539 27.9342C207.442 28.1955 207.334 28.4511 207.244 28.7181C207.386 28.4738 207.516 28.2296 207.652 27.9854L208.033 27.2413C208.283 26.7414 208.522 26.2416 208.754 25.7361C208.987 25.2306 209.214 24.7194 209.425 24.2025C209.635 23.6856 209.851 23.1744 210.032 22.6462Z" fill="#263238"/>
<path id="Vector_107" d="M213.168 38.9137C213.793 38.8398 214.412 38.7319 215.031 38.624C215.65 38.5161 216.263 38.3911 216.877 38.2662C217.49 38.1412 218.109 38.0049 218.717 37.8515L219.632 37.6243C219.933 37.5391 220.239 37.4653 220.54 37.3687L219.603 37.505L218.677 37.6641C218.058 37.7663 217.445 37.8913 216.826 38.0219C216.207 38.1526 215.599 38.2832 214.991 38.4366C214.383 38.5899 213.77 38.7603 213.168 38.9137Z" fill="#263238"/>
<path id="Vector_108" d="M223.108 32.6316C222.222 32.9042 221.347 33.1996 220.478 33.5063C219.609 33.813 218.74 34.1254 217.871 34.4435C217.002 34.7616 216.167 35.091 215.286 35.4375L214.003 35.9544C213.577 36.1305 213.145 36.3065 212.725 36.494C213.168 36.3577 213.605 36.21 214.042 36.068L215.355 35.6193C216.229 35.3182 217.093 35.0002 217.962 34.6821C218.831 34.364 219.666 34.0289 220.546 33.6881C221.427 33.3473 222.261 33.0008 223.108 32.6316Z" fill="#263238"/>
<path id="Vector_109" d="M214.895 20.9138C214.327 21.6749 213.827 22.453 213.304 23.2312C212.782 24.0094 212.276 24.7989 211.776 25.5884C211.276 26.3779 210.776 27.1674 210.294 27.974L209.567 29.1782C209.334 29.5814 209.095 29.9847 208.868 30.3937C209.141 30.0131 209.402 29.6269 209.675 29.2577L210.458 28.1217C210.975 27.3435 211.481 26.554 211.986 25.7645C212.492 24.975 212.986 24.1854 213.469 23.3789C213.952 22.5723 214.434 21.7317 214.895 20.9138Z" fill="#263238"/>
<path id="Vector_110" d="M211.066 33.3189C212.009 32.7907 212.935 32.234 213.861 31.6717C214.787 31.1094 215.695 30.5357 216.616 29.9677C217.536 29.3997 218.439 28.8317 219.342 28.2069L220.699 27.3151C221.142 27.0084 221.591 26.7074 222.034 26.395C221.563 26.6619 221.097 26.963 220.631 27.2072L219.24 28.0479C218.314 28.6159 217.405 29.1839 216.485 29.7519C215.565 30.3199 214.662 30.8879 213.758 31.507C212.855 32.1261 211.952 32.6998 211.066 33.3189Z" fill="#263238"/>
<path id="Vector_111" d="M195.526 57.2771C196.264 58.6801 197.491 57.0045 197.491 57.0045C197.491 57.0045 196.304 59.8445 197.627 60.9805C198.951 62.1165 200.308 60.0092 200.411 59.8445C200.348 59.9921 199.331 62.622 200.774 63.6387C202.217 64.6554 203.336 62.3721 203.404 62.2187C203.404 62.3834 203.251 64.4907 204.54 65.0246C206.727 65.9164 207.232 60.509 208.76 59.3446C208.76 59.3446 211.032 61.7018 211.095 61.7586C211.157 61.8154 211.663 56.6466 210.004 54.653C209.765 54.3628 209.435 54.163 209.067 54.0865C208.699 54.0101 208.316 54.0616 207.982 54.2326C207.982 54.2326 208.351 52.6025 207.238 51.7618C206.67 51.3358 205.477 51.8697 205.477 51.8697C205.541 51.4956 205.501 51.1109 205.361 50.7581C205.221 50.4053 204.986 50.0981 204.682 49.8704C203.858 49.3024 202.79 49.9442 202.79 49.9442C202.79 49.9442 202.438 48.564 201.41 48.28C199.331 47.729 193.947 54.2837 195.526 57.2771Z" fill="#D3766A"/>
<path id="Vector_112" d="M202.592 50.0465C202.592 50.0465 202.592 49.9953 202.563 50.0124C200.167 51.7936 198.37 54.2621 197.411 57.0897C197.383 57.1806 197.519 57.2658 197.571 57.1692C198.889 54.5634 200.58 52.1638 202.592 50.0465Z" fill="#263238"/>
<path id="Vector_113" d="M205.471 51.8584C205.471 51.8584 205.471 51.7959 205.426 51.8186C202.813 53.8127 201 56.6756 200.314 59.8899C200.314 60.0035 200.388 60.1228 200.422 59.9978C200.996 57.8338 203.557 53.818 205.471 51.8584Z" fill="#263238"/>
<path id="Vector_114" d="M203.438 62.4914C204.148 59.3503 205.789 56.7546 207.863 54.3292C207.863 54.3292 207.863 54.2667 207.812 54.2838C206.477 55.1926 205.318 56.8795 204.523 58.2598C203.765 59.5326 203.354 60.9818 203.33 62.463C203.33 62.5255 203.421 62.5538 203.438 62.4914Z" fill="#263238"/>
<path id="Vector_115" d="M197.44 57.0215C197.406 57.1295 197.599 57.0613 197.57 57.1692C197.446 57.635 196.917 60.475 197.832 60.9521C198.564 61.3383 199.587 60.617 199.871 60.1853L200.587 59.1061L200.291 60.3727C200.155 60.9298 200.111 61.5054 200.161 62.0767C200.169 62.3439 200.234 62.6063 200.351 62.847C200.467 63.0876 200.633 63.3012 200.836 63.474C201.031 63.6293 201.272 63.7139 201.521 63.7139C201.77 63.7139 202.011 63.6293 202.205 63.474C202.631 63.1169 202.959 62.6576 203.16 62.1392L203.767 60.7306L203.659 62.2528C203.628 62.6781 203.651 63.1056 203.728 63.5251C203.787 63.9248 203.963 64.2981 204.233 64.5987C204.361 64.7284 204.522 64.8199 204.698 64.8631C204.875 64.9062 205.06 64.8992 205.233 64.8429C205.601 64.6613 205.908 64.3773 206.119 64.025C206.589 63.2709 207 62.4808 207.346 61.6621C207.539 61.2531 207.726 60.8442 207.914 60.4466C208.102 60.0313 208.377 59.6612 208.72 59.3617C208.417 59.6912 208.181 60.0772 208.027 60.4977C207.851 60.9123 207.692 61.3327 207.533 61.753C207.235 62.6129 206.854 63.4422 206.397 64.2295C206.162 64.6637 205.802 65.0177 205.363 65.2462C205.112 65.3455 204.838 65.3694 204.574 65.3149C204.309 65.2605 204.067 65.13 203.875 64.9395C203.53 64.5752 203.301 64.1165 203.216 63.6217C203.122 63.1586 203.089 62.6848 203.12 62.2131L203.614 62.321C203.384 62.9428 202.991 63.4918 202.478 63.9114C202.192 64.1364 201.837 64.2566 201.473 64.2522C201.115 64.2309 200.771 64.1044 200.484 63.8887C200.225 63.6712 200.015 63.4015 199.867 63.097C199.719 62.7926 199.637 62.4604 199.627 62.1222C199.581 61.4885 199.638 60.8516 199.797 60.2364L200.217 60.4239C199.837 60.9578 198.78 61.8836 197.57 61.4349C196.128 60.6227 197.201 57.5668 197.44 57.0215Z" fill="#263238"/>
<path id="Vector_116" d="M197.491 57.0045C197.252 57.233 196.98 57.4245 196.684 57.5725C196.566 57.6285 196.436 57.6532 196.306 57.6443C196.175 57.6353 196.05 57.593 195.94 57.5213C195.728 57.3259 195.576 57.0736 195.503 56.7943C195.406 56.4876 195.321 56.1638 195.247 55.8287C195.145 56.1652 195.116 56.5196 195.162 56.8681C195.194 57.2602 195.38 57.6237 195.679 57.8792C195.849 57.9992 196.053 58.0636 196.261 58.0636C196.47 58.0636 196.673 57.9992 196.843 57.8792C197.149 57.6662 197.377 57.359 197.491 57.0045Z" fill="#263238"/>
<path id="Vector_117" d="M171.624 223.764C170.488 223.065 147.621 195.364 147.422 193.733C147.393 193.512 150.875 190.377 155.294 186.44C155.521 186.236 172.073 170.218 172.073 170.218L186.273 187.366L170.744 203.213C170.744 203.213 174.754 217.737 174.788 219.532C174.822 221.327 172.749 224.468 171.624 223.764Z" fill="#D3766A"/>
<path id="Vector_118" d="M172.397 208.956C172.357 208.865 172.346 208.814 172.363 208.791C172.377 208.845 172.389 208.9 172.397 208.956Z" fill="#EB5757"/>
<path id="Vector_119" d="M174.794 219.538C174.822 221.321 172.743 224.474 171.624 223.769C170.505 223.065 147.621 195.369 147.422 193.739C147.388 193.518 150.87 190.382 155.294 186.446L158.85 183.038L173.487 200.447L170.75 203.242C170.75 203.242 174.76 217.737 174.794 219.538Z" fill="#EBEBEB"/>
<path id="Vector_120" d="M172.51 223.474C171.374 222.764 148.319 194.693 148.12 193.063C148.035 192.45 151.932 188.849 156.76 184.64L156.913 184.509L171.988 202.458L171.675 202.702C171.675 202.702 175.691 217.396 175.725 219.208C175.759 221.02 173.641 224.19 172.51 223.474Z" fill="#001ED2"/>
<path id="Vector_121" d="M173.334 222.264C169.568 217.436 153.903 198.317 149.813 193.83C149.779 193.796 149.751 193.83 149.785 193.858C153.414 198.726 169.227 217.714 173.26 222.327C173.345 222.423 173.413 222.378 173.334 222.264Z" fill="#F9F9F9"/>
<path id="Vector_122" d="M172.874 204.27C171.692 202.117 169.534 200.078 167.04 199.726C166.944 199.726 166.927 199.851 166.995 199.896C169.029 201.207 170.918 202.73 172.63 204.44C172.655 204.463 172.688 204.476 172.722 204.478C172.756 204.48 172.79 204.47 172.818 204.451C172.847 204.431 172.867 204.403 172.877 204.37C172.887 204.337 172.886 204.302 172.874 204.27Z" fill="#F9F9F9"/>
<path id="Vector_123" d="M173.164 206.275C171.982 204.128 169.829 202.089 167.33 201.731C167.234 201.731 167.217 201.856 167.285 201.901C169.322 203.21 171.213 204.733 172.925 206.445C172.951 206.465 172.983 206.476 173.016 206.477C173.048 206.477 173.081 206.467 173.107 206.448C173.134 206.429 173.154 206.402 173.164 206.371C173.174 206.34 173.174 206.306 173.164 206.275Z" fill="#F9F9F9"/>
<path id="Vector_124" d="M173.459 208.286C172.277 206.139 170.119 204.094 167.626 203.742C167.529 203.742 167.512 203.867 167.58 203.906C169.616 205.217 171.507 206.74 173.22 208.45C173.246 208.469 173.277 208.48 173.309 208.48C173.341 208.481 173.372 208.471 173.398 208.453C173.425 208.435 173.445 208.409 173.455 208.379C173.466 208.349 173.467 208.316 173.459 208.286Z" fill="#F9F9F9"/>
<path id="Vector_125" d="M173.868 223.076C174.084 223.741 172.306 225.019 171.874 224.78C171.443 224.542 146.468 193.79 146.132 193.171C145.797 192.552 147.836 191.217 148.438 191.74C149.041 192.262 173.868 223.076 173.868 223.076Z" fill="#263238"/>
<path id="Vector_126" d="M157.578 191.706C156.924 188.866 152.466 189.848 153.113 192.722C153.761 195.596 158.231 194.602 157.578 191.706Z" fill="#F9F9F9"/>
<path id="Vector_127" d="M183.45 152.911C182.178 159.159 159.191 180.772 159.191 180.772L177.304 201.685C177.304 201.685 211.208 168.253 209.283 154.417C207.607 142.375 189.584 93.9699 189.584 93.9699H168.79C168.79 93.9699 184.694 146.754 183.45 152.911Z" fill="#37474F"/>
<path id="Vector_128" d="M183.45 152.911C182.178 159.159 159.191 180.772 159.191 180.772L177.304 201.685C177.304 201.685 211.208 168.253 209.283 154.417C207.607 142.375 189.584 93.9699 189.584 93.9699H168.79C168.79 93.9699 184.694 146.754 183.45 152.911Z" fill="#37474F"/>
<path id="Vector_129" d="M179.366 196.71C176.958 193.716 177.69 194.54 175.254 191.569C174.055 190.115 166.2 180.579 164.848 179.414C164.82 179.414 164.768 179.414 164.786 179.465C165.694 180.999 173.714 190.405 174.941 191.836C177.435 194.756 176.753 193.892 179.281 196.784C179.326 196.818 179.412 196.767 179.366 196.71Z" fill="#263238"/>
<path id="Vector_130" d="M186.029 149.861C185.733 148.299 185.393 146.737 185.063 145.181C184.385 142 183.67 138.829 182.916 135.667C181.424 129.396 179.796 123.159 178.031 116.957C176.259 110.737 174.385 104.523 172.226 98.4231C171.965 97.6676 171.658 96.9179 171.414 96.1511C171.414 96.0943 171.301 96.117 171.323 96.1511C173.192 102.263 175.117 108.357 176.867 114.503C178.616 120.649 180.229 126.778 181.752 132.957C182.513 136.064 183.223 139.205 183.921 142.295C184.262 143.829 184.596 145.364 184.921 146.902C185.327 148.459 185.617 150.045 185.79 151.645C185.844 153.162 185.416 154.657 184.569 155.916C183.791 157.194 182.865 158.392 181.99 159.597C180.212 162.005 166.285 177.46 165.74 177.977C165.694 178.017 165.74 178.074 165.802 178.04C168.074 176 179.434 163.84 181.263 161.448C182.166 160.261 183.041 159.051 183.904 157.836C184.769 156.73 185.465 155.504 185.972 154.195C186.36 152.779 186.38 151.287 186.029 149.861Z" fill="#263238"/>
<path id="Vector_131" d="M185.989 93.9642L182.212 143.505C178.611 126.55 168.796 93.9642 168.796 93.9642H185.989Z" fill="#263238"/>
<path id="Vector_132" d="M220.876 230.273C219.626 230.699 183.677 230.795 182.308 229.926C182.115 229.813 181.905 225.132 181.667 219.214C181.667 218.913 177.259 194.671 177.259 194.671L199.53 194.563L204.438 217.908C204.438 217.908 218.212 224.025 219.62 225.132C221.029 226.24 222.114 229.853 220.876 230.273Z" fill="#D3766A"/>
<path id="Vector_133" d="M220.876 230.273C219.62 230.699 183.677 230.795 182.308 229.926C182.115 229.813 181.899 225.132 181.661 219.214C181.661 219.129 181.326 217.243 180.843 214.551H203.728L204.432 217.908C204.432 217.908 218.206 224.025 219.615 225.132C221.023 226.24 222.114 229.853 220.876 230.273Z" fill="#EBEBEB"/>
<path id="Vector_134" d="M209.902 220.276C209.811 220.276 209.76 220.225 209.754 220.197L209.902 220.276Z" fill="#EB5757"/>
<path id="Vector_135" d="M221.04 230.114C219.768 230.534 183.439 230.369 182.064 229.483C181.53 229.154 181.246 223.86 181.087 217.453V217.266L204.523 217.107V217.504C204.523 217.504 218.399 223.792 219.813 224.922C221.228 226.053 222.307 229.694 221.04 230.114Z" fill="#001ED2"/>
<path id="Vector_136" d="M220.631 228.7C214.508 228.523 189.795 228.381 183.711 228.671C183.66 228.671 183.66 228.705 183.711 228.711C189.772 229.018 214.486 228.961 220.631 228.802C220.762 228.796 220.762 228.705 220.631 228.7Z" fill="#F9F9F9"/>
<path id="Vector_137" d="M206.482 217.572C204.074 217.112 201.126 217.47 199.275 219.18C199.206 219.242 199.275 219.345 199.377 219.322C201.683 218.589 204.061 218.105 206.471 217.879C206.512 217.881 206.551 217.866 206.581 217.838C206.611 217.811 206.629 217.772 206.63 217.731C206.632 217.691 206.617 217.651 206.589 217.621C206.562 217.592 206.523 217.574 206.482 217.572Z" fill="#F9F9F9"/>
<path id="Vector_138" d="M208.215 218.629C205.806 218.169 202.859 218.527 201.013 220.236C200.939 220.299 201.013 220.401 201.109 220.378C203.416 219.646 205.794 219.162 208.203 218.936C208.224 218.936 208.244 218.933 208.263 218.926C208.281 218.919 208.299 218.908 208.314 218.895C208.328 218.881 208.34 218.865 208.349 218.846C208.357 218.828 208.362 218.808 208.363 218.788C208.363 218.768 208.36 218.748 208.353 218.729C208.346 218.71 208.335 218.693 208.322 218.678C208.308 218.663 208.291 218.651 208.273 218.643C208.255 218.634 208.235 218.63 208.215 218.629Z" fill="#F9F9F9"/>
<path id="Vector_139" d="M209.953 219.685C207.545 219.225 204.591 219.583 202.745 221.293C202.671 221.355 202.745 221.458 202.847 221.435C205.154 220.701 207.532 220.218 209.942 219.992C209.982 219.994 210.022 219.979 210.052 219.951C210.081 219.923 210.099 219.885 210.101 219.844C210.102 219.804 210.087 219.764 210.06 219.734C210.032 219.704 209.994 219.687 209.953 219.685Z" fill="#F9F9F9"/>
<path id="Vector_140" d="M221.597 228.813C222.25 229.063 222.097 231.25 221.625 231.42C221.154 231.591 181.547 231.238 180.877 231.085C180.207 230.932 180.462 228.518 181.246 228.393C182.03 228.268 221.597 228.813 221.597 228.813Z" fill="#263238"/>
<path id="Vector_141" d="M187.063 221.35C184.438 220.02 182.365 224.099 185.001 225.434C187.636 226.768 189.698 222.679 187.063 221.35Z" fill="#F9F9F9"/>
<path id="Vector_142" d="M187.579 93.9699C186.77 97.3869 186.172 100.851 185.79 104.342C185.359 108.692 184.813 112.544 184.234 113.021C183.654 113.498 180.292 115.673 179.184 116.349C179.184 116.349 189.408 147.407 192.072 157.756C195.906 172.763 205.068 212.574 205.068 212.574H179.98C179.98 212.574 173.203 174.927 169.954 160.642C167.154 148.384 156.476 111.618 156.476 111.618C152.591 102.064 159.14 93.9472 159.14 93.9472C159.14 93.9472 187.579 93.9529 187.579 93.9699Z" fill="#37474F"/>
<path id="Vector_143" d="M202.734 207.826C199.025 207.826 200.092 207.757 196.383 207.78C194.571 207.78 182.655 207.865 180.962 208.183C180.928 208.183 180.928 208.257 180.962 208.263C182.666 208.524 194.594 208.263 196.383 208.189C200.092 208.092 199.025 208.075 202.728 207.939C202.743 207.94 202.758 207.935 202.769 207.925C202.78 207.914 202.787 207.9 202.788 207.885C202.788 207.87 202.783 207.855 202.773 207.844C202.763 207.833 202.749 207.826 202.734 207.826Z" fill="#263238"/>
<path id="Vector_144" d="M185.966 111.794C183.59 113.111 181.332 114.631 179.218 116.338C179.209 116.344 179.202 116.351 179.196 116.36C179.19 116.369 179.186 116.379 179.184 116.39C179.181 116.4 179.181 116.411 179.183 116.422C179.186 116.432 179.19 116.442 179.196 116.451C179.202 116.46 179.209 116.468 179.218 116.474C179.227 116.48 179.237 116.484 179.248 116.486C179.258 116.488 179.269 116.488 179.28 116.486C179.29 116.484 179.3 116.48 179.309 116.474C181.581 115.043 183.938 113.634 186.125 112.089C186.164 112.068 186.194 112.032 186.206 111.99C186.219 111.947 186.215 111.901 186.193 111.862C186.172 111.823 186.137 111.794 186.094 111.781C186.051 111.768 186.005 111.773 185.966 111.794Z" fill="#263238"/>
<path id="Vector_145" d="M184.098 94.9014C184.098 94.8162 183.927 94.8219 183.944 94.9014C184.368 97.6344 184.655 100.387 184.802 103.149C184.887 104.432 184.955 111.561 182.683 111.396C182.308 111.396 182.064 111.033 181.922 110.493C181.816 109.769 181.801 109.034 181.877 108.306C181.877 106.807 181.877 105.313 181.757 103.819C181.586 101.034 181.128 98.2738 180.389 95.583C180.382 95.5673 180.37 95.5543 180.355 95.5463C180.34 95.5383 180.323 95.5357 180.306 95.539C180.289 95.5424 180.274 95.5514 180.263 95.5646C180.252 95.5778 180.247 95.5944 180.247 95.6114C180.906 99.4099 181.274 103.253 181.348 107.108C181.348 108.959 180.871 111.834 182.808 111.822C184.745 111.811 185.324 107.034 185.37 105.745C185.418 102.09 184.99 98.4454 184.098 94.9014Z" fill="#263238"/>
<path id="Vector_146" d="M182.774 111.584C182.651 112.084 182.562 112.593 182.507 113.106C182.434 113.51 182.434 113.923 182.507 114.327C182.513 114.343 182.524 114.357 182.538 114.367C182.553 114.376 182.569 114.382 182.587 114.382C182.604 114.382 182.621 114.376 182.635 114.367C182.649 114.357 182.66 114.343 182.666 114.327C182.837 113.935 182.948 113.519 182.996 113.094C183.092 112.623 183.2 112.152 183.28 111.674C183.292 111.607 183.277 111.538 183.238 111.482C183.199 111.427 183.139 111.388 183.072 111.376C183.005 111.364 182.936 111.379 182.88 111.418C182.824 111.457 182.786 111.517 182.774 111.584Z" fill="#263238"/>
<path id="Vector_147" d="M177.787 199.555C177.719 198.987 177.645 198.419 177.566 197.851C177.412 196.767 177.23 195.687 177.06 194.602C176.725 192.427 176.356 190.263 175.969 188.099C175.203 183.776 174.317 179.471 173.379 175.188C172.851 172.763 172.243 170.372 171.59 167.975C171.545 167.81 171.312 167.889 171.34 168.054C171.732 170.241 172.113 172.433 172.561 174.615C173.01 176.796 173.453 178.965 173.885 181.141C174.737 185.441 175.532 189.757 176.384 194.063C176.628 195.278 176.844 196.494 177.083 197.709C177.202 198.317 177.321 198.919 177.452 199.527C177.583 200.135 177.77 200.72 177.872 201.328C177.872 201.384 177.963 201.356 177.957 201.328C177.861 200.731 177.85 200.14 177.787 199.555Z" fill="#263238"/>
<path id="Vector_148" d="M194.651 167.06C193.833 162.999 192.737 158.995 191.635 155.007C189.408 146.981 186.796 139.075 184.183 131.151L181.911 124.335C181.53 123.199 179.69 117.059 179.463 116.474C179.434 116.417 179.349 116.44 179.366 116.474C179.894 118.564 180.616 121.614 181.229 123.688C181.843 125.761 182.49 127.766 183.126 129.805C184.376 133.809 185.648 137.808 186.858 141.824C189.255 149.776 191.641 157.688 193.583 165.754C194.151 168.026 194.674 170.264 195.168 172.536C195.662 174.808 196.094 177.08 196.565 179.352C196.565 179.367 196.571 179.381 196.582 179.392C196.592 179.402 196.607 179.408 196.622 179.408C196.637 179.408 196.651 179.402 196.662 179.392C196.673 179.381 196.679 179.367 196.679 179.352C196.287 175.234 195.463 171.127 194.651 167.06Z" fill="#263238"/>
<path id="Vector_149" d="M179.446 188.298C178.099 180.556 176.486 172.859 174.697 165.203C172.908 157.546 170.903 149.867 168.699 142.29C166.495 134.713 164.076 127.181 161.434 119.734C160.196 116.207 158.68 112.714 158.117 109.011C157.331 104.256 158.129 99.3739 160.389 95.1173C160.393 95.1113 160.395 95.1047 160.396 95.0979C160.396 95.0911 160.396 95.0843 160.394 95.0777C160.392 95.0711 160.389 95.0649 160.385 95.0595C160.381 95.0541 160.375 95.0496 160.369 95.0463C160.363 95.0429 160.357 95.0408 160.35 95.04C160.343 95.0391 160.336 95.0397 160.33 95.0415C160.323 95.0434 160.317 95.0465 160.312 95.0507C160.306 95.0549 160.302 95.0602 160.298 95.0662C158.089 98.3662 155.629 105.205 159.73 116.173C161.094 119.831 162.269 123.557 163.479 127.255C164.721 131.068 165.912 134.891 167.052 138.723C169.324 146.328 171.403 153.985 173.3 161.693C175.197 169.4 176.85 177.159 178.321 184.952C179.792 192.745 180.383 195.415 181.638 203.27C181.803 204.293 181.933 205.321 182.07 206.349C182.07 206.406 182.166 206.406 182.161 206.349C181.155 198.561 180.786 196.017 179.446 188.298Z" fill="#263238"/>
<path id="Vector_150" d="M190.561 94.7083L188.943 83.9731C188.943 83.9731 192.129 80.2414 190.107 75.8166C189.068 73.5617 182.632 61.4065 178.844 58.6233C175.282 56.0105 170.812 58.4756 169.136 60.7192C164.314 67.1774 160.81 73.3742 158.021 94.5322L190.561 94.7083Z" fill="#001ED2"/>
<path id="Vector_151" d="M183.45 82.2634C181.813 82.4118 180.19 82.6833 178.594 83.0757C177.804 83.2802 177.026 83.5244 176.253 83.78C175.867 83.9106 175.475 84.0242 175.089 84.1378C174.682 84.268 174.26 84.3481 173.834 84.3764C173.8 84.3764 173.8 84.4332 173.834 84.4389C174.235 84.4549 174.638 84.4454 175.038 84.4105C175.421 84.3619 175.801 84.2879 176.174 84.189C176.98 83.9902 177.77 83.7516 178.577 83.5414C180.19 83.1211 181.808 82.7008 183.45 82.4054C183.547 82.3827 183.524 82.2521 183.45 82.2634Z" fill="#263238"/>
<path id="Vector_152" d="M187.5 83.7005C186.151 83.5606 184.795 83.4999 183.439 83.5187C182.763 83.5187 182.087 83.5755 181.411 83.6437C181.093 83.6778 180.769 83.7118 180.445 83.7573C180.122 83.8027 179.747 83.8936 179.394 83.939C179.387 83.939 179.38 83.942 179.374 83.9474C179.369 83.9527 179.366 83.9599 179.366 83.9674C179.366 83.975 179.369 83.9822 179.374 83.9875C179.38 83.9929 179.387 83.9958 179.394 83.9958C179.73 83.9674 180.07 83.9958 180.406 83.9958H181.417L183.444 83.939C184.796 83.8879 186.148 83.8538 187.5 83.8482C187.51 83.8482 187.519 83.8462 187.528 83.8425C187.537 83.8388 187.545 83.8334 187.552 83.8265C187.559 83.8197 187.564 83.8115 187.568 83.8026C187.572 83.7936 187.574 83.784 187.574 83.7743C187.574 83.7646 187.572 83.755 187.568 83.7461C187.564 83.7371 187.559 83.729 187.552 83.7221C187.545 83.7153 187.537 83.7098 187.528 83.7061C187.519 83.7024 187.51 83.7005 187.5 83.7005Z" fill="#263238"/>
<path id="Vector_153" d="M168.915 60.4977C158.753 70.0798 149.342 85.9043 150.012 94.2142C150.676 102.422 153.46 101.365 154.266 101.24C159.191 100.468 168.79 76.5948 171.499 66.9729C174.209 57.351 171.425 58.1291 168.915 60.4977Z" fill="#D3766A"/>
<path id="Vector_154" d="M171.829 51.1938C170.062 51.1427 165.939 53.1705 164.91 55.7038C163.882 58.237 164.695 61.8666 165.513 62.0824C166.33 62.2982 169.489 61.4122 171.482 59.7763C173.476 58.1405 172.698 51.2222 171.829 51.1938Z" fill="#263238"/>
<path id="Vector_155" d="M171.834 51.2052C171.886 51.2052 171.874 51.0859 171.834 51.0973C170.346 51.3358 168.852 52.1367 167.518 52.8013C166.401 53.2894 165.399 54.0052 164.575 54.9029C164.2 55.3519 163.928 55.877 163.775 56.4419C163.623 57.0068 163.596 57.598 163.695 58.1746C163.869 59.584 164.401 60.9253 165.24 62.0711C165.268 62.0995 165.331 62.0711 165.308 62.037C164.172 59.6968 162.991 56.7943 165.126 54.653C166.916 52.8411 169.545 52.1708 171.834 51.2052Z" fill="#263238"/>
<path id="Vector_156" d="M165.638 61.3951C164.195 61.8666 160.878 65.4109 160.77 68.3474C160.662 71.284 163.723 75.0101 164.507 75.1634C165.291 75.3168 168.052 72.011 168.739 69.8242C169.205 68.3702 168.347 66.9331 167.733 65.4563C166.83 63.2922 165.859 61.3213 165.638 61.3951Z" fill="#263238"/>
<path id="Vector_157" d="M169.562 69.3187C169.46 66.3651 167.29 63.8318 165.831 61.4292H165.785C166.796 63.8091 168.71 65.763 169.244 68.3531C169.435 69.1058 169.44 69.8933 169.261 70.6487C169.082 71.4041 168.724 72.1053 168.216 72.6926C167.273 73.7207 165.944 74.3569 164.769 75.0498C164.689 75.0953 164.768 75.2089 164.848 75.1634C167.234 73.8741 169.665 72.3632 169.562 69.3187Z" fill="#263238"/>
<path id="Vector_158" d="M165.365 61.7189C165.433 61.6678 165.365 61.5599 165.297 61.611C163.377 63.0026 161.122 64.9395 160.395 67.291C159.611 69.8299 161.292 72.0167 162.775 73.8911C162.775 73.8911 162.832 73.8911 162.815 73.8911C161.343 71.977 159.713 69.563 160.673 67.0751C161.503 64.8656 163.564 63.0707 165.365 61.7189Z" fill="#263238"/>
<path id="Vector_159" d="M164.973 74.5159C163.581 76.5437 161.974 79.4462 163.104 81.4001C164.235 83.354 167.722 85.6431 167.955 85.5635C168.188 85.484 171.17 81.9226 171.107 79.1678C171.045 76.413 165.155 74.249 164.973 74.5159Z" fill="#263238"/>
<path id="Vector_160" d="M168.188 85.6715C166.154 84.8422 163.689 83.5982 162.849 81.4058C162.008 79.2133 163.615 76.5437 164.768 74.8454H164.74C163.411 76.4869 161.9 79.1906 162.633 81.366C163.366 83.5415 166.041 85.2454 168.165 85.7794C168.211 85.7623 168.228 85.6885 168.188 85.6715Z" fill="#263238"/>
<path id="Vector_161" d="M167.858 85.3647C167.47 86.1547 167.248 87.016 167.206 87.8954C167.164 88.7747 167.303 89.6533 167.614 90.4767C168.887 93.7427 167.415 93.8222 164.644 96.5373C162.292 98.8093 163.508 102.251 165.893 102.899C165.893 102.899 163.922 101.507 165.223 99.4909C166.774 97.0712 173.203 96.3953 173.868 91.7774C174.737 85.785 167.858 85.3647 167.858 85.3647Z" fill="#263238"/>
<path id="Vector_162" d="M167.484 87.4322C167.484 87.3697 167.387 87.347 167.376 87.4322C167.222 88.027 167.177 88.6449 167.245 89.2555C167.342 90.045 167.733 90.738 167.881 91.5275C168.256 93.5042 166.257 94.6174 164.888 95.566C163.059 96.8326 162.213 98.9172 163.292 101.002C163.292 101.03 163.354 101.002 163.337 101.002C163.012 100.355 162.869 99.6323 162.924 98.9106C162.979 98.189 163.23 97.496 163.65 96.9065C164.49 95.7705 165.922 95.2706 166.893 94.305C167.574 93.6405 168.165 92.8339 168.074 91.8399C167.979 91.3026 167.827 90.777 167.62 90.2722C167.33 89.3533 167.283 88.3748 167.484 87.4322Z" fill="#263238"/>
<path id="Vector_163" d="M168.574 85.4272C168.546 85.4272 168.54 85.467 168.574 85.4727C170.278 85.8987 172.079 86.2906 173.317 87.6708C174.652 89.1533 174.782 91.3571 174.067 93.1577C173.26 95.1741 171.346 95.5717 169.523 96.2306C168.16 96.6223 166.926 97.3714 165.95 98.4003C165.922 98.4344 165.978 98.4799 166.012 98.4515C167.643 96.8895 169.71 96.4237 171.744 95.6115C172.513 95.332 173.188 94.8409 173.69 94.1947C174.192 93.5486 174.502 92.7737 174.584 91.9592C175.146 88.0911 172.062 85.9043 168.574 85.4272Z" fill="#263238"/>
<path id="Vector_164" d="M169.483 48.7401C169.347 48.676 169.192 48.6651 169.049 48.7094C168.905 48.7537 168.783 48.8501 168.707 48.9796C168.631 49.109 168.606 49.2623 168.637 49.4093C168.668 49.5562 168.753 49.6863 168.875 49.7738C169.011 49.8379 169.166 49.8488 169.309 49.8045C169.453 49.7602 169.575 49.6639 169.651 49.5344C169.727 49.4049 169.752 49.2516 169.721 49.1047C169.69 48.9577 169.605 48.8277 169.483 48.7401Z" fill="#EB5757"/>
<path id="Vector_165" d="M170.278 49.5296C170.142 49.4592 169.983 49.4435 169.836 49.4858C169.688 49.5282 169.562 49.6253 169.484 49.7573C169.406 49.8894 169.381 50.0464 169.414 50.1962C169.448 50.346 169.537 50.4774 169.665 50.5634C169.801 50.6338 169.959 50.6495 170.107 50.6071C170.254 50.5648 170.38 50.4677 170.459 50.3356C170.537 50.2036 170.562 50.0466 170.528 49.8968C170.495 49.7469 170.405 49.6156 170.278 49.5296Z" fill="#EB5757"/>
<path id="Vector_166" d="M171.198 50.1771C171.062 50.1131 170.907 50.1021 170.764 50.1464C170.62 50.1907 170.499 50.2871 170.423 50.4166C170.346 50.5461 170.321 50.6993 170.352 50.8463C170.384 50.9933 170.468 51.1233 170.59 51.2109C170.726 51.2749 170.881 51.2859 171.025 51.2416C171.168 51.1973 171.29 51.1009 171.366 50.9714C171.442 50.8419 171.467 50.6887 171.436 50.5417C171.405 50.3947 171.32 50.2647 171.198 50.1771Z" fill="#EB5757"/>
<path id="Vector_167" d="M172.175 50.6826C172.039 50.6122 171.881 50.5965 171.733 50.6389C171.585 50.6812 171.46 50.7783 171.381 50.9104C171.303 51.0424 171.278 51.1994 171.311 51.3492C171.345 51.4991 171.435 51.6304 171.562 51.7164C171.698 51.7868 171.856 51.8025 172.004 51.7602C172.152 51.7178 172.277 51.6207 172.356 51.4887C172.434 51.3566 172.459 51.1996 172.426 51.0498C172.392 50.9 172.302 50.7686 172.175 50.6826Z" fill="#EB5757"/>
<path id="Vector_168" d="M173.243 51.0235C173.107 50.9594 172.952 50.9485 172.809 50.9928C172.665 51.0371 172.543 51.1334 172.467 51.2629C172.391 51.3924 172.366 51.5457 172.397 51.6926C172.428 51.8396 172.513 51.9696 172.635 52.0572C172.771 52.1213 172.926 52.1322 173.07 52.0879C173.213 52.0436 173.335 51.9472 173.411 51.8177C173.487 51.6883 173.512 51.535 173.481 51.388C173.45 51.2411 173.365 51.111 173.243 51.0235Z" fill="#EB5757"/>
<path id="Vector_169" d="M174.3 51.1597C174.163 51.0893 174.005 51.0737 173.857 51.116C173.71 51.1583 173.584 51.2554 173.506 51.3875C173.427 51.5195 173.402 51.6765 173.436 51.8263C173.469 51.9762 173.559 52.1075 173.686 52.1935C173.823 52.264 173.981 52.2796 174.128 52.2373C174.276 52.1949 174.402 52.0978 174.48 51.9658C174.558 51.8337 174.583 51.6767 174.55 51.5269C174.516 51.3771 174.427 51.2457 174.3 51.1597Z" fill="#EB5757"/>
<path id="Vector_170" d="M172.505 59.3617C172.669 59.9638 175.986 63.9057 178.605 62.7697C179.576 62.3551 179.213 59.1743 179.213 59.1743L180.252 53.6192L173.164 49.4444C173.164 49.4444 172.437 59.0891 172.505 59.3617Z" fill="#D3766A"/>
<path id="Vector_171" d="M172.919 53.0455C173.524 54.3958 174.399 55.6074 175.492 56.605C176.584 57.6027 177.87 58.365 179.27 58.8448L180.252 53.5965L173.164 49.4444C173.164 49.4444 173.061 51.0746 172.919 53.0455Z" fill="#263238"/>
<path id="Vector_172" d="M185.376 44.7243C187.045 53.8123 181.78 55.8628 179.815 56.2206C178.031 56.5444 171.914 57.4248 169.313 48.5413C166.711 39.6578 170.42 35.9942 174.459 35.0342C178.497 34.0743 183.706 35.6136 185.376 44.7243Z" fill="#D3766A"/>
<path id="Vector_173" d="M182.74 43.9859C182.524 43.9859 182.325 43.9405 182.11 43.9178C181.882 43.9248 181.659 43.8569 181.473 43.7246C181.422 43.672 181.39 43.6033 181.383 43.53C181.375 43.4567 181.393 43.3831 181.434 43.3214C181.527 43.2111 181.649 43.1282 181.786 43.0812C181.923 43.0342 182.07 43.025 182.212 43.0544C182.511 43.0655 182.795 43.1892 183.007 43.4009C183.052 43.4519 183.081 43.5148 183.091 43.5821C183.101 43.6494 183.091 43.7181 183.063 43.78C183.035 43.8418 182.989 43.8942 182.932 43.9308C182.875 43.9673 182.808 43.9865 182.74 43.9859Z" fill="#263238"/>
<path id="Vector_174" d="M176.503 44.6959C176.709 44.6427 176.912 44.5783 177.111 44.5028C177.33 44.46 177.529 44.3485 177.679 44.1847C177.718 44.1236 177.735 44.0512 177.728 43.9791C177.721 43.907 177.69 43.8394 177.639 43.7871C177.525 43.6969 177.388 43.6388 177.243 43.6188C177.098 43.5988 176.951 43.6177 176.816 43.6735C176.528 43.7483 176.277 43.9262 176.111 44.1734C176.075 44.2335 176.058 44.303 176.061 44.3732C176.065 44.4433 176.089 44.5108 176.131 44.5669C176.173 44.6231 176.231 44.6654 176.297 44.6884C176.364 44.7114 176.436 44.714 176.503 44.6959Z" fill="#263238"/>
<path id="Vector_175" d="M178.054 46.8941C178.054 46.8941 178.009 46.9281 178.009 46.9509C178.111 47.5757 178.116 48.3084 177.577 48.5867C177.577 48.5867 177.577 48.6265 177.577 48.6208C178.276 48.439 178.276 47.4678 178.054 46.8941Z" fill="#263238"/>
<path id="Vector_176" d="M177.412 46.2977C176.395 46.3431 176.566 48.3709 177.509 48.3311C178.452 48.2914 178.276 46.2977 177.412 46.2977Z" fill="#263238"/>
<path id="Vector_177" d="M177.026 46.451C176.856 46.576 176.702 46.7975 176.486 46.8373C176.271 46.877 176.038 46.6839 175.862 46.4908C175.862 46.4908 175.822 46.4908 175.827 46.4908C175.856 46.8827 176.038 47.2633 176.458 47.2917C176.878 47.3201 177.088 46.9452 177.151 46.5419C177.14 46.4965 177.088 46.3942 177.026 46.451Z" fill="#263238"/>
<path id="Vector_178" d="M181.757 46.4056C181.757 46.4056 181.809 46.4056 181.809 46.4567C181.809 47.0872 181.979 47.8029 182.564 47.9676V48.0073C181.86 47.9619 181.684 47.0077 181.757 46.4056Z" fill="#263238"/>
<path id="Vector_179" d="M182.252 45.7297C183.257 45.5763 183.49 47.5984 182.558 47.7404C181.627 47.8824 181.428 45.8319 182.252 45.7297Z" fill="#263238"/>
<path id="Vector_180" d="M182.706 45.7865C182.876 45.8774 183.058 46.0534 183.274 46.0421C183.49 46.0307 183.637 45.7978 183.751 45.5706H183.785C183.842 45.9569 183.785 46.3715 183.399 46.4908C183.013 46.6101 182.78 46.2977 182.643 45.9228C182.592 45.8717 182.638 45.7297 182.706 45.7865Z" fill="#263238"/>
<path id="Vector_181" d="M178.639 52.1254C178.787 52.273 178.94 52.4775 179.167 52.5002C179.401 52.5002 179.632 52.4478 179.843 52.3469C179.843 52.3469 179.883 52.3469 179.872 52.381C179.78 52.503 179.657 52.5984 179.517 52.6573C179.376 52.7162 179.222 52.7365 179.071 52.7161C178.941 52.6811 178.825 52.6084 178.737 52.5072C178.649 52.4061 178.593 52.2811 178.577 52.1481C178.576 52.1404 178.577 52.1326 178.581 52.126C178.585 52.1194 178.591 52.1144 178.599 52.1117C178.606 52.1091 178.614 52.109 178.621 52.1115C178.629 52.114 178.635 52.1188 178.639 52.1254Z" fill="#263238"/>
<path id="Vector_182" d="M181.161 49.5921C181.251 50.0484 181.318 50.5091 181.36 50.9723C181.36 51.0121 181.258 51.0405 181.11 51.0518C180.732 51.139 180.337 51.1211 179.969 50.9999C179.6 50.8788 179.272 50.659 179.02 50.3646C178.986 50.3248 179.02 50.2737 179.082 50.3021C179.668 50.6585 180.353 50.8177 181.036 50.7565C181.064 50.6315 180.678 49.1661 180.752 49.1547C181.097 49.1698 181.439 49.2309 181.769 49.3365C181.456 47.3769 180.837 45.4855 180.553 43.5315C180.553 43.4634 180.644 43.435 180.667 43.4975C181.401 45.5087 181.932 47.5885 182.252 49.7057C182.252 49.9499 181.343 49.6603 181.161 49.5921Z" fill="#263238"/>
<path id="Vector_183" d="M180.979 50.8417C180.77 51.2126 180.469 51.5236 180.105 51.7448C179.9 51.8561 179.666 51.9017 179.434 51.8754C178.929 51.8186 178.866 51.3756 178.866 50.9837C178.887 50.7745 178.933 50.5686 179.003 50.3702C179.594 50.7358 180.287 50.9011 180.979 50.8417Z" fill="#263238"/>
<path id="Vector_184" d="M180.105 51.7391C179.9 51.8504 179.666 51.896 179.434 51.8698C178.929 51.813 178.866 51.3699 178.866 50.978C179.129 50.9402 179.397 50.9956 179.623 51.1346C179.849 51.2737 180.02 51.4875 180.105 51.7391Z" fill="#FF9ABB"/>
<path id="Vector_185" d="M178.639 37.3858C178.85 38.1838 178.816 39.0267 178.543 39.8054C177.571 41.9014 175.061 41.3674 174.214 42.2024C173.368 43.0374 173.715 44.5823 172.993 45.3605C171.999 46.4397 170.625 46.0307 170.466 46.7578C170.307 47.4848 170.431 49.0298 169.523 49.3081C168.614 49.5864 163.905 35.0002 176.157 34.7616C177.429 34.6623 178.708 34.8009 179.928 35.1706C183.422 36.1589 184.722 42.049 184.722 42.049C184.279 42.072 183.839 41.959 183.461 41.7253C182.893 41.2141 182.655 40.7426 182.229 40.4189C181.559 39.902 181.195 40.1008 180.525 39.601C179.764 38.9861 179.125 38.2349 178.639 37.3858Z" fill="#263238"/>
<path id="Vector_186" d="M178.452 36.7212C178.643 37.3168 178.765 37.9324 178.815 38.5558C178.898 39.1628 178.815 39.7809 178.577 40.345C178.267 40.8581 177.783 41.2431 177.213 41.4299C176.645 41.6401 176.021 41.7082 175.407 41.9582C175.093 42.0869 174.819 42.2966 174.612 42.5659C174.437 42.8482 174.321 43.1632 174.271 43.4918C174.208 44.0971 173.982 44.6742 173.618 45.1617C173.418 45.3861 173.172 45.564 172.896 45.6828C172.621 45.8015 172.322 45.8583 172.022 45.849C171.42 45.849 170.755 45.6899 170.165 45.9626C170.772 45.741 171.391 45.9626 172.016 45.9966C172.342 46.0206 172.669 45.9724 172.975 45.8556C173.28 45.7388 173.556 45.5562 173.783 45.3207C174.199 44.8176 174.46 44.2036 174.532 43.5542C174.581 43.2617 174.687 42.9818 174.845 42.7306C175.022 42.505 175.258 42.3321 175.526 42.2308C176.094 41.9922 176.708 41.9127 177.304 41.6628C177.611 41.549 177.899 41.388 178.156 41.1857C178.424 40.9902 178.639 40.7304 178.781 40.4302C179.014 39.8223 179.075 39.162 178.957 38.5218C178.856 37.9046 178.687 37.3007 178.452 36.7212Z" fill="#263238"/>
<path id="Vector_187" d="M178.685 37.2665C178.801 37.84 178.992 38.3957 179.253 38.9194C179.518 39.4676 179.939 39.9257 180.462 40.2371C180.728 40.368 181.006 40.4727 181.292 40.5495C181.546 40.6294 181.772 40.779 181.945 40.9812C182.094 41.2333 182.269 41.4694 182.467 41.6855C182.686 41.8887 182.948 42.0385 183.234 42.1229C182.98 41.9917 182.756 41.81 182.575 41.589C182.405 41.3572 182.257 41.11 182.132 40.8506C181.949 40.5886 181.689 40.3901 181.388 40.2826C181.12 40.2022 180.859 40.0976 180.61 39.9702C180.136 39.6829 179.745 39.2778 179.474 38.7944C179.178 38.303 178.914 37.7926 178.685 37.2665Z" fill="#263238"/>
<path id="Vector_188" d="M171.158 48.5697C171.158 48.5697 168.739 46.0023 167.546 46.9111C166.353 47.8199 168.472 51.7391 170.079 52.0799C170.282 52.1379 170.495 52.1544 170.704 52.1282C170.914 52.1021 171.116 52.034 171.298 51.9279C171.481 51.8218 171.64 51.68 171.766 51.5109C171.892 51.3418 171.983 51.149 172.033 50.9439L171.158 48.5697Z" fill="#D3766A"/>
<path id="Vector_189" d="M168.182 48.0358C168.154 48.0358 168.182 48.0698 168.182 48.0755C169.318 48.3538 170.028 49.257 170.573 50.2282C170.495 50.1305 170.397 50.0508 170.285 49.9947C170.173 49.9385 170.05 49.9072 169.925 49.9029C169.8 49.8986 169.675 49.9213 169.56 49.9697C169.444 50.018 169.34 50.0907 169.256 50.1828C169.256 50.1828 169.256 50.2453 169.295 50.2339C169.474 50.1468 169.676 50.1175 169.873 50.1501C170.069 50.1826 170.25 50.2754 170.392 50.4157C170.631 50.6482 170.842 50.9074 171.022 51.1882C171.085 51.2734 171.249 51.1882 171.198 51.0916C171.005 49.7057 169.665 47.9562 168.182 48.0358Z" fill="#263238"/>
<path id="Vector_190" d="M182.888 62.3721L176.963 78.1795C176.736 78.6396 176.929 79.0542 177.401 79.1054L185.79 80.0483C186.049 80.0571 186.305 79.9931 186.529 79.8636C186.753 79.734 186.936 79.5441 187.057 79.3155L192.981 63.5081C193.048 63.425 193.091 63.3245 193.104 63.2183C193.117 63.1121 193.099 63.0044 193.054 62.9076C193.008 62.8109 192.936 62.729 192.846 62.6714C192.755 62.6139 192.651 62.583 192.544 62.5823L184.149 61.6337C183.89 61.6251 183.635 61.6899 183.411 61.8206C183.188 61.9512 183.007 62.1425 182.888 62.3721Z" fill="#37474F"/>
<path id="Vector_191" d="M183.882 62.48L177.957 78.2818C177.89 78.3649 177.847 78.4653 177.835 78.5716C177.822 78.6778 177.839 78.7855 177.885 78.8822C177.931 78.979 178.003 79.0609 178.093 79.1184C178.183 79.176 178.288 79.2069 178.395 79.2076L186.796 80.1505C187.053 80.1596 187.309 80.0957 187.532 79.966C187.755 79.8364 187.937 79.6463 188.057 79.4178L193.981 63.6103C194.208 63.1502 194.015 62.7356 193.543 62.6845L185.148 61.7416C184.889 61.7326 184.633 61.7972 184.408 61.9278C184.184 62.0585 184.002 62.2499 183.882 62.48Z" fill="#455A64"/>
<path id="Vector_192" d="M186.103 63.4797C186.084 63.6214 186.025 63.7545 185.931 63.8622C185.837 63.9699 185.713 64.0472 185.575 64.0845C185.437 64.1217 185.291 64.1171 185.156 64.0713C185.021 64.0255 184.902 63.9406 184.815 63.8272C184.728 63.7139 184.676 63.5773 184.667 63.4347C184.658 63.2922 184.691 63.15 184.763 63.0264C184.835 62.9028 184.941 62.8032 185.07 62.7403C185.198 62.6774 185.342 62.654 185.483 62.6731C185.577 62.685 185.668 62.7154 185.75 62.7624C185.832 62.8095 185.904 62.8723 185.961 62.9473C186.019 63.0223 186.061 63.108 186.085 63.1994C186.109 63.2907 186.115 63.386 186.103 63.4797Z" fill="#263238"/>
<path id="Vector_193" d="M153.125 101.326C156.834 101.502 161.145 98.2356 172.215 88.5171C173.743 87.1766 167.16 73.8173 165.45 75.1691C163.297 76.8731 155.311 83.9447 154.794 84.5354C150.444 89.5225 150.608 101.206 153.125 101.326Z" fill="#D3766A"/>
<path id="Vector_194" d="M161.599 79.7358C161.599 79.7358 164.547 74.6977 166.91 72.5279C169.43 70.3378 172.443 68.7904 175.691 68.018C179.196 67.1774 188.25 67.5579 188.596 70.1878C188.909 72.562 179.673 71.7043 179.673 71.7043C179.673 71.7043 189.232 71.0284 189.079 73.9763C188.926 76.9242 178.276 75.2657 178.276 75.2657C178.276 75.2657 188.113 74.7886 187.477 77.7876C187 80.0596 177.253 79.1451 177.253 79.1451C177.253 79.1451 185.711 78.793 185.319 81.1445C184.887 83.7459 175.845 83.4676 175.845 83.4676C173.839 89.2782 170.511 91.2265 167.972 92.3284C167.359 92.6124 161.599 79.7358 161.599 79.7358Z" fill="#D3766A"/>
<path id="Vector_195" d="M176.35 71.7271C177.486 71.6078 178.622 71.4771 179.73 71.4544C180.837 71.4317 182.002 71.4544 183.109 71.5396C184.579 71.6254 186.034 71.875 187.449 72.2837C184.887 71.7157 180.854 71.7441 179.724 71.7668C178.594 71.7895 177.452 71.7668 176.35 71.7668V71.7271Z" fill="#263238"/>
<path id="Vector_196" d="M176.35 75.7996C177.787 75.7087 179.19 75.5611 180.65 75.5327C182.11 75.5043 183.45 75.6065 184.881 75.6747C184.989 75.6747 184.955 75.7371 184.842 75.7371C183.41 75.7371 182.081 75.8223 180.644 75.828C179.207 75.8337 177.776 75.7769 176.35 75.828V75.7996Z" fill="#263238"/>
<path id="Vector_197" d="M175.72 79.2928C177.921 79.0977 180.136 79.1301 182.331 79.3894C182.439 79.3894 182.382 79.4689 182.269 79.4689C180.07 79.3894 178.349 79.3155 175.731 79.3666C175.691 79.3666 175.674 79.2985 175.72 79.2928Z" fill="#263238"/>
<path id="Vector_198" d="M151.494 93.3338C151.627 90.6736 152.388 88.0828 153.715 85.7737C156.231 82.4906 160.23 79.4916 163.303 76.7141C164.233 75.069 165.431 73.5907 166.847 72.3405C168.262 71.0599 169.922 70.0802 171.727 69.4607C169.983 70.1834 168.388 71.2234 167.023 72.5279C165.647 73.8373 164.475 75.3461 163.547 77.0038C160.526 79.7983 156.555 82.7803 153.977 85.9611C152.627 88.2149 151.78 90.7337 151.494 93.3451V93.3338Z" fill="#263238"/>
</g>
<g id="freepik--speech-bubble--inject-7">
<path id="Vector_199" d="M137.766 30.3937C138.013 32.7614 138.913 35.014 140.366 36.8998C141.819 38.7856 143.767 40.2304 145.994 41.0729C148.22 41.9154 150.637 42.1225 152.975 41.671C155.312 41.2195 157.478 40.1272 159.231 38.5161L165.655 39.4817L162.44 33.9266C163.246 31.9708 163.55 29.8446 163.326 27.7411C162.971 24.3517 161.284 21.2419 158.637 19.0961C155.989 16.9502 152.598 15.944 149.208 16.2988C145.819 16.6535 142.709 18.3402 140.563 20.9878C138.417 23.6354 137.411 27.0269 137.766 30.4164V30.3937Z" fill="#F9F9F9"/>
<path id="Vector_200" d="M141.611 19.7778C143.747 17.6974 146.534 16.4162 149.504 16.1497C152.473 15.8831 155.444 16.6475 157.916 18.3142C160.388 19.9809 162.21 22.4482 163.077 25.3009C163.943 28.1537 163.8 31.2178 162.673 33.9778V33.7562L165.871 39.3226L166.109 39.7373L165.643 39.6634L159.219 38.6751L159.373 38.6297C157.587 40.2473 155.386 41.335 153.017 41.7707C152.43 41.8796 151.835 41.9404 151.239 41.9525C150.644 41.9838 150.048 41.9724 149.455 41.9184C148.27 41.8053 147.106 41.5281 145.996 41.0948C144.887 40.6757 143.843 40.1021 142.895 39.3908C142.419 39.0432 141.967 38.6637 141.543 38.2548C141.126 37.8337 140.737 37.3859 140.379 36.9143C138.453 34.4035 137.516 31.2728 137.747 28.1168C137.977 24.9608 139.358 21.9994 141.628 19.7948L141.611 19.7778ZM140.396 36.8689C141.106 37.8143 141.959 38.644 142.923 39.3283C143.868 40.034 144.911 40.5966 146.019 40.9982C147.124 41.4077 148.281 41.6619 149.455 41.7537C150.04 41.7934 150.626 41.7934 151.211 41.7537C151.797 41.7273 152.38 41.6551 152.954 41.5378C155.26 41.0757 157.391 39.9779 159.106 38.3684L159.168 38.3116H159.259L165.689 39.2147L165.462 39.5498L162.224 34.0062L162.167 33.9039L162.213 33.7846C162.925 32.0098 163.233 30.0987 163.116 28.1898C162.989 26.2782 162.432 24.42 161.486 22.7541C160.523 21.0946 159.211 19.6643 157.64 18.5622C156.055 17.4677 154.24 16.7508 152.335 16.4663C149.818 16.0793 147.244 16.4577 144.945 17.5524C142.646 18.6471 140.729 20.4075 139.443 22.6052C138.157 24.8029 137.561 27.3364 137.733 29.8769C137.905 32.4173 138.837 34.8475 140.407 36.8518L140.396 36.8689Z" fill="#263238"/>
<path id="Vector_201" d="M149.131 36.3747L143.639 30.8197L145.485 29.0021L148.688 32.2454L155.351 21.8055L157.532 23.1971L149.131 36.3747Z" fill="#23A65A"/>
</g>
<g id="freepik--Bags--inject-7">
<path id="Vector_202" d="M106.798 230.648H45.5793L54.5083 168.287H97.8751L106.798 230.648Z" fill="#37474F"/>
<path id="Vector_203" d="M97.8694 168.287L91.0705 230.648H106.798L97.8694 168.287Z" fill="#455A64"/>
<path id="Vector_204" d="M66.7203 172.587L64.8062 172.184C64.8062 172.127 65.9422 166.89 67.1122 161.602C68.3959 155.888 74.0191 153.258 78.7165 154.013C82.2324 154.581 86.1289 157.325 85.5325 163.186C84.902 169.434 84.3965 172.416 84.3965 172.541L82.4653 172.229C82.4653 172.229 82.9538 169.196 83.5729 162.993C84.0216 158.489 81.1873 156.399 78.3814 155.944C74.5814 155.331 70.0318 157.438 68.998 162.028C67.8393 167.282 66.7317 172.536 66.7203 172.587Z" fill="#263238"/>
<path id="Vector_205" d="M91.8997 230.171C93.155 229.273 94.4614 228.467 95.7622 227.632C97.0629 226.797 98.392 226.041 99.7382 225.28L99.9199 225.172L100.09 225.297C101.124 226.075 102.158 226.854 103.163 227.671C104.169 228.489 105.18 229.296 106.145 230.165C105.009 229.495 103.953 228.779 102.885 228.046C101.817 227.314 100.755 226.575 99.7098 225.814H100.056C98.7328 226.592 97.3866 227.342 96.0348 228.086C94.683 228.83 93.3027 229.529 91.8997 230.171Z" fill="#F9F9F9"/>
<path id="Vector_206" d="M99.8915 225.558C99.6246 221.582 99.4258 217.606 99.2383 213.63C99.0509 209.654 98.9146 205.678 98.7555 201.702C98.5965 197.726 98.5056 193.75 98.4204 189.774L98.3125 183.754C98.3125 181.766 98.2614 179.778 98.267 177.778C98.409 179.766 98.5056 181.754 98.6306 183.742L98.9259 189.712C99.1134 193.688 99.244 197.664 99.403 201.64C99.5621 205.616 99.653 209.592 99.7325 213.568C99.812 217.544 99.8915 221.571 99.8915 225.558Z" fill="#F9F9F9"/>
<path id="Vector_207" d="M68.3618 172.394C68.363 172.909 68.2112 173.412 67.9258 173.841C67.6404 174.27 67.2341 174.604 66.7586 174.802C66.283 174.999 65.7594 175.051 65.2543 174.951C64.7491 174.851 64.2851 174.603 63.9209 174.239C63.5568 173.875 63.3089 173.411 63.2087 172.906C63.1085 172.4 63.1605 171.877 63.3581 171.401C63.5557 170.926 63.89 170.519 64.3187 170.234C64.7473 169.949 65.2511 169.797 65.7661 169.798C66.4541 169.799 67.1134 170.073 67.5999 170.56C68.0864 171.046 68.3603 171.706 68.3618 172.394Z" fill="#263238"/>
<path id="Vector_208" d="M85.8506 172.394C85.8517 172.909 85.6999 173.412 85.4145 173.841C85.1291 174.27 84.7229 174.604 84.2473 174.802C83.7717 174.999 83.2482 175.051 82.743 174.951C82.2378 174.851 81.7738 174.603 81.4096 174.239C81.0455 173.875 80.7976 173.411 80.6974 172.906C80.5972 172.4 80.6492 171.877 80.8468 171.401C81.0444 170.926 81.3787 170.519 81.8074 170.234C82.2361 169.949 82.7398 169.797 83.2548 169.798C83.9428 169.799 84.6021 170.073 85.0886 170.56C85.5751 171.046 85.8491 171.706 85.8506 172.394Z" fill="#263238"/>
<path id="Vector_209" d="M75.4448 230.648H22.1948L29.9594 176.404H67.6802L75.4448 230.648Z" fill="#001ED2"/>
<path id="Vector_210" d="M67.6802 176.404L61.7617 230.648H75.4448L67.6802 176.404Z" fill="#3451FF"/>
<path id="Vector_211" d="M40.5866 180.147L38.9167 179.795C38.9167 179.749 39.8937 175.188 40.9274 170.593C42.0634 165.617 46.9312 163.334 51.0151 163.993C54.0766 164.487 57.4676 166.873 56.9564 171.945C56.3884 177.403 55.9908 179.977 55.9738 180.084L54.2698 179.812C54.2698 179.783 54.6901 177.176 55.2354 171.78C55.6273 167.861 53.1565 166.043 50.6914 165.646C47.3913 165.112 43.4323 166.947 42.5349 170.94C41.5579 175.552 40.5923 180.101 40.5866 180.147Z" fill="#263238"/>
<path id="Vector_212" d="M62.483 230.233C63.5793 229.455 64.7096 228.739 65.8456 228.029C66.9816 227.319 68.1176 226.638 69.299 225.979L69.4581 225.888L69.6001 225.996C70.5032 226.672 71.4006 227.348 72.2754 228.058C73.1501 228.768 74.0305 229.472 74.8711 230.227C73.9055 229.659 72.9626 229.023 72.0311 228.387C71.0996 227.751 70.1794 227.103 69.2706 226.445H69.5774C68.4414 227.12 67.2542 227.774 66.0728 228.41C64.8914 229.046 63.7042 229.676 62.483 230.233Z" fill="#F9F9F9"/>
<path id="Vector_213" d="M69.4354 226.217C69.2025 222.758 69.0264 219.299 68.8674 215.84C68.7083 212.381 68.589 208.916 68.447 205.451C68.305 201.987 68.2312 198.527 68.1574 195.063L68.0608 189.865C68.0608 188.133 68.0154 186.401 68.021 184.668C68.146 186.372 68.2312 188.127 68.3391 189.854L68.5947 195.046C68.7594 198.51 68.873 201.969 69.015 205.434C69.157 208.899 69.2309 212.358 69.299 215.823C69.3672 219.288 69.4354 222.753 69.4354 226.217Z" fill="#F9F9F9"/>
<path id="Vector_214" d="M42.0123 179.971C42.0123 180.42 41.8791 180.859 41.6294 181.233C41.3798 181.607 41.0249 181.898 40.6098 182.07C40.1946 182.242 39.7378 182.287 39.2971 182.199C38.8563 182.112 38.4515 181.895 38.1338 181.577C37.816 181.26 37.5996 180.855 37.512 180.414C37.4243 179.973 37.4693 179.517 37.6413 179.101C37.8132 178.686 38.1044 178.331 38.4781 178.082C38.8517 177.832 39.2909 177.699 39.7403 177.699C40.3429 177.699 40.9208 177.938 41.3469 178.364C41.7729 178.79 42.0123 179.368 42.0123 179.971Z" fill="#263238"/>
<path id="Vector_215" d="M57.2234 179.971C57.2234 180.42 57.0901 180.859 56.8405 181.233C56.5908 181.607 56.236 181.898 55.8208 182.07C55.4057 182.242 54.9488 182.287 54.5081 182.199C54.0674 182.112 53.6626 181.895 53.3448 181.577C53.0271 181.26 52.8107 180.855 52.723 180.414C52.6354 179.973 52.6803 179.517 52.8523 179.101C53.0243 178.686 53.3155 178.331 53.6891 178.082C54.0627 177.832 54.502 177.699 54.9514 177.699C55.5539 177.699 56.1318 177.938 56.5579 178.364C56.984 178.79 57.2234 179.368 57.2234 179.971Z" fill="#263238"/>
</g>
</g>
</g>
</svg>
