<svg width="30" height="30" viewBox="0 0 30 30" fill="none" xmlns="http://www.w3.org/2000/svg">
<g id="vuesax/linear/profile">
<g id="vuesax/linear/profile_2">
<g id="profile">
<path id="Vector" d="M15.2001 13.5875C15.0751 13.575 14.9251 13.575 14.7876 13.5875C11.8126 13.4875 9.45007 11.05 9.45007 8.05C9.45007 4.9875 11.9251 2.5 15.0001 2.5C18.0626 2.5 20.5501 4.9875 20.5501 8.05C20.5376 11.05 18.1751 13.4875 15.2001 13.5875Z" stroke="#455A64" stroke-width="1.875" stroke-linecap="round" stroke-linejoin="round"/>
<path id="Vector_2" d="M8.9499 18.2C5.9249 20.225 5.9249 23.525 8.9499 25.5375C12.3874 27.8375 18.0249 27.8375 21.4624 25.5375C24.4874 23.5125 24.4874 20.2125 21.4624 18.2C18.0374 15.9125 12.3999 15.9125 8.9499 18.2Z" stroke="#455A64" stroke-width="1.875" stroke-linecap="round" stroke-linejoin="round"/>
</g>
</g>
</g>
</svg>
