<svg width="30" height="30" viewBox="0 0 30 30" fill="none" xmlns="http://www.w3.org/2000/svg">
<g id="vuesax/linear/shop">
<g id="vuesax/linear/shop_2">
<g id="shop">
<path id="Vector" d="M3.76251 14.0249V19.6374C3.76251 25.2499 6.01251 27.4999 11.625 27.4999H18.3625C23.975 27.4999 26.225 25.2499 26.225 19.6374V14.0249" stroke="#BDBDBD" stroke-width="1.875" stroke-linecap="round" stroke-linejoin="round"/>
<path id="Vector_2" d="M15 15C17.2875 15 18.975 13.1375 18.75 10.85L17.925 2.5H12.0875L11.25 10.85C11.025 13.1375 12.7125 15 15 15Z" stroke="#BDBDBD" stroke-width="1.875" stroke-linecap="round" stroke-linejoin="round"/>
<path id="Vector_3" d="M22.8876 15C25.4126 15 27.2626 12.95 27.0126 10.4375L26.6626 7C26.2126 3.75 24.9626 2.5 21.6876 2.5H17.8751L18.7501 11.2625C18.9626 13.325 20.8251 15 22.8876 15Z" stroke="#BDBDBD" stroke-width="1.875" stroke-linecap="round" stroke-linejoin="round"/>
<path id="Vector_4" d="M7.04985 15C9.11235 15 10.9749 13.325 11.1749 11.2625L11.4499 8.5L12.0499 2.5H8.23735C4.96235 2.5 3.71235 3.75 3.26235 7L2.92485 10.4375C2.67485 12.95 4.52485 15 7.04985 15Z" stroke="#BDBDBD" stroke-width="1.875" stroke-linecap="round" stroke-linejoin="round"/>
<path id="Vector_5" d="M15 21.25C12.9125 21.25 11.875 22.2875 11.875 24.375V27.5H18.125V24.375C18.125 22.2875 17.0875 21.25 15 21.25Z" stroke="#BDBDBD" stroke-width="1.875" stroke-linecap="round" stroke-linejoin="round"/>
</g>
</g>
</g>
</svg>
