<svg width="245" height="247" viewBox="0 0 245 247" fill="none" xmlns="http://www.w3.org/2000/svg">
<g id="Group 38454">
<g id="freepik--background-simple--inject-35">
<path id="Vector" d="M240.528 127.081C234.739 148.682 220.99 172.78 199.236 181.607C166.371 194.951 164.941 222.607 104.106 225.883C95.2259 226.4 86.316 225.952 77.5329 224.545C73.2383 223.845 68.993 222.87 64.8232 221.626C28.0479 210.66 6.56005 180.876 1.86499 148.022C-4.31386 104.786 24.0027 81.1862 42.5339 67.1822C61.065 53.1782 80.3056 3.93696 140.085 0.249143C149.213 -0.34266 158.378 0.120704 167.4 1.63004C187.978 5.13374 209.498 15.1683 223.026 31.5983C224.04 32.833 225.019 34.0965 225.961 35.389C244.384 60.7488 248.423 97.627 240.528 127.081Z" fill="#29AAE1"/>
<path id="Vector_2" opacity="0.7" d="M240.528 127.081C234.739 148.682 220.99 172.78 199.236 181.607C166.371 194.951 164.941 222.607 104.106 225.883C95.2259 226.4 86.316 225.952 77.5329 224.545C73.2383 223.845 68.993 222.87 64.8232 221.626C28.0479 210.66 6.56005 180.876 1.86499 148.022C-4.31386 104.786 24.0027 81.1862 42.5339 67.1822C61.065 53.1782 80.3056 3.93696 140.085 0.249143C149.213 -0.34266 158.378 0.120704 167.4 1.63004C187.978 5.13374 209.498 15.1683 223.026 31.5983C224.04 32.833 225.019 34.0965 225.961 35.389C244.384 60.7488 248.423 97.627 240.528 127.081Z" fill="white"/>
</g>
<g id="freepik--Graphics--inject-35">
<path id="Vector_3" opacity="0.3" d="M32.8931 43.446V40.7074C32.8931 35.3074 29.0113 33.3947 25.0668 33.3947C24.0306 33.3777 23.0016 33.5562 22.0424 33.9193C21.0832 34.2824 20.2139 34.8225 19.4875 35.5067C18.7611 36.1909 18.1928 37.0049 17.8173 37.899C17.4417 38.7931 17.2667 39.7486 17.303 40.7074V43.446H16.176V58.6027H33.9158V43.446H32.8931ZM25.5677 51.7875V54.5358H23.8876V51.7875C23.4062 51.607 23.0075 51.2772 22.76 50.8546C22.5124 50.4319 22.4313 49.9427 22.5306 49.4707C22.6299 48.9988 22.9034 48.5735 23.3042 48.2677C23.705 47.962 24.2082 47.7948 24.7276 47.7948C25.247 47.7948 25.7502 47.962 26.1511 48.2677C26.5519 48.5735 26.8254 48.9988 26.9247 49.4707C27.024 49.9427 26.9429 50.4319 26.6953 50.8546C26.4477 51.2772 26.0491 51.607 25.5677 51.7875ZM30.4357 43.4605H19.6614V40.7218C19.6586 39.3981 20.2236 38.1275 21.2323 37.1892C22.241 36.251 23.6108 35.7218 25.0407 35.7179C28.0147 35.7179 30.4357 37.6016 30.4357 40.7074V43.4605Z" stroke="black" stroke-miterlimit="10"/>
<path id="Vector_4" opacity="0.3" d="M98.16 12.8019H45.989C41.9574 12.8019 38.6892 16.0689 38.6892 20.099C38.6892 24.1291 41.9574 27.3961 45.989 27.3961H98.16C102.192 27.3961 105.46 24.1291 105.46 20.099C105.46 16.0689 102.192 12.8019 98.16 12.8019Z" stroke="black" stroke-miterlimit="10"/>
<g id="Group" opacity="0.3">
<path id="Vector_5" d="M52.5738 19.4194L54.0955 21.0981L53.3645 21.6397L52.2272 19.6414L51.1063 21.6667L50.3752 21.1252L51.8861 19.4465L49.6604 18.9591L49.9312 18.0818L52.0269 19.0024L51.767 16.7334H52.6875L52.4439 19.0024L54.5396 18.0981L54.8103 18.9753L52.5738 19.4194Z" fill="black"/>
<path id="Vector_6" d="M58.2438 19.4194L59.7655 21.0981L59.0128 21.6667L57.881 19.6685L56.7762 21.6667L56.0452 21.1252L57.5506 19.4465L55.325 18.9591L55.6011 18.0818L57.6969 19.0024L57.4369 16.7334H58.3575L58.1138 19.0024L60.2096 18.0981L60.4803 18.9753L58.2438 19.4194Z" fill="black"/>
<path id="Vector_7" d="M63.8864 19.4194L65.4081 21.0981L64.677 21.6397L63.5452 19.6414L62.4459 21.6667L61.7203 21.1252L63.2257 19.4465L60.9946 18.9591L61.2708 18.0818L63.3665 19.0024L63.1066 16.7334H64.0272L63.7835 19.0024L65.8792 18.0981L66.15 18.9753L63.8864 19.4194Z" fill="black"/>
<path id="Vector_8" d="M69.578 19.4194L71.0997 21.0981L70.3849 21.6667L69.2476 19.6685L68.1158 21.6667L67.3848 21.1252L68.8902 19.4465L66.6646 18.9591L66.9353 18.0818L69.031 19.0024L68.7603 16.7334H69.6755L69.4318 19.0024L71.5275 18.0981L71.8037 18.9753L69.578 19.4194Z" fill="black"/>
<path id="Vector_9" d="M75.2587 19.4194L76.7804 21.0981L76.0494 21.6397L74.9122 19.6414L73.7858 21.6667L73.0493 21.1252L74.5602 19.4465L72.3345 18.9591L72.6052 18.0818L74.701 19.0024L74.441 16.7334H75.3616L75.1179 19.0024L77.2137 18.0981L77.4844 18.9753L75.2587 19.4194Z" fill="black"/>
<path id="Vector_10" d="M80.9176 19.4194L82.4393 21.0981L81.7028 21.6397L80.571 19.6414L79.4501 21.6667L78.719 21.1252L80.2245 19.4465L77.9988 18.9591L78.275 18.0818L80.3707 19.0024L80.1324 16.7334H81.053L80.8093 19.0024L82.905 18.0981L83.1758 18.9753L80.9176 19.4194Z" fill="black"/>
<path id="Vector_11" d="M86.5821 19.4194L88.1038 21.0981L87.3728 21.6397L86.241 19.6414L85.12 21.6667L84.3889 21.1252L85.8944 19.4465L83.6687 18.9591L83.9449 18.0818L86.0406 19.0024L85.7807 16.7334H86.7013L86.4576 19.0024L88.5533 18.0981L88.8241 18.9753L86.5821 19.4194Z" fill="black"/>
<path id="Vector_12" d="M92.2518 19.4194L93.7735 21.0981L93.0424 21.6397L91.9052 19.6414L90.7897 21.6667L90.0586 21.1252L91.5641 19.4465L89.3384 18.9591L89.6091 18.0818L91.7049 19.0024L91.4503 16.7334H92.3655L92.1218 19.0024L94.2121 18.0981L94.4883 18.9753L92.2518 19.4194Z" fill="black"/>
</g>
<path id="Vector_13" opacity="0.3" d="M30.6964 112.34C30.5299 111.975 30.27 111.661 29.9428 111.429C29.6156 111.197 29.2329 111.056 28.8335 111.019H27.6042V109.936C28.5534 108.74 29.0638 107.255 29.0501 105.728C29.0501 102.967 27.3876 100.725 25.3352 100.725C23.2828 100.725 21.6474 102.967 21.6474 105.728C21.636 107.2 22.1057 108.636 22.985 109.817V111.019H21.3604C20.9563 111.051 20.5676 111.188 20.2331 111.417C19.8986 111.646 19.6301 111.959 19.4542 112.324L17.2285 116.072H32.8625L30.6964 112.34Z" stroke="black" stroke-miterlimit="10"/>
<path id="Vector_14" opacity="0.3" d="M35.8953 113.949C38.3583 108.003 35.5346 101.186 29.5883 98.7229C23.6421 96.2599 16.825 99.0836 14.362 105.03C11.899 110.976 14.7227 117.793 20.669 120.256C26.6152 122.719 33.4323 119.895 35.8953 113.949Z" stroke="black" stroke-miterlimit="10"/>
</g>
<g id="freepik--Arrows--inject-35">
<g id="Group_2" opacity="0.2">
<path id="Vector_15" d="M112.261 160.163C98.5116 152.521 87.9524 140.208 82.4955 125.454C77.0385 110.7 77.0444 94.4803 82.5122 79.7304C87.9799 64.9804 98.548 52.6757 112.303 45.0437C126.059 37.4117 142.092 34.9569 157.501 38.1237L155.822 43.7556L174.537 39.2988L161.324 25.322L159.699 30.6993C154.621 29.6124 149.442 29.0679 144.249 29.0748C103.683 29.0748 70.6772 62.0756 70.6772 102.642C70.6881 116.144 74.4106 129.383 81.438 140.913C88.4653 152.442 98.5269 161.818 110.523 168.015L105.882 160.298L112.261 160.163Z" fill="black"/>
<path id="Vector_16" d="M171.413 34.2518L177.191 40.3656L170.097 42.0552C185.595 48.6573 197.974 60.9481 204.686 76.3991C211.399 91.85 211.934 109.286 206.183 125.12C200.431 140.953 188.83 153.981 173.766 161.522C158.702 169.063 141.321 170.543 125.198 165.659L127.484 161.517L108.254 161.89L118.191 178.358L121.397 172.553C128.778 174.972 136.498 176.202 144.266 176.198C184.832 176.198 217.838 143.197 217.838 102.625C217.82 87.8937 213.388 73.5055 205.112 61.3178C196.837 49.1301 185.099 39.7025 171.413 34.2518Z" fill="black"/>
</g>
</g>
<g id="freepik--device-2--inject-35">
<path id="Vector_17" d="M231.219 22.3327L218.818 19.9662V20.0095C218.201 21.2605 217.193 21.9536 216.256 21.7749L215.715 21.672C214.778 21.4987 214.09 20.4753 213.982 19.0835V19.0402L201.581 16.6737C200.76 16.5159 199.916 16.5216 199.097 16.6905C198.278 16.8594 197.5 17.1882 196.809 17.658C196.117 18.1278 195.525 18.7295 195.066 19.4285C194.607 20.1275 194.291 20.9101 194.135 21.7316L178.041 103.346C177.86 104.298 178.065 105.283 178.61 106.084C179.155 106.885 179.997 107.437 180.949 107.618L215.937 114.295C216.408 114.386 216.892 114.382 217.362 114.285C217.832 114.188 218.278 113.999 218.675 113.73C219.072 113.46 219.412 113.115 219.675 112.714C219.938 112.313 220.12 111.864 220.21 111.393L236.293 29.7896C236.452 28.9666 236.446 28.1204 236.276 27.2997C236.107 26.4789 235.777 25.6997 235.305 25.0068C234.834 24.3139 234.23 23.721 233.529 23.2621C232.828 22.8032 232.043 22.4873 231.219 22.3327Z" fill="#29AAE1" stroke="#263238" stroke-linecap="round" stroke-linejoin="round"/>
<path id="Vector_18" d="M235.947 31.5983L236.293 29.7787C236.45 28.9566 236.443 28.1115 236.273 27.292C236.103 26.4724 235.773 25.6945 235.301 25.0029C234.83 24.3112 234.227 23.7193 233.526 23.2611C232.826 22.8029 232.042 22.4874 231.219 22.3327L218.818 19.9662V20.0095C218.201 21.2605 217.194 21.9536 216.257 21.7749L215.715 21.672C214.778 21.4987 214.091 20.4753 213.982 19.0835V19.0402L201.581 16.6737C200.76 16.5159 199.916 16.5216 199.097 16.6905C198.278 16.8594 197.501 17.1882 196.809 17.658C196.117 18.1278 195.525 18.7295 195.066 19.4285C194.608 20.1275 194.291 20.9101 194.135 21.7316L193.783 23.5566L235.947 31.5983Z" fill="white" stroke="#263238" stroke-linecap="round" stroke-linejoin="round"/>
<path id="Vector_19" d="M233.228 57.7326L234.739 49.8262L234.024 49.6909L238.535 28.7066C238.849 27.0479 238.493 25.3324 237.543 23.9365C236.594 22.5405 235.13 21.5782 233.472 21.2605L199.897 14.8488C198.238 14.5332 196.522 14.8893 195.126 15.8388C193.729 16.7883 192.767 18.2535 192.451 19.9121L175.902 103.898C175.744 104.719 175.75 105.563 175.919 106.382C176.088 107.201 176.416 107.979 176.886 108.67C177.356 109.362 177.958 109.954 178.657 110.413C179.356 110.872 180.138 111.188 180.96 111.344L214.535 117.756C215.358 117.917 216.205 117.914 217.027 117.746C217.849 117.579 218.63 117.251 219.325 116.781C220.02 116.311 220.615 115.708 221.076 115.008C221.538 114.307 221.856 113.522 222.013 112.698L231.219 64.3501L231.934 64.4909L232.827 59.8066L232.113 59.6712L232.508 57.5972L233.228 57.7326ZM220.887 107.857C220.568 109.515 219.604 110.979 218.207 111.927C216.81 112.875 215.094 113.23 213.435 112.914L183.776 107.255C182.118 106.938 180.654 105.975 179.706 104.579C178.757 103.183 178.402 101.467 178.718 99.8094L194.13 21.7317C194.286 20.9102 194.602 20.1276 195.061 19.4285C195.52 18.7295 196.112 18.1279 196.804 17.6581C197.495 17.1882 198.273 16.8595 199.092 16.6906C199.911 16.5217 200.755 16.516 201.576 16.6738L213.977 19.0403V19.0836C214.096 20.4753 214.773 21.4988 215.71 21.6721L216.251 21.775C217.183 21.9537 218.195 21.2335 218.813 20.0096V19.9663L231.219 22.3328C232.043 22.4874 232.828 22.8033 233.529 23.2622C234.23 23.7211 234.834 24.314 235.306 25.0069C235.777 25.6997 236.107 26.479 236.277 27.2997C236.446 28.1205 236.452 28.9667 236.293 29.7896L220.887 107.857Z" fill="#707070" stroke="#263238" stroke-linecap="round" stroke-linejoin="round"/>
<path id="Vector_20" d="M232.21 21.932L200.801 15.9373C199.044 15.6025 197.226 15.9792 195.747 16.9845C194.267 17.9898 193.247 19.5415 192.911 21.2984L176.86 102.804C176.694 103.674 176.701 104.569 176.88 105.436C177.059 106.304 177.408 107.127 177.906 107.86C178.404 108.593 179.041 109.22 179.782 109.707C180.522 110.193 181.351 110.528 182.221 110.694L213.63 116.683C214.5 116.85 215.395 116.843 216.262 116.664C217.13 116.485 217.954 116.136 218.686 115.638C219.419 115.14 220.047 114.503 220.533 113.762C221.019 113.022 221.355 112.193 221.52 111.322L237.571 29.8167C237.906 28.0602 237.529 26.2427 236.524 24.764C235.518 23.2854 233.967 22.2667 232.21 21.932ZM220.887 107.857C220.568 109.515 219.604 110.978 218.207 111.927C216.81 112.875 215.094 113.23 213.435 112.914L183.776 107.255C182.118 106.938 180.654 105.975 179.706 104.579C178.757 103.183 178.402 101.467 178.718 99.8094L194.13 21.7316C194.286 20.9102 194.602 20.1275 195.061 19.4285C195.52 18.7295 196.112 18.1279 196.803 17.658C197.495 17.1882 198.273 16.8594 199.092 16.6905C199.91 16.5216 200.755 16.5159 201.576 16.6738L213.977 19.0402V19.0836C214.096 20.4753 214.773 21.4988 215.71 21.6721L216.251 21.775C217.183 21.9537 218.195 21.2334 218.813 20.0096V19.9663L231.219 22.3327C232.043 22.4874 232.828 22.8032 233.529 23.2621C234.23 23.721 234.834 24.3139 235.306 25.0068C235.777 25.6997 236.107 26.4789 236.277 27.2997C236.446 28.1205 236.452 28.9666 236.293 29.7896L220.887 107.857Z" fill="#263238" stroke="#263238" stroke-linecap="round" stroke-linejoin="round"/>
<path id="Vector_21" d="M216.803 19.8905C216.826 19.7748 216.814 19.6551 216.768 19.5465C216.722 19.4379 216.646 19.3452 216.547 19.2802C216.449 19.2151 216.334 19.1807 216.216 19.1812C216.098 19.1817 215.983 19.2172 215.886 19.283C215.788 19.3489 215.712 19.4422 215.667 19.5513C215.623 19.6603 215.612 19.7801 215.635 19.8956C215.658 20.011 215.716 20.1169 215.799 20.1999C215.883 20.2828 215.989 20.3391 216.105 20.3616C216.182 20.3773 216.261 20.3775 216.338 20.3622C216.415 20.347 216.488 20.3165 216.553 20.2726C216.618 20.2288 216.674 20.1724 216.717 20.1068C216.76 20.0412 216.789 19.9676 216.803 19.8905Z" fill="#707070"/>
<path id="Vector_22" d="M198.581 18.7424C198.467 19.3381 197.758 19.4247 197.671 19.8742V19.9067L198.315 20.0312L198.278 20.2316L197.411 20.0421L197.444 19.8742C197.563 19.2406 198.256 19.2406 198.359 18.6882C198.397 18.4879 198.359 18.3633 198.191 18.3363C198.023 18.3092 197.936 18.4067 197.904 18.5799L197.871 18.7532L197.666 18.7153V18.5529C197.725 18.255 197.899 18.0817 198.207 18.1359C198.277 18.1408 198.344 18.1622 198.403 18.1983C198.463 18.2344 198.513 18.2841 198.55 18.3433C198.586 18.4026 198.608 18.4697 198.613 18.5391C198.619 18.6085 198.608 18.6782 198.581 18.7424Z" fill="#263238"/>
<path id="Vector_23" d="M199.659 18.9591V19.0078C199.65 19.0936 199.615 19.1744 199.557 19.2387C199.5 19.3029 199.423 19.3472 199.339 19.3652C199.412 19.4131 199.467 19.4833 199.497 19.5654C199.526 19.6475 199.528 19.7369 199.502 19.8201L199.475 19.9717C199.415 20.275 199.236 20.4429 198.933 20.3887C198.63 20.3346 198.527 20.1071 198.586 19.8039V19.6685L198.792 19.7064L198.76 19.858C198.727 20.0367 198.76 20.1558 198.938 20.1829C199.117 20.21 199.188 20.1234 199.225 19.923L199.258 19.7714C199.29 19.5818 199.258 19.4735 199.063 19.4356H198.944L198.982 19.2407H199.112C199.146 19.2469 199.181 19.2457 199.215 19.2373C199.248 19.2289 199.28 19.2134 199.307 19.1919C199.334 19.1704 199.356 19.1433 199.372 19.1125C199.388 19.0817 199.397 19.0478 199.399 19.0132V18.9212C199.437 18.7208 199.399 18.6017 199.225 18.5746C199.052 18.5475 198.971 18.6396 198.938 18.8183V18.9157L198.733 18.8778V18.7858C198.787 18.4879 198.966 18.3201 199.274 18.3742C199.583 18.4284 199.718 18.645 199.659 18.9591Z" fill="#263238"/>
<path id="Vector_24" d="M200.06 19.1757L200.005 19.4518L199.794 19.4085L199.848 19.1378L200.06 19.1757ZM199.854 20.2587L199.8 20.5349L199.588 20.4916L199.643 20.2208L199.854 20.2587Z" fill="#263238"/>
<path id="Vector_25" d="M200.471 19.441C200.508 19.3939 200.558 19.3586 200.615 19.3394C200.672 19.3201 200.733 19.3178 200.791 19.3327C201.045 19.3815 201.121 19.5872 201.067 19.8743L200.997 20.2587C200.937 20.562 200.758 20.7299 200.455 20.6703C200.152 20.6107 200.054 20.3941 200.108 20.0909L200.136 19.9555L200.341 19.9988L200.314 20.145C200.276 20.3183 200.314 20.4429 200.488 20.4699C200.661 20.497 200.742 20.4104 200.775 20.2317L200.845 19.8472C200.883 19.6739 200.845 19.5493 200.672 19.5223C200.643 19.5151 200.614 19.5138 200.585 19.5184C200.556 19.5231 200.528 19.5336 200.503 19.5493C200.478 19.565 200.457 19.5855 200.44 19.6098C200.424 19.634 200.412 19.6613 200.406 19.6901V19.7335L200.201 19.6955L200.46 18.6125L201.24 18.7587L201.202 18.9537L200.623 18.8453L200.471 19.441Z" fill="#263238"/>
<path id="Vector_26" d="M202.285 19.4464V19.5005L202.08 19.4626V19.4139C202.112 19.2352 202.08 19.1161 201.895 19.089C201.711 19.0619 201.635 19.1486 201.598 19.3597L201.511 19.7984C201.547 19.7379 201.602 19.6909 201.668 19.6646C201.733 19.6382 201.806 19.6338 201.874 19.6522C202.123 19.7009 202.204 19.9013 202.15 20.1937L202.09 20.4915C202.088 20.5566 202.071 20.6204 202.042 20.6783C202.012 20.7361 201.969 20.7866 201.917 20.826C201.865 20.8654 201.806 20.8928 201.742 20.9061C201.678 20.9194 201.612 20.9184 201.549 20.9031C201.484 20.8939 201.422 20.8705 201.367 20.8345C201.312 20.7985 201.266 20.7509 201.232 20.695C201.198 20.6391 201.177 20.5763 201.17 20.5112C201.163 20.4461 201.17 20.3802 201.191 20.3183L201.386 19.3164C201.446 19.0023 201.625 18.8345 201.928 18.894C201.99 18.9024 202.049 18.9241 202.102 18.9575C202.155 18.991 202.2 19.0355 202.234 19.088C202.268 19.1405 202.29 19.1997 202.299 19.2615C202.308 19.3234 202.303 19.3865 202.285 19.4464ZM201.468 20.0421L201.408 20.3345C201.376 20.5132 201.408 20.6323 201.587 20.6648C201.765 20.6973 201.841 20.6053 201.879 20.4266L201.933 20.1287C201.966 19.9554 201.933 19.8309 201.755 19.8038C201.576 19.7767 201.5 19.8742 201.468 20.0421Z" fill="#263238"/>
<path id="Vector_27" d="M223.778 23.6432L223.22 23.5366L222.955 24.9249L223.513 25.0315L223.778 23.6432Z" fill="#263238"/>
<path id="Vector_28" d="M224.579 23.4955L224.021 23.389L223.702 25.0593L224.26 25.1658L224.579 23.4955Z" fill="#263238"/>
<path id="Vector_29" d="M225.356 23.433L224.798 23.3264L224.442 25.1935L225 25.3001L225.356 23.433Z" fill="#263238"/>
<path id="Vector_30" d="M226.172 23.2361L225.613 23.1296L225.191 25.3424L225.75 25.449L226.172 23.2361Z" fill="#263238"/>
<path id="Vector_31" d="M232.632 26.7246L229.296 26.091L229.681 24.0494L233.022 24.6884L232.632 26.7246ZM229.513 25.9394L232.481 26.4809L232.8 24.8076L229.832 24.2661L229.513 25.9394Z" fill="#263238"/>
<path id="Vector_32" d="M231.84 24.8477L230.079 24.5118L229.838 25.7779L231.598 26.1137L231.84 24.8477Z" fill="#263238"/>
<path id="Vector_33" d="M232.503 26.0812L232.084 25.9999L231.991 26.4775L232.411 26.5588L232.503 26.0812Z" fill="#263238"/>
<path id="Vector_34" d="M228.154 25.414C228.132 25.4087 228.111 25.3975 228.094 25.3816C227.952 25.2276 227.766 25.1223 227.561 25.0805C227.356 25.0387 227.142 25.0626 226.952 25.1487C226.938 25.1575 226.922 25.1633 226.905 25.1659C226.889 25.1684 226.872 25.1677 226.856 25.1636C226.84 25.1596 226.825 25.1524 226.811 25.1424C226.798 25.1324 226.787 25.1198 226.778 25.1054C226.77 25.0912 226.764 25.0754 226.761 25.059C226.759 25.0425 226.759 25.0257 226.763 25.0096C226.768 24.9934 226.775 24.9782 226.785 24.9649C226.795 24.9516 226.807 24.9405 226.822 24.9321C227.058 24.8153 227.326 24.7775 227.585 24.8243C227.844 24.8711 228.082 25 228.262 25.192C228.274 25.2036 228.284 25.2175 228.29 25.2329C228.297 25.2482 228.3 25.2647 228.3 25.2814C228.3 25.298 228.297 25.3145 228.29 25.3299C228.284 25.3452 228.274 25.3591 228.262 25.3707C228.249 25.3859 228.232 25.3977 228.213 25.4052C228.194 25.4127 228.174 25.4158 228.154 25.414Z" fill="#263238"/>
<path id="Vector_35" d="M228.511 25.0404C228.492 25.0455 228.471 25.0455 228.452 25.0404C228.249 24.8234 227.983 24.6749 227.692 24.6157C227.401 24.5565 227.099 24.5895 226.827 24.7101C226.813 24.7186 226.797 24.7243 226.781 24.7267C226.764 24.7292 226.748 24.7284 226.731 24.7243C226.715 24.7203 226.7 24.7132 226.687 24.7033C226.674 24.6934 226.662 24.681 226.654 24.6668C226.645 24.6526 226.64 24.6368 226.637 24.6204C226.635 24.604 226.635 24.5873 226.64 24.5712C226.644 24.5551 226.651 24.5399 226.661 24.5266C226.67 24.5133 226.683 24.502 226.697 24.4935C227.018 24.3414 227.378 24.2941 227.727 24.3582C228.076 24.4224 228.396 24.5948 228.641 24.8509C228.653 24.8625 228.663 24.8764 228.669 24.8918C228.676 24.9071 228.679 24.9236 228.679 24.9403C228.679 24.9569 228.676 24.9734 228.669 24.9888C228.663 25.0041 228.653 25.018 228.641 25.0296C228.623 25.0439 228.601 25.0525 228.578 25.0544C228.555 25.0563 228.532 25.0515 228.511 25.0404Z" fill="#263238"/>
<path id="Vector_36" d="M228.809 24.6018C228.786 24.5954 228.764 24.5843 228.744 24.5693C228.484 24.2852 228.14 24.092 227.761 24.0179C227.383 23.9439 226.991 23.9928 226.643 24.1577C226.614 24.1735 226.579 24.1773 226.547 24.1682C226.514 24.1591 226.487 24.1379 226.47 24.109C226.461 24.0948 226.455 24.0791 226.453 24.0626C226.45 24.0461 226.451 24.0293 226.455 24.0132C226.459 23.997 226.466 23.9818 226.476 23.9685C226.486 23.9552 226.499 23.9441 226.513 23.9357C226.909 23.7484 227.354 23.6905 227.784 23.7702C228.215 23.8499 228.61 24.0632 228.912 24.3797C228.924 24.3914 228.934 24.4052 228.94 24.4206C228.947 24.4359 228.95 24.4524 228.95 24.4691C228.95 24.4858 228.947 24.5023 228.94 24.5176C228.934 24.533 228.924 24.5468 228.912 24.5584C228.9 24.5735 228.884 24.5854 228.866 24.5929C228.848 24.6005 228.829 24.6035 228.809 24.6018Z" fill="#263238"/>
<path id="Vector_37" d="M227.737 25.5494C227.73 25.5905 227.715 25.6297 227.692 25.6647C227.67 25.6998 227.641 25.7301 227.606 25.7538C227.572 25.7775 227.533 25.7941 227.493 25.8027C227.452 25.8113 227.41 25.8117 227.369 25.8039C227.286 25.7881 227.212 25.7399 227.164 25.6698C227.117 25.5998 227.099 25.5136 227.114 25.4303C227.13 25.347 227.179 25.2734 227.249 25.2256C227.319 25.1779 227.405 25.16 227.488 25.1758C227.529 25.1835 227.568 25.1994 227.603 25.2225C227.638 25.2456 227.668 25.2754 227.691 25.3102C227.714 25.345 227.731 25.3841 227.738 25.4252C227.746 25.4663 227.746 25.5085 227.737 25.5494Z" fill="#263238"/>
<path id="Vector_38" d="M224.985 54.1185L195.6 48.5131C194.032 48.2139 192.517 49.243 192.218 50.8118L187.513 75.4777C187.213 77.0465 188.243 78.5609 189.811 78.8602L219.196 84.4655C220.764 84.7648 222.279 83.7356 222.578 82.1668L227.283 57.5009C227.582 55.9321 226.553 54.4177 224.985 54.1185Z" fill="white" stroke="#263238" stroke-miterlimit="10"/>
<path id="Vector_39" d="M201.023 44.8387L200.644 41.947L201.137 42.039L201.397 44.2485L202.48 42.2935L202.929 42.3748L201.489 44.9525L201.202 46.4741L200.731 46.3875L201.023 44.8387Z" fill="#263238"/>
<path id="Vector_40" d="M202.93 43.4416C202.94 43.3015 202.98 43.1652 203.047 43.0417C203.114 42.9181 203.206 42.8101 203.318 42.7248C203.43 42.6394 203.558 42.5786 203.695 42.5464C203.831 42.5141 203.973 42.5112 204.111 42.5377C204.249 42.5642 204.38 42.6196 204.495 42.7002C204.61 42.7809 204.707 42.8849 204.779 43.0056C204.851 43.1262 204.897 43.2607 204.913 43.4003C204.929 43.5398 204.916 43.6812 204.874 43.8153L204.457 45.9814C204.446 46.1215 204.406 46.2578 204.339 46.3813C204.272 46.5049 204.18 46.6129 204.069 46.6982C203.957 46.7836 203.829 46.8444 203.692 46.8766C203.555 46.9089 203.413 46.9118 203.275 46.8853C203.137 46.8588 203.006 46.8034 202.891 46.7228C202.776 46.6421 202.68 46.5381 202.608 46.4174C202.536 46.2968 202.49 46.1623 202.474 46.0227C202.457 45.8832 202.471 45.7417 202.513 45.6077L202.93 43.4416ZM202.973 45.7485C202.897 46.1384 203.022 46.3929 203.358 46.4579C203.693 46.5229 203.899 46.328 203.98 45.9164L204.408 43.6745C204.478 43.29 204.365 43.03 204.024 42.9651C203.682 42.9001 203.482 43.1004 203.401 43.5066L202.973 45.7485Z" fill="#263238"/>
<path id="Vector_41" d="M205.35 46.2034C205.28 46.5879 205.383 46.8424 205.729 46.9128C206.076 46.9832 206.271 46.772 206.341 46.3712L206.959 43.1221L207.403 43.2087L206.785 46.4254C206.661 47.0698 206.282 47.4435 205.632 47.3135C204.982 47.1835 204.765 46.707 204.89 46.0626L205.502 42.8459L205.968 42.9325L205.35 46.2034Z" fill="#263238"/>
<path id="Vector_42" d="M208.816 43.5012C208.95 43.508 209.081 43.5464 209.197 43.6132C209.314 43.68 209.413 43.7734 209.487 43.8857C209.561 43.9981 209.607 44.1262 209.622 44.2598C209.637 44.3934 209.621 44.5287 209.574 44.6546L209.509 45.0012C209.417 45.4669 209.2 45.7269 208.816 45.7702C208.983 45.8649 209.111 46.016 209.178 46.1964C209.244 46.3769 209.244 46.5751 209.179 46.7558L209.054 47.4164C209.008 47.594 209.008 47.7804 209.054 47.958L208.577 47.8713C208.534 47.6935 208.534 47.5076 208.577 47.3298L208.702 46.6637C208.794 46.1817 208.599 45.9868 208.204 45.911L207.873 45.8514L207.527 47.6601L207.05 47.5735L207.863 43.3279L208.816 43.5012ZM208.312 45.494C208.686 45.5644 208.935 45.494 209.021 45.0229L209.097 44.6167C209.173 44.2376 209.097 44.0102 208.718 43.9398L208.258 43.8532L207.96 45.4236L208.312 45.494Z" fill="#263238"/>
<path id="Vector_43" d="M212.872 45.3424L212.801 45.7214L212.352 45.6348L212.428 45.2286C212.504 44.8496 212.395 44.5896 212.049 44.5247C211.702 44.4597 211.507 44.66 211.437 45.0662L211.009 47.3081C210.933 47.6926 211.047 47.9525 211.388 48.0175C211.729 48.0825 211.93 47.8821 212 47.476L212.108 46.9345L212.558 47.0157L212.455 47.5572C212.33 48.1962 211.951 48.5645 211.296 48.4399C210.641 48.3154 210.424 47.8334 210.549 47.189L210.966 45.0229C211.085 44.3839 211.469 44.0156 212.119 44.1402C212.252 44.1606 212.379 44.2095 212.492 44.2835C212.604 44.3575 212.699 44.4549 212.771 44.5689C212.842 44.683 212.888 44.8112 212.906 44.9446C212.923 45.0781 212.912 45.2137 212.872 45.3424Z" fill="#263238"/>
<path id="Vector_44" d="M213.267 45.4128C213.281 45.2752 213.324 45.142 213.392 45.0217C213.46 44.9013 213.553 44.7965 213.663 44.7139C213.774 44.6313 213.901 44.5726 214.036 44.5417C214.171 44.5108 214.311 44.5083 214.446 44.5343C214.582 44.5603 214.711 44.6143 214.825 44.6929C214.939 44.7715 215.035 44.8729 215.107 44.9907C215.18 45.1084 215.227 45.24 215.246 45.377C215.265 45.514 215.255 45.6534 215.217 45.7864L214.795 47.9525C214.777 48.0864 214.733 48.2153 214.664 48.3313C214.595 48.4474 214.503 48.5481 214.393 48.6273C214.284 48.7065 214.16 48.7626 214.028 48.792C213.896 48.8215 213.76 48.8237 213.627 48.7986C213.495 48.7735 213.369 48.7215 213.257 48.6459C213.145 48.5703 213.05 48.4727 212.977 48.359C212.904 48.2453 212.856 48.1179 212.834 47.9847C212.812 47.8515 212.818 47.7152 212.85 47.5843L213.267 45.4128ZM213.311 47.7251C213.24 48.1096 213.359 48.3641 213.701 48.4291C214.042 48.4941 214.242 48.3045 214.318 47.8876L214.746 45.6456C214.822 45.2611 214.708 45.0012 214.361 44.9362C214.015 44.8712 213.82 45.0716 213.739 45.4778L213.311 47.7251Z" fill="#263238"/>
<path id="Vector_45" d="M216.852 45.039C216.991 45.0542 217.125 45.1009 217.243 45.1756C217.362 45.2503 217.462 45.351 217.535 45.47C217.609 45.589 217.654 45.7233 217.668 45.8626C217.682 46.0018 217.664 46.1425 217.616 46.2737L217.21 48.4398C217.085 49.0843 216.706 49.4308 216.045 49.3009L215.049 49.1113L215.861 44.8712L216.852 45.039ZM216.121 48.8297C216.462 48.8947 216.663 48.7106 216.738 48.3207L217.155 46.1546C217.226 45.7647 217.107 45.521 216.76 45.456L216.251 45.3585L215.607 48.7431L216.121 48.8297Z" fill="#263238"/>
<path id="Vector_46" d="M219.413 47.476L219.332 47.8984L218.293 47.6981L218.005 49.2089L219.278 49.4526L219.197 49.8804L217.453 49.5501L218.26 45.3045L220.009 45.6403L219.923 46.0681L218.65 45.8244L218.374 47.2757L219.413 47.476Z" fill="#263238"/>
<path id="Vector_47" d="M197.763 62.0268C197.92 61.8389 198.127 61.6987 198.359 61.6221C198.592 61.5455 198.841 61.5357 199.079 61.5936C200.108 61.7885 200.422 62.6333 200.2 63.7597L199.902 65.3247C199.669 66.5486 198.933 67.2363 197.709 67.0035C196.485 66.7706 196.084 65.8609 196.301 64.637L196.404 64.0955L197.238 64.2525L197.124 64.8482C196.989 65.5684 197.2 66.0612 197.839 66.1804C198.478 66.2995 198.862 65.9258 198.998 65.2056L199.296 63.6514C199.437 62.9312 199.22 62.4384 198.581 62.3193C198.465 62.2881 198.343 62.2813 198.225 62.2992C198.106 62.3172 197.992 62.3596 197.89 62.4236C197.789 62.4877 197.701 62.5721 197.634 62.6716C197.566 62.7711 197.52 62.8834 197.498 63.0016L197.46 63.1857L196.626 63.0287L197.709 58.6206L200.866 59.2217L200.715 60.0232L198.359 59.5737L197.763 62.0268Z" fill="#263238"/>
<path id="Vector_48" d="M205.139 62.0485V62.2001L204.305 62.0376L204.343 61.8318C204.484 61.1116 204.267 60.6351 203.612 60.5105C202.957 60.386 202.529 60.7596 202.393 61.5936L202.052 63.3915C202.195 63.1442 202.414 62.9505 202.677 62.84C202.941 62.7295 203.233 62.7082 203.509 62.7795C204.538 62.9745 204.852 63.803 204.63 64.9456L204.402 66.1587C204.17 67.3825 203.406 68.0648 202.188 67.832C200.969 67.5991 200.498 66.6785 200.731 65.4547L201.511 61.3715C201.749 60.1044 202.475 59.422 203.742 59.6657C205.009 59.9094 205.372 60.8246 205.139 62.0485ZM201.814 64.5232L201.587 65.72C201.446 66.4403 201.662 66.9331 202.312 67.0576C202.962 67.1822 203.346 66.8031 203.482 66.0829L203.709 64.8807C203.85 64.1604 203.623 63.6676 202.984 63.5485C202.345 63.4294 201.976 63.803 201.814 64.5232Z" fill="#263238"/>
<path id="Vector_49" d="M209.59 62.8988L209.563 63.0504L208.724 62.888L208.767 62.6822C208.903 61.962 208.686 61.4854 208.036 61.3609C207.386 61.2363 206.98 61.61 206.818 62.4439L206.471 64.2364C206.616 63.9914 206.836 63.7999 207.098 63.6906C207.361 63.5812 207.652 63.5599 207.928 63.6299C208.957 63.8248 209.276 64.6534 209.054 65.796L208.821 67.0036C208.588 68.2274 207.83 68.9152 206.606 68.6823C205.383 68.4495 204.917 67.5289 205.15 66.305L205.93 62.2815C206.173 61.0143 206.893 60.3319 208.166 60.5756C209.439 60.8193 209.823 61.6749 209.59 62.8988ZM206.26 65.3682L206.032 66.5704C205.897 67.2906 206.108 67.7834 206.764 67.9079C207.419 68.0325 207.792 67.6534 207.933 66.9332L208.161 65.731C208.296 65.0108 208.074 64.518 207.43 64.3934C206.785 64.2689 206.401 64.6479 206.26 65.3682Z" fill="#263238"/>
<path id="Vector_50" d="M214.036 63.7597L213.257 67.8429C213.013 69.11 212.293 69.8032 211.009 69.5595C209.726 69.3158 209.352 68.4223 209.585 67.2039L209.618 67.0522L210.452 67.2093L210.408 67.4205C210.273 68.1407 210.5 68.6227 211.139 68.7418C211.778 68.8609 212.222 68.4981 212.369 67.6587L212.71 65.8663C212.566 66.1101 212.346 66.3003 212.084 66.4078C211.822 66.5153 211.532 66.5343 211.258 66.462C210.23 66.267 209.91 65.4493 210.132 64.2958L210.365 63.072C210.598 61.8481 211.345 61.1712 212.58 61.4041C213.814 61.6369 214.269 62.5359 214.036 63.7597ZM211.253 63.1803L211.026 64.3825C210.89 65.1027 211.112 65.5955 211.757 65.7201C212.401 65.8446 212.786 65.4655 212.921 64.7453L213.154 63.5431C213.295 62.812 213.078 62.3301 212.423 62.2055C211.767 62.081 211.394 62.4492 211.253 63.1803Z" fill="#263238"/>
<path id="Vector_51" d="M218.569 64.5884L218.52 64.8429C218.368 65.6552 217.978 66.1913 217.291 66.3158C217.908 66.7003 218.038 67.3989 217.886 68.1787L217.773 68.7744C217.534 70.0091 216.749 70.6535 215.504 70.399C214.258 70.1445 213.76 69.2726 213.998 68.0379L214.112 67.4422C214.264 66.6299 214.653 66.0721 215.363 65.9259C214.756 65.5523 214.594 64.9187 214.751 64.1064L214.794 63.8519C215.033 62.6172 215.823 61.9998 217.063 62.2273C218.303 62.4547 218.807 63.3645 218.569 64.5884ZM215.672 64.0468L215.601 64.4313C215.449 65.2111 215.764 65.6281 216.392 65.7472C217.02 65.8664 217.475 65.5956 217.61 64.8158L217.681 64.4476C217.838 63.6244 217.534 63.175 216.901 63.0558C216.267 62.9367 215.829 63.2345 215.672 64.0631V64.0468ZM215.011 67.5072L214.881 68.1841C214.724 69.0072 215.016 69.4675 215.655 69.5867C216.294 69.7058 216.738 69.3917 216.895 68.5686L217.025 67.8917C217.172 67.1173 216.901 66.6732 216.24 66.5487C215.579 66.4241 215.162 66.7491 215.011 67.5234V67.5072Z" fill="#263238"/>
<path id="Vector_52" d="M189.722 85.8433L217.372 91.1178" stroke="#263238" stroke-miterlimit="10"/>
<path id="Vector_53" d="M188.693 91.237L216.338 96.5115" stroke="#263238" stroke-miterlimit="10"/>
<path id="Vector_54" d="M234.555 65.5197L241.243 64.4908" stroke="#263238" stroke-miterlimit="10"/>
<path id="Vector_55" d="M233.526 73.2366L237.127 74.2655" stroke="#263238" stroke-miterlimit="10"/>
<path id="Vector_56" d="M231.468 79.9244L238.156 84.5545" stroke="#263238" stroke-miterlimit="10"/>
</g>
<g id="freepik--device-1--inject-35">
<path id="Vector_57" d="M170.443 78.3648C170.791 78.3648 171.124 78.2267 171.37 77.9809C171.616 77.7352 171.754 77.4018 171.754 77.0543V66.2237C171.754 65.8761 171.616 65.5428 171.37 65.297C171.124 65.0513 170.791 64.9132 170.443 64.9132H170.389V60.6784C170.388 59.9917 170.252 59.3119 169.989 58.6778C169.725 58.0437 169.339 57.4677 168.853 56.9829C168.366 56.4981 167.789 56.1139 167.154 55.8522C166.52 55.5906 165.839 55.4567 165.153 55.4581H50.8898C49.5039 55.4581 48.1747 56.0087 47.1947 56.9887C46.2146 57.9687 45.6641 59.2979 45.6641 60.6838V139.623C45.6655 141.008 46.2167 142.335 47.1966 143.314C48.1764 144.293 49.5048 144.843 50.8898 144.843H165.153C166.538 144.843 167.866 144.293 168.846 143.314C169.826 142.335 170.377 141.008 170.378 139.623V111.301H170.432C170.78 111.301 171.113 111.163 171.359 110.917C171.605 110.671 171.743 110.338 171.743 109.99V99.1595C171.743 98.812 171.605 98.4786 171.359 98.2329C171.113 97.9871 170.78 97.849 170.432 97.849H170.378V96.4789H170.432C170.78 96.4789 171.113 96.3409 171.359 96.0951C171.605 95.8493 171.743 95.516 171.743 95.1684V84.3379C171.743 83.9903 171.605 83.657 171.359 83.4112C171.113 83.1654 170.78 83.0274 170.432 83.0274H170.378V78.3648H170.443Z" fill="#263238"/>
<path id="Vector_58" d="M165.732 58.94H50.3374V141.361H165.732V58.94Z" fill="#29AAE1" stroke="#263238" stroke-miterlimit="10"/>
<path id="Vector_59" d="M140.492 69.5377H75.9575V121.368H140.492V69.5377Z" fill="#E3E3E3" stroke="#263238" stroke-miterlimit="10"/>
<path id="Vector_60" d="M100.24 107.006V107.331H99.449V108.485H100.418V108.81H99.0862V105.56H100.418V105.885H99.449V106.995L100.24 107.006Z" fill="#B2B2B2"/>
<path id="Vector_61" d="M101.073 108.81H100.749V105.56H101.203L101.956 107.9V105.56H102.276V108.81H101.902L101.073 106.189V108.81Z" fill="#B2B2B2"/>
<path id="Vector_62" d="M103.115 108.81V105.896H102.514V105.571H104.068V105.896H103.472V108.81H103.115Z" fill="#B2B2B2"/>
<path id="Vector_63" d="M105.465 107.006V107.331H104.675V108.485H105.644V108.81H104.312V105.56H105.644V105.885H104.675V106.995L105.465 107.006Z" fill="#B2B2B2"/>
<path id="Vector_64" d="M106.7 105.571C107.209 105.571 107.426 105.826 107.426 106.308V106.573C107.426 106.93 107.301 107.152 107.019 107.239C107.317 107.331 107.431 107.569 107.431 107.916V108.42C107.418 108.553 107.44 108.688 107.496 108.81H107.128C107.076 108.686 107.056 108.553 107.068 108.42V107.911C107.068 107.542 106.895 107.429 106.597 107.429H106.343V108.81H105.98V105.56L106.7 105.571ZM106.608 107.098C106.895 107.098 107.068 107.006 107.068 106.654V106.34C107.068 106.053 106.96 105.896 106.695 105.896H106.343V107.098H106.608Z" fill="#B2B2B2"/>
<path id="Vector_65" d="M109.955 106.351V106.643H109.608V106.335C109.608 106.042 109.494 105.864 109.229 105.864C108.964 105.864 108.85 106.042 108.85 106.335V108.046C108.85 108.338 108.969 108.517 109.229 108.517C109.489 108.517 109.608 108.338 109.608 108.046V107.624H109.955V108.03C109.955 108.517 109.722 108.842 109.218 108.842C108.714 108.842 108.492 108.517 108.492 108.03V106.351C108.492 105.858 108.725 105.539 109.218 105.539C109.711 105.539 109.955 105.858 109.955 106.351Z" fill="#B2B2B2"/>
<path id="Vector_66" d="M110.252 106.351C110.252 105.858 110.496 105.539 110.994 105.539C111.1 105.532 111.206 105.549 111.304 105.588C111.402 105.628 111.49 105.688 111.562 105.766C111.633 105.844 111.687 105.937 111.718 106.038C111.749 106.139 111.757 106.246 111.741 106.351V108.03C111.758 108.135 111.75 108.242 111.72 108.343C111.69 108.445 111.637 108.539 111.566 108.617C111.495 108.696 111.407 108.758 111.309 108.799C111.211 108.84 111.105 108.858 111 108.853C110.501 108.853 110.258 108.528 110.258 108.041L110.252 106.351ZM110.61 108.046C110.61 108.344 110.734 108.517 110.994 108.517C111.254 108.517 111.379 108.344 111.379 108.046V106.335C111.379 106.042 111.259 105.864 110.994 105.864C110.729 105.864 110.61 106.042 110.61 106.335V108.046Z" fill="#B2B2B2"/>
<path id="Vector_67" d="M112.841 105.571C113.345 105.571 113.577 105.874 113.577 106.373V107.997C113.577 108.495 113.345 108.799 112.841 108.799H112.083V105.549L112.841 105.571ZM112.841 108.485C113.101 108.485 113.225 108.322 113.225 108.024V106.356C113.225 106.059 113.101 105.896 112.835 105.896H112.451V108.485H112.841Z" fill="#B2B2B2"/>
<path id="Vector_68" d="M115.067 107.006V107.331H114.276V108.485H115.251V108.81H113.913V105.56H115.251V105.885H114.276V106.995L115.067 107.006Z" fill="#B2B2B2"/>
<path id="Vector_69" d="M135.396 86.6555H80.9395V92.8019H135.396V86.6555Z" fill="white" stroke="#263238" stroke-miterlimit="10"/>
<path id="Vector_70" d="M135.396 96.403H80.9395V102.549H135.396V96.403Z" fill="white" stroke="#263238" stroke-miterlimit="10"/>
<path id="Vector_71" d="M115.862 110.266H110.723V116.413H115.862V110.266Z" fill="white" stroke="#263238" stroke-miterlimit="10"/>
<path id="Vector_72" d="M109.315 110.266H104.176V116.413H109.315V110.266Z" fill="white" stroke="#263238" stroke-miterlimit="10"/>
<path id="Vector_73" d="M102.774 110.266H97.6348V116.413H102.774V110.266Z" fill="white" stroke="#263238" stroke-miterlimit="10"/>
<path id="Vector_74" d="M96.2322 110.266H91.3259V116.413H96.2322V110.266Z" fill="white" stroke="#263238" stroke-miterlimit="10"/>
<path id="Vector_75" d="M122.594 110.266H117.265V116.413H122.594V110.266Z" fill="white" stroke="#263238" stroke-miterlimit="10"/>
<path id="Vector_76" d="M110.821 76.5723V75.3918C110.785 74.4942 110.404 73.6452 109.756 73.0226C109.109 72.4001 108.245 72.0524 107.347 72.0524C106.449 72.0524 105.585 72.4001 104.938 73.0226C104.29 73.6452 103.909 74.4942 103.873 75.3918V76.5723H103.808V83.1032H110.886V76.5723H110.821ZM107.572 80.1627V81.3432H106.884V80.1518C106.692 80.074 106.533 79.9317 106.434 79.7494C106.335 79.5672 106.303 79.3562 106.343 79.1528C106.382 78.9493 106.492 78.766 106.652 78.6342C106.812 78.5023 107.012 78.4303 107.22 78.4303C107.427 78.4303 107.628 78.5023 107.788 78.6342C107.948 78.766 108.057 78.9493 108.097 79.1528C108.136 79.3562 108.104 79.5672 108.005 79.7494C107.907 79.9317 107.748 80.074 107.555 80.1518L107.572 80.1627ZM109.516 76.5723H105.211V75.3918C105.27 74.8625 105.523 74.3737 105.92 74.0187C106.317 73.6637 106.831 73.4675 107.363 73.4675C107.896 73.4675 108.41 73.6637 108.807 74.0187C109.204 74.3737 109.456 74.8625 109.516 75.3918V76.5723Z" fill="#263238"/>
<path id="Vector_77" d="M99.7358 90.4788C99.7358 90.7712 99.8495 90.9445 100.115 90.9445C100.38 90.9445 100.489 90.7712 100.489 90.4788V87.9985H100.83V90.4408C100.83 90.9336 100.602 91.264 100.099 91.264C99.595 91.264 99.3784 90.9336 99.3784 90.4408V87.9823H99.7358V90.4788Z" fill="#B2B2B2"/>
<path id="Vector_78" d="M102.59 88.7783V88.8649H102.243V88.7566C102.243 88.4696 102.135 88.2963 101.875 88.2963C101.615 88.2963 101.507 88.4696 101.507 88.7566C101.507 89.4823 102.59 89.5527 102.59 90.4625C102.59 90.9552 102.352 91.2747 101.853 91.2747C101.355 91.2747 101.128 90.9552 101.128 90.4625V90.2783H101.469V90.4841C101.469 90.7711 101.588 90.9444 101.848 90.9444C102.108 90.9444 102.227 90.7711 102.227 90.4841C102.227 89.7585 101.144 89.6881 101.144 88.7783C101.144 88.2747 101.371 87.966 101.859 87.966C102.346 87.966 102.59 88.2747 102.59 88.7783Z" fill="#B2B2B2"/>
<path id="Vector_79" d="M104.063 89.4336V89.7586H103.267V90.912H104.241V91.2423H102.909V87.9932H104.241V88.3235H103.267V89.4066L104.063 89.4336Z" fill="#B2B2B2"/>
<path id="Vector_80" d="M105.297 87.9986C105.806 87.9986 106.017 88.2585 106.017 88.7405V89.0058C106.017 89.3632 105.893 89.5853 105.617 89.6719C105.915 89.7586 106.023 90.0022 106.023 90.3488V90.8524C106.013 90.9857 106.035 91.1195 106.088 91.2423H105.725C105.671 91.1179 105.649 90.9821 105.66 90.847V90.338C105.66 89.9697 105.492 89.856 105.189 89.856H104.934V91.2423H104.572V87.9932L105.297 87.9986ZM105.205 89.5257C105.492 89.5257 105.66 89.4336 105.66 89.0816V88.773C105.66 88.4805 105.557 88.3289 105.286 88.3289H104.934V89.5257H105.205Z" fill="#B2B2B2"/>
<path id="Vector_81" d="M107.436 91.2423H107.111V87.9932H107.572L108.319 90.338V87.9932H108.638V91.2423H108.292L107.463 88.6213L107.436 91.2423Z" fill="#B2B2B2"/>
<path id="Vector_82" d="M109.375 90.5871L109.251 91.2423H108.915L109.538 87.9932H110.079L110.696 91.2423H110.339L110.209 90.5871H109.375ZM109.424 90.2784H110.144L109.781 88.4047L109.424 90.2784Z" fill="#B2B2B2"/>
<path id="Vector_83" d="M112.159 91.2369H111.812L111.271 88.6593V91.2423H110.957V87.9932H111.46L112.002 90.5817L112.516 87.9932H113.02V91.2423H112.679V88.6322L112.159 91.2369Z" fill="#B2B2B2"/>
<path id="Vector_84" d="M114.536 89.4336V89.7586H113.745V90.912H114.72V91.2423H113.388V87.9932H114.72V88.3235H113.745V89.4066L114.536 89.4336Z" fill="#B2B2B2"/>
<path id="Vector_85" d="M100.229 99.1703L100.722 99.7119L100.483 99.8852L100.121 99.2407L99.7577 99.8852L99.5248 99.7119L100.007 99.1703L99.292 99.0187L99.3786 98.7371L100.056 99.035L99.9743 98.3039H100.267L100.191 99.035L100.868 98.7425L100.954 99.0241L100.229 99.1703Z" fill="#B2B2B2"/>
<path id="Vector_86" d="M102.059 99.1703L102.552 99.7119L102.313 99.8852L101.951 99.2407L101.588 99.8852L101.35 99.7119L101.837 99.1703L101.122 99.0187L101.209 98.7371L101.886 99.035L101.799 98.3039H102.097L102.016 99.035L102.693 98.7425L102.785 99.0241L102.059 99.1703Z" fill="#B2B2B2"/>
<path id="Vector_87" d="M103.889 99.1703L104.382 99.7119L104.144 99.8852L103.776 99.2407L103.418 99.8852L103.18 99.7119L103.667 99.1703L102.947 99.0187L103.039 98.7371L103.711 99.035L103.629 98.3039H103.927L103.846 99.035L104.523 98.7425L104.61 99.0241L103.889 99.1703Z" fill="#B2B2B2"/>
<path id="Vector_88" d="M105.72 99.1703L106.207 99.7119L105.974 99.8852L105.606 99.2407L105.243 99.8852L105.01 99.7119L105.498 99.1703L104.777 99.0187L104.864 98.7371L105.541 99.035L105.46 98.3039H105.752L105.676 99.035L106.353 98.7425L106.44 99.0241L105.72 99.1703Z" fill="#B2B2B2"/>
<path id="Vector_89" d="M107.545 99.1703L108.038 99.7119L107.799 99.8852L107.436 99.2407L107.074 99.8852L106.841 99.7119L107.323 99.1703L106.608 99.0187L106.695 98.7371L107.371 99.035L107.285 98.3039H107.583L107.507 99.035L108.184 98.7425L108.27 99.0241L107.545 99.1703Z" fill="#B2B2B2"/>
<path id="Vector_90" d="M109.375 99.1703L109.868 99.7119L109.63 99.8852L109.267 99.2407L108.904 99.8852L108.666 99.7119L109.153 99.1703L108.433 99.0187L108.525 98.7371L109.202 99.035L109.115 98.3039H109.413L109.332 99.035L110.009 98.7425L110.101 99.0241L109.375 99.1703Z" fill="#B2B2B2"/>
<path id="Vector_91" d="M111.205 99.1703L111.698 99.7119L111.46 99.8852L111.092 99.2407L110.734 99.8852L110.496 99.7119L110.983 99.1703L110.263 99.0187L110.35 98.7371L111.027 99.035L110.946 98.3039H111.243L111.162 99.035L111.839 98.7425L111.926 99.0241L111.205 99.1703Z" fill="#B2B2B2"/>
<path id="Vector_92" d="M113.036 99.1703L113.523 99.7119L113.291 99.8852L112.922 99.2407L112.559 99.8852L112.327 99.7119L112.814 99.1703L112.094 99.0187L112.18 98.7371L112.857 99.035L112.776 98.3039H113.069L112.993 99.035L113.67 98.7425L113.756 99.0241L113.036 99.1703Z" fill="#B2B2B2"/>
</g>
<g id="freepik--Mug--inject-35">
<path id="Vector_93" d="M113.685 246.786C132.817 246.786 148.327 232.212 148.327 214.235C148.327 196.257 132.817 181.683 113.685 181.683C94.5533 181.683 79.0437 196.257 79.0437 214.235C79.0437 232.212 94.5533 246.786 113.685 246.786Z" fill="#263238"/>
<path id="Vector_94" d="M112.954 245.091C132.086 245.091 147.596 230.517 147.596 212.54C147.596 194.562 132.086 179.988 112.954 179.988C93.8223 179.988 78.3127 194.562 78.3127 212.54C78.3127 230.517 93.8223 245.091 112.954 245.091Z" fill="white" stroke="#263238" stroke-miterlimit="10"/>
<path id="Vector_95" d="M112.954 240.64C129.467 240.64 142.852 228.059 142.852 212.54C142.852 197.02 129.467 184.44 112.954 184.44C96.4424 184.44 83.0566 197.02 83.0566 212.54C83.0566 228.059 96.4424 240.64 112.954 240.64Z" fill="white" stroke="#263238" stroke-miterlimit="10"/>
<path id="Vector_96" d="M121.24 193.624C109.24 193.624 99.5083 205.846 99.5083 220.928C99.5083 230.675 103.564 239.188 109.657 244.024C110.664 244.111 111.682 244.159 112.711 244.159C125.328 244.159 136.327 237.704 142.202 228.119C142.706 225.763 142.956 223.359 142.95 220.949C142.95 205.846 133.24 193.624 121.24 193.624Z" fill="#263238"/>
<path id="Vector_97" d="M99.7627 208.613H85.6125V211.998H99.7627V208.613Z" fill="white" stroke="#263238" stroke-miterlimit="10"/>
<path id="Vector_98" d="M117.947 230.405C129.868 230.405 139.533 221.325 139.533 210.124C139.533 198.924 129.868 189.844 117.947 189.844C106.026 189.844 96.3618 198.924 96.3618 210.124C96.3618 221.325 106.026 230.405 117.947 230.405Z" fill="white" stroke="#263238" stroke-miterlimit="10"/>
<path id="Vector_99" d="M117.947 227.058C127.898 227.058 135.964 219.476 135.964 210.124C135.964 200.772 127.898 193.191 117.947 193.191C107.997 193.191 99.9307 200.772 99.9307 210.124C99.9307 219.476 107.997 227.058 117.947 227.058Z" fill="#263238" stroke="#263238" stroke-miterlimit="10"/>
<path id="Vector_100" d="M110.398 194.593C110.284 194.31 110.15 194.035 109.998 193.77C108.157 190.57 108.373 186.503 109.765 182.723" stroke="#263238" stroke-miterlimit="10"/>
<path id="Vector_101" d="M110.685 201.324C110.685 201.324 111.649 197.664 110.398 194.593" stroke="white" stroke-miterlimit="10"/>
<path id="Vector_102" d="M117.113 193.77C115.278 190.57 115.489 186.503 116.886 182.723" stroke="#263238" stroke-miterlimit="10"/>
<path id="Vector_103" d="M117.801 201.324C117.801 201.324 118.949 196.965 117.113 193.77" stroke="white" stroke-miterlimit="10"/>
<path id="Vector_104" d="M124.462 194.198C124.392 194.052 124.316 193.911 124.234 193.77C122.399 190.57 122.61 186.503 124.002 182.723" stroke="#263238" stroke-miterlimit="10"/>
<path id="Vector_105" d="M124.922 201.325C124.922 201.325 125.973 197.344 124.462 194.198" stroke="white" stroke-miterlimit="10"/>
</g>
<g id="freepik--right-hand--inject-35">
<path id="Vector_106" d="M193.388 179.923C193.388 179.923 192.846 179.956 191.812 180.064C190.859 176.815 187.989 167.208 186.104 162.242C183.819 156.21 180.689 147.681 178.62 144.144C176.552 140.608 176.747 138.529 172.793 135.204C168.84 131.879 165.304 133.33 165.304 133.33C165.304 133.33 164.681 130.834 160.728 129.588C156.775 128.343 151.371 130.834 151.371 130.834C151.371 130.834 150.537 129.377 146.583 129.794C145.419 129.937 144.31 130.375 143.362 131.067C142.414 131.758 141.659 132.681 141.168 133.747C141.168 133.747 133.045 117.501 129.937 116.272C126.828 115.043 123.693 118.146 124.944 121.059C126.195 123.972 135.552 140.197 136.798 143.939C138.043 147.681 140.751 153.924 140.751 153.924C140.751 153.924 131.805 147.475 129.103 146.852C126.401 146.229 122.447 145.812 120.157 148.309C117.866 150.805 123.276 151.428 127.646 155.381C132.016 159.334 139.089 168.481 142.414 174.308C145.739 180.135 152.816 181.174 155.952 184.499C158.145 186.844 161.27 190.109 162.927 191.842C162.366 192.41 161.843 193.015 161.362 193.651L168.223 210.498C168.223 210.498 169.68 208.213 175.507 203.637C181.333 199.061 199.426 193.445 199.426 193.445L193.388 179.923Z" fill="#263238" stroke="#263238" stroke-miterlimit="10"/>
<path id="Vector_107" d="M163.804 188.674C163.804 188.674 158.811 183.476 155.681 180.151C152.551 176.826 145.49 175.781 142.143 169.954C138.796 164.127 131.74 154.98 127.375 151.027C123.011 147.074 117.601 146.451 119.886 143.955C122.171 141.458 126.162 141.886 128.87 142.498C131.578 143.11 140.518 149.571 140.518 149.571C140.518 149.571 137.811 143.332 136.565 139.59C135.32 135.848 125.946 119.619 124.7 116.705C123.455 113.792 126.568 110.672 129.688 111.923C132.807 113.174 140.924 129.393 140.924 129.393C141.414 128.327 142.169 127.404 143.117 126.713C144.065 126.021 145.175 125.585 146.34 125.445C150.293 125.028 151.127 126.485 151.127 126.485C151.127 126.485 156.542 123.989 160.484 125.234C164.427 126.48 165.06 128.982 165.06 128.982C165.06 128.982 168.597 127.525 172.55 130.85C176.503 134.175 176.292 136.265 178.371 139.796C180.451 143.327 183.575 151.861 185.861 157.894C188.146 163.926 191.893 176.82 191.893 176.82L165.05 191.382L163.804 188.674Z" fill="white" stroke="#263238" stroke-miterlimit="10"/>
<path id="Vector_108" d="M140.924 129.393L148.202 140.213" stroke="#263238" stroke-miterlimit="10"/>
<path id="Vector_109" d="M151.116 126.485L157.771 136.883" stroke="#263238" stroke-miterlimit="10"/>
<path id="Vector_110" d="M165.049 128.982L169.625 137.094" stroke="#263238" stroke-miterlimit="10"/>
<path id="Vector_111" d="M143.713 158.874L144.666 161.636" stroke="#263238" stroke-miterlimit="10"/>
<path id="Vector_112" d="M140.507 149.571L143.053 156.957" stroke="#263238" stroke-miterlimit="10"/>
<path id="Vector_113" d="M152.156 142.709L153.818 144.995" stroke="#263238" stroke-miterlimit="10"/>
<path id="Vector_114" d="M159.851 140.419L161.725 142.915" stroke="#263238" stroke-miterlimit="10"/>
<path id="Vector_115" d="M170.042 139.173L171.288 143.126" stroke="#263238" stroke-miterlimit="10"/>
<path id="Vector_116" d="M161.096 189.303C161.096 189.303 165.883 182.647 175.658 179.317C181.305 177.349 187.175 176.092 193.133 175.575L199.166 189.113C199.166 189.113 181.068 194.707 175.241 199.288C169.414 203.87 167.963 206.155 167.963 206.155L161.096 189.303Z" fill="white" stroke="#263238" stroke-miterlimit="10"/>
<g id="Vector_117">
<path d="M177.532 234.228C177.532 234.228 169.626 214.467 167.546 210.309C165.467 206.15 168.797 204.07 168.797 204.07C168.797 204.07 173.579 197.62 186.061 192.628C198.543 187.635 199.599 187.429 202.697 190.965C205.794 194.501 226.286 234.287 226.286 234.287" fill="white"/>
<path d="M177.532 234.228C177.532 234.228 169.626 214.467 167.546 210.309C165.467 206.15 168.797 204.07 168.797 204.07C168.797 204.07 173.579 197.62 186.061 192.628C198.543 187.635 199.599 187.429 202.697 190.965C205.794 194.501 226.286 234.287 226.286 234.287" stroke="#263238" stroke-miterlimit="10"/>
</g>
</g>
<g id="freepik--left-hand--inject-35">
<path id="Vector_118" d="M47.6837 213.439C49.8308 209.373 53.1671 206.059 57.2471 203.94C63.9783 200.507 68.3539 199.028 74.7981 192.671C81.2423 186.313 91.8617 180.638 96.2372 179.858C100.613 179.078 102.069 177.189 100.185 175.044C98.3005 172.9 93.1451 172.775 88.5692 174.324C83.9932 175.873 79.7476 177.768 79.7476 177.768C82.0708 173.197 83.6142 167.69 85.8994 163.103C87.524 159.854 90.1829 154.471 91.7642 151.19C92.7931 149.051 95.8582 145.487 94.4718 143.148C93.0855 140.809 89.8201 142.363 88.1576 144.594C85.5149 148.146 72.5886 167.636 72.5886 167.636L79.9588 152.04C83.69 144.139 85.4662 140.37 84.9409 141.491C86.024 139.184 88.1468 136.076 86.8525 133.438C86.5594 132.821 86.106 132.294 85.5396 131.911C84.9732 131.529 84.3146 131.306 83.6324 131.265C82.9503 131.224 82.2696 131.367 81.6616 131.679C81.0535 131.99 80.5403 132.46 80.1755 133.038C78.3776 135.962 64.639 161.961 64.639 161.961C64.639 161.961 73.2385 139.65 74.3378 137.083C75.6808 133.953 74.8793 131.218 72.9081 131.234C70.0272 131.234 68.668 134.446 67.5416 136.612L68.1697 135.697C65.4621 139.287 63.6696 143.998 61.4169 147.892C58.7995 152.448 56.0846 156.944 53.2723 161.381C53.8138 156.784 55.6712 152.473 57.9565 148.482C59.3374 146.078 65.083 140.17 64.0974 137.267C63.2527 134.765 56.9547 139.466 53.2669 144.594C51.274 147.388 46.0374 155.013 44.6024 160.374C43.1673 165.735 33.0786 184.001 30.3872 189.075C27.6958 194.149 24.4629 203.155 24.4629 203.155L47.6837 213.439Z" fill="#263238" stroke="#263238" stroke-miterlimit="10"/>
<path id="Vector_119" d="M55.3681 208.532C55.3681 208.532 50.1803 202.185 40.2053 199.467C34.448 197.853 28.5126 196.959 22.5352 196.808L17.3582 210.66C17.3582 210.66 35.7702 215.155 41.8624 219.363C47.9546 223.57 49.5521 225.764 49.5521 225.764L55.3681 208.532Z" fill="#263238" stroke="#263238" stroke-miterlimit="10"/>
<path id="Vector_120" d="M47.0013 211.034C49.1484 206.972 52.4825 203.66 56.5593 201.541C63.2905 198.102 67.6715 196.624 74.1103 190.272C80.5491 183.92 91.1739 178.239 95.5549 177.454C99.9358 176.669 101.387 174.79 99.4972 172.64C97.6073 170.49 92.4573 170.376 87.8814 171.925C83.3055 173.474 79.049 175.364 79.049 175.364C81.3722 170.793 82.9156 165.291 85.2008 160.699C86.8254 157.45 89.4897 152.072 91.0656 148.785C92.0945 146.646 95.1595 143.083 93.7732 140.749C92.3869 138.415 89.1269 139.958 87.4644 142.195C84.8217 145.747 71.8954 165.232 71.8954 165.232C74.3468 160.033 76.8017 154.836 79.2602 149.641C82.9914 141.74 84.773 137.971 84.2423 139.086C85.3254 136.785 87.4536 133.698 86.1593 131.039C85.866 130.422 85.4123 129.894 84.8458 129.512C84.2792 129.129 83.6204 128.905 82.938 128.864C82.2556 128.822 81.5745 128.965 80.9658 129.276C80.357 129.587 79.8429 130.056 79.4768 130.633C77.679 133.563 63.9404 159.562 63.9404 159.562C63.9404 159.562 72.5399 137.245 73.6392 134.684C74.9822 131.548 74.1807 128.819 72.2095 128.835C69.3286 128.835 67.9694 132.041 66.843 134.213L67.4711 133.298C64.7635 136.882 62.971 141.599 60.7183 145.493C58.09 150.042 55.368 154.536 52.552 158.977C53.0935 154.379 54.951 150.074 57.2362 146.083C58.6171 143.679 64.3628 137.771 63.3826 134.863C62.5378 132.366 56.2344 137.061 52.552 142.195C50.5538 144.989 45.3226 152.608 43.8875 157.975C42.4525 163.342 32.3638 181.597 29.6724 186.676C26.981 191.756 23.748 200.756 23.748 200.756L47.0013 211.034Z" fill="white" stroke="#263238" stroke-miterlimit="10"/>
<path id="Vector_121" d="M63.9732 159.567L61.4875 164.587" stroke="#263238" stroke-miterlimit="10"/>
<path id="Vector_122" d="M71.9282 165.237L69.9895 167.75" stroke="#263238" stroke-miterlimit="10"/>
<path id="Vector_123" d="M79.0601 175.364L76.5691 178.992" stroke="#263238" stroke-miterlimit="10"/>
<path id="Vector_124" d="M66.1825 172.981L65.9822 175.142" stroke="#263238" stroke-miterlimit="10"/>
<path id="Vector_125" d="M59.9766 169.044L59.9874 171.129" stroke="#263238" stroke-miterlimit="10"/>
<path id="Vector_126" d="M50.8464 164.695L51.3501 168.242" stroke="#263238" stroke-miterlimit="10"/>
<path id="Vector_127" d="M54.6803 206.133C54.6803 206.133 49.4925 199.787 39.5175 197.068C33.7652 195.457 27.8353 194.566 21.8636 194.415L16.6758 208.278C16.6758 208.278 35.0878 212.767 41.18 216.975C47.2722 221.182 48.8697 223.381 48.8697 223.381L54.6803 206.133Z" fill="white" stroke="#263238" stroke-miterlimit="10"/>
<g id="Vector_128">
<path d="M46.4276 236.112C46.4276 236.112 47.7219 231.78 49.5414 227.497C51.3609 223.213 47.9168 221.345 47.9168 221.345C47.9168 221.345 42.7398 215.204 29.9759 210.991C17.2121 206.778 16.1615 206.631 13.2643 210.352C10.3672 214.072 1.06909 236.448 1.06909 236.448" fill="white"/>
<path d="M46.4276 236.112C46.4276 236.112 47.7219 231.78 49.5414 227.497C51.3609 223.213 47.9168 221.345 47.9168 221.345C47.9168 221.345 42.7398 215.204 29.9759 210.991C17.2121 206.778 16.1615 206.631 13.2643 210.352C10.3672 214.072 1.06909 236.448 1.06909 236.448" stroke="#263238" stroke-miterlimit="10"/>
</g>
</g>
</g>
</svg>
