<svg width="165" height="52" viewBox="0 0 165 52" fill="none" xmlns="http://www.w3.org/2000/svg">
<g id="Layer_1" clip-path="url(#clip0_341_6949)">
<path id="Vector" d="M31.06 13.39C30.7469 13.234 30.406 13.1412 30.057 13.1171C29.708 13.093 29.3577 13.1379 29.026 13.2494C28.6944 13.3609 28.3881 13.5366 28.1245 13.7667C27.8609 13.9967 27.6453 14.2765 27.49 14.59L20.49 28.74L18.49 22.98L21.49 16.98C21.8017 16.3459 21.8494 15.6142 21.6226 14.945C21.3958 14.2759 20.913 13.7239 20.28 13.41C19.6486 13.098 18.9193 13.0491 18.2519 13.2741C17.5846 13.499 17.0337 13.9795 16.72 14.61L16.1 15.85L15.8 14.96C15.6907 14.6386 15.5192 14.342 15.2951 14.0871C15.071 13.8321 14.7988 13.6239 14.4941 13.4743C14.1894 13.3248 13.8582 13.2368 13.5194 13.2155C13.1807 13.1941 12.841 13.2399 12.52 13.35C11.8751 13.5728 11.3448 14.0419 11.0449 14.6547C10.7451 15.2675 10.7001 15.9741 10.92 16.62L12.92 22.35L9.76999 28.7L5.06999 14.96C4.95821 14.6356 4.78261 14.3368 4.55352 14.0814C4.32444 13.8259 4.04651 13.6189 3.73615 13.4726C3.42578 13.3263 3.08926 13.2436 2.74642 13.2294C2.40359 13.2152 2.06139 13.2698 1.73999 13.39C1.0933 13.6107 0.56059 14.079 0.258753 14.692C-0.0430836 15.3051 -0.0893916 16.0129 0.129992 16.66L6.76999 36.06C6.82798 36.3248 6.92934 36.5783 7.06999 36.81L7.15999 36.96C7.38561 37.2871 7.6832 37.5581 8.0299 37.7523C8.37661 37.9465 8.7632 38.0586 9.15999 38.08H9.36999C9.85751 38.074 10.3339 37.9335 10.7468 37.6741C11.1596 37.4148 11.4929 37.0466 11.71 36.61L15.25 29.46L17.63 36.39C17.7392 36.7114 17.9108 37.008 18.1349 37.263C18.359 37.5179 18.6312 37.7261 18.9359 37.8757C19.2406 38.0252 19.5718 38.1132 19.9105 38.1345C20.2493 38.1559 20.5889 38.1101 20.91 38C21.0994 37.9302 21.2805 37.8397 21.45 37.73C21.9198 37.4684 22.2997 37.0711 22.54 36.59L32.26 16.99C32.4221 16.6757 32.5197 16.3322 32.547 15.9796C32.5743 15.627 32.5308 15.2725 32.4189 14.937C32.3071 14.6015 32.1293 14.2918 31.8959 14.0261C31.6625 13.7604 31.3783 13.5441 31.06 13.39Z" fill="white"/>
<path id="Vector_2" d="M53.18 15.13C53.75 13.93 54.36 12.78 55.98 12.87C57.84 12.98 58.4 14.21 58.41 15.79C58.41 19.97 58.41 24.15 58.41 28.32C58.41 30.32 58.41 32.32 58.41 34.32C58.41 35.85 58.04 37.23 56.31 37.62C54.58 38.01 53.71 36.88 53.12 35.47C46.65 39 40.12 38.22 36.33 33.71C34.3245 31.4613 33.1817 28.5741 33.1048 25.562C33.0279 22.5499 34.0219 19.6081 35.91 17.26C40.35 11.91 46.32 11.2 53.14 15.14M45.53 17.65C43.5505 17.6842 41.6655 18.5028 40.2892 19.926C38.9129 21.3492 38.1579 23.2605 38.19 25.24C38.2069 26.2372 38.4204 27.2212 38.8183 28.1357C39.2162 29.0502 39.7907 29.8772 40.5088 30.5693C41.2269 31.2614 42.0745 31.805 43.0031 32.1689C43.9316 32.5328 44.9229 32.7099 45.92 32.69C47.8897 32.5637 49.7386 31.6963 51.0948 30.2622C52.4509 28.8281 53.2138 26.9337 53.23 24.96C53.1347 22.9845 52.281 21.1219 50.8466 19.7602C49.4122 18.3984 47.5078 17.6426 45.53 17.65Z" fill="white"/>
<path id="Vector_3" d="M81.06 15.12C86.34 11.77 89.73 11.76 96.26 15.12C96.35 14.9 96.43 14.69 96.53 14.48C96.748 13.8846 97.185 13.3947 97.7517 13.1104C98.3185 12.8261 98.9724 12.7687 99.58 12.95C100.141 13.0547 100.642 13.3649 100.986 13.8199C101.33 14.2749 101.492 14.842 101.44 15.41C101.51 18.15 101.44 20.89 101.44 23.63C101.44 27.1167 101.44 30.6067 101.44 34.1C101.44 35.51 101.27 36.93 99.71 37.5C98.15 38.07 97.04 37.33 96.38 35.92C96.05 35.22 95.71 35.57 95.38 35.81C92.38 38.01 89.03 38.06 85.57 37.47C83.2802 36.8594 81.206 35.6222 79.5807 33.8975C77.9554 32.1728 76.8433 30.029 76.3696 27.707C75.8958 25.3849 76.0791 22.9768 76.8989 20.7532C77.7186 18.5297 79.1424 16.5788 81.01 15.12M81.23 25.12C81.2274 26.1167 81.4211 27.1042 81.8001 28.0261C82.1791 28.948 82.736 29.7861 83.4389 30.4928C84.1419 31.1995 84.9771 31.7607 85.897 32.1446C86.8168 32.5285 87.8033 32.7274 88.8 32.73C90.6958 32.6047 92.4739 31.7665 93.777 30.3838C95.08 29.0011 95.8114 27.1764 95.824 25.2765C95.8367 23.3766 95.1297 21.5423 93.8453 20.1423C92.5608 18.7424 90.794 17.8805 88.9 17.73C87.9043 17.6978 86.9122 17.8662 85.9829 18.2252C85.0536 18.5841 84.2059 19.1263 83.4904 19.8195C82.7748 20.5127 82.2059 21.3427 81.8176 22.2601C81.4293 23.1776 81.2295 24.1638 81.23 25.16" fill="white"/>
<path id="Vector_4" d="M62.4 25.24C62.4 22.12 62.4 19.01 62.4 15.89C62.4 14.59 62.76 13.49 64.03 13.04C64.6118 12.7836 65.2689 12.7565 65.8698 12.9642C66.4707 13.1719 66.9708 13.599 67.27 14.16C67.7 14.88 67.93 14.82 68.47 14.33C69.464 13.47 70.651 12.8627 71.93 12.56C72.2752 12.4228 72.6442 12.3553 73.0156 12.3616C73.387 12.3678 73.7535 12.4476 74.0938 12.5964C74.4342 12.7452 74.7417 12.96 74.9985 13.2284C75.2553 13.4968 75.4563 13.8134 75.59 14.16C76.08 15.59 75.3 17.01 73.5 17.52C71.8552 17.8849 70.378 18.7853 69.3 20.08C68.1692 21.4983 67.5681 23.2664 67.6 25.08C67.6 28.2 67.6 31.31 67.6 34.43C67.6 36.54 66.6 37.69 64.88 37.68C63.16 37.67 62.43 36.55 62.41 34.39C62.41 31.33 62.41 28.28 62.41 25.23" fill="white"/>
<path id="Vector_5" d="M160.45 13.39C163.03 12.15 164.91 13.33 164.93 16.25C164.93 22.15 164.93 28.05 165 33.94C164.79 37.16 164.59 40.38 162.91 43.25C159.85 48.49 155.41 51.68 149.23 51.72C143.05 51.76 138.23 48.89 135.15 43.48C133.809 41.141 133.119 38.4859 133.15 35.79V3.39C133.11 3.01774 133.11 2.64226 133.15 2.27001C133.228 1.64301 133.545 1.07032 134.035 0.671557C134.525 0.272789 135.15 0.0787722 135.78 0.130007C136.379 0.0991631 136.967 0.301722 137.42 0.695162C137.873 1.0886 138.156 1.64231 138.21 2.24001C138.3 2.85562 138.33 3.47856 138.3 4.10001C138.3 14.3867 138.3 24.6767 138.3 34.97C138.3 39.6 140.11 43.2 144.3 45.31C145.741 46.0074 147.32 46.3714 148.92 46.3751C150.521 46.3788 152.101 46.0221 153.545 45.3315C154.989 44.6408 156.258 43.6339 157.26 42.3855C158.261 41.1371 158.969 39.6792 159.33 38.12C159.432 37.8537 159.476 37.5688 159.458 37.2842C159.441 36.9996 159.363 36.722 159.23 36.47C158.069 37.4002 156.691 38.0188 155.224 38.2673C153.758 38.5158 152.252 38.3859 150.85 37.89C148.575 37.1804 146.587 35.7604 145.178 33.8383C143.769 31.9163 143.012 29.5933 143.02 27.21C142.89 23.48 142.95 19.73 143.02 15.99C143.02 13.77 143.86 12.93 145.67 12.93C147.31 12.93 148.23 13.93 148.27 16.08C148.33 19.82 148.36 23.57 148.27 27.31C148.174 28.4639 148.462 29.6171 149.09 30.5901C149.718 31.5631 150.649 32.3014 151.74 32.69C155.2 34.08 159.61 31.82 159.74 26.76C159.82 23.02 159.79 19.28 159.74 15.53C159.701 15.1357 159.746 14.7376 159.872 14.3619C159.998 13.9862 160.201 13.6414 160.47 13.35" fill="white"/>
<path id="Vector_6" d="M129.45 18.89C129.45 24.07 129.45 29.24 129.45 34.41C129.45 35.87 129.07 37.06 127.61 37.51C127.301 37.6284 126.971 37.6816 126.64 37.6663C126.31 37.651 125.986 37.5674 125.689 37.4209C125.392 37.2744 125.129 37.0681 124.916 36.815C124.702 36.5619 124.544 36.2674 124.45 35.95C124.11 35.13 123.77 35.45 123.36 35.8C119.54 38.94 112.11 38.43 107.81 34.09C105.771 32.082 104.472 29.4417 104.127 26.6004C103.782 23.7592 104.411 20.8849 105.911 18.4472C107.411 16.0095 109.693 14.1525 112.384 13.1794C115.076 12.2064 118.018 12.1748 120.73 13.09C121.555 13.3739 122.323 13.8004 123 14.35C123.89 15.07 124.28 14.78 124.27 13.66C124.27 10.11 124.27 6.56 124.27 3.01C124.27 0.780002 125.94 -0.499995 127.77 0.170005C128.331 0.373999 128.804 0.767062 129.107 1.28167C129.41 1.79628 129.524 2.40031 129.43 2.99001C129.43 8.29001 129.43 13.58 129.43 18.88M116.88 32.55C117.876 32.5347 118.859 32.3206 119.772 31.9202C120.684 31.5198 121.507 30.9412 122.192 30.2183C122.878 29.4955 123.412 28.6429 123.764 27.7108C124.116 26.7786 124.277 25.7856 124.24 24.79C124.147 22.8129 123.29 20.9491 121.85 19.5911C120.41 18.2332 118.499 17.4871 116.52 17.51C114.517 17.6476 112.643 18.5454 111.28 20.0195C109.918 21.4936 109.17 23.4327 109.19 25.44C109.32 27.3834 110.19 29.2032 111.62 30.5255C113.05 31.8478 114.932 32.5723 116.88 32.55Z" fill="white"/>
</g>
<defs>
<clipPath id="clip0_341_6949">
<rect width="165" height="51.68" fill="white"/>
</clipPath>
</defs>
</svg>
